<?xml version="1.0" encoding="utf-8"?>
<!-- Generator: Adobe Illustrator 23.0.2, SVG Export Plug-In . SVG Version: 6.00 Build 0)  -->
<!DOCTYPE svg PUBLIC "-//W3C//DTD SVG 1.0//EN" "http://www.w3.org/TR/2001/REC-SVG-20010904/DTD/svg10.dtd" [
	<!ENTITY st0 "display:none;">
	<!ENTITY st1 "display:inline;fill:#6C8E85;">
	<!ENTITY st2 "display:inline;fill:#4E6760;">
	<!ENTITY st3 "fill:#FFFFFF;">
	<!ENTITY st4 "opacity:0.6;fill:#FFFFFF;">
	<!ENTITY st5 "fill:#FFFFFF;stroke:#4E6760;stroke-width:2;stroke-miterlimit:10;">
	<!ENTITY st6 "fill:#FFFFFF;stroke:#FFFFFF;stroke-width:0.5;stroke-miterlimit:10;">
	<!ENTITY st7 "fill:#075B4B;">
]>
<svg version="1.0" xmlns="http://www.w3.org/2000/svg" xmlns:xlink="http://www.w3.org/1999/xlink" x="0px" y="0px"
	 viewBox="0 0 1800 900" style="enable-background:new 0 0 1800 900;" xml:space="preserve">
<g id="Capa_5" style="&st0;">
	<rect x="1547.1" y="0" style="&st1;" width="252.9" height="900"/>
	<rect y="830.2" style="&st2;" width="1547.1" height="69.8"/>
</g>
<g id="Capa_4">
	<g>
		<path style="&st3;" d="M634.6,837.2v-0.7c0.4,0,0.8-0.1,1-0.3s0.4-0.4,0.5-0.7h0.7v7.7h-1v-6.3C635.5,837,635,837.1,634.6,837.2z"
			/>
	</g>
	<circle style="&st4;" cx="894.2" cy="850.1" r="2.3"/>
	<circle style="&st3;" cx="884.9" cy="855.3" r="2.3"/>
	<circle style="&st3;" cx="869.4" cy="848.2" r="2.3"/>
	<circle style="&st3;" cx="852.2" cy="870.9" r="2.2"/>
	<circle style="&st4;" cx="854.8" cy="879.9" r="2.2"/>
	<circle style="&st3;" cx="857.6" cy="866.5" r="2.2"/>
	<circle style="&st3;" cx="850.4" cy="858.1" r="2.2"/>
	<circle style="&st3;" cx="857.6" cy="858.4" r="1.9"/>
	<circle style="&st3;" cx="852.9" cy="850.1" r="1.9"/>
	<circle style="&st3;" cx="859.5" cy="872.8" r="1.9"/>
	<circle style="&st3;" cx="878" cy="861.3" r="1.9"/>
	<circle style="&st3;" cx="865.9" cy="853.9" r="1.9"/>
	<circle style="&st4;" cx="861.8" cy="843.2" r="1.9"/>
	<circle style="&st4;" cx="877.2" cy="849.2" r="1.9"/>
	<circle style="&st3;" cx="884.9" cy="848.2" r="1.9"/>
	<circle style="&st3;" cx="891.3" cy="844.8" r="1.9"/>
	<circle style="&st3;" cx="879.2" cy="843.2" r="1.9"/>
	<circle style="&st3;" cx="855.1" cy="842" r="1.9"/>
	<circle style="&st3;" cx="848.1" cy="843.9" r="1.9"/>
	<circle style="&st3;" cx="871.8" cy="841.8" r="1.9"/>
	<circle style="&st3;" cx="897.9" cy="841.3" r="1.9"/>
	<circle style="&st3;" cx="898.4" cy="858.8" r="1.9"/>
	<circle style="&st3;" cx="884.5" cy="874.4" r="1.9"/>
	<circle style="&st3;" cx="898.4" cy="877.3" r="1.9"/>
	<circle style="&st4;" cx="890.4" cy="879.9" r="1.9"/>
	<circle style="&st3;" cx="880.1" cy="881.3" r="1.9"/>
	<circle style="&st4;" cx="864.6" cy="879.9" r="1.9"/>
	<circle style="&st3;" cx="865.4" cy="869.1" r="1.9"/>
	<circle style="&st3;" cx="871.8" cy="882.9" r="1.9"/>
	<circle style="&st3;" cx="863.5" cy="860.4" r="1.9"/>
	<circle style="&st4;" cx="848.5" cy="866.5" r="1.9"/>
	<circle style="&st3;" cx="848.1" cy="880.9" r="1.9"/>
	<circle style="&st4;" cx="859.9" cy="852.6" r="1.9"/>
	<circle style="&st3;" cx="883" cy="866" r="1.9"/>
	<circle style="&st3;" cx="885.2" cy="883.5" r="1.9"/>
	<circle style="&st4;" cx="896.8" cy="885.4" r="1.9"/>
	<circle style="&st3;" cx="891.3" cy="856.2" r="1.9"/>
	<circle style="&st3;" cx="888.5" cy="862.3" r="1.9"/>
	<circle style="&st3;" cx="894.4" cy="871.7" r="1.9"/>
	<circle style="&st4;" cx="868" cy="863.4" r="1.9"/>
	<circle style="&st3;" cx="869.9" cy="873.1" r="2.2"/>
	<circle style="&st3;" cx="859.5" cy="885.6" r="2.2"/>
	<circle style="&st4;" cx="873.7" cy="867.3" r="2.2"/>
	<circle style="&st3;" cx="876.7" cy="873.4" r="2.2"/>
	<circle style="&st3;" cx="888.5" cy="869.8" r="2.2"/>
	<circle style="&st4;" cx="893.5" cy="864.6" r="2.2"/>
	<circle style="&st3;" cx="873.2" cy="858.8" r="2.2"/>
	<circle style="&st3;" cx="1686.3" cy="141.7" r="32.6"/>
	<path style="&st5;" d="M1686.1,254.9c-62.6,0-113.3-50.7-113.3-113.3s50.7-113.3,113.3-113.3l0.1,19.8c-51.6,0-93.5,41.8-93.5,93.5
		s41.8,93.5,93.5,93.5L1686.1,254.9z"/>
	<g>
		<path style="&st3;" d="M1721.1,30c0.3,0.4,0.5,1,0.5,1.7v4.6c0,0.7-0.2,1.3-0.5,1.7c-0.3,0.4-0.8,0.6-1.5,0.6h-2v-9.1h2
			C1720.3,29.4,1720.8,29.6,1721.1,30z M1720.6,37.5c0.2-0.3,0.4-0.7,0.4-1.2v-4.6c0-0.5-0.1-0.9-0.4-1.2c-0.2-0.3-0.6-0.5-1.1-0.5
			h-1.4v8h1.4C1720,37.9,1720.4,37.8,1720.6,37.5z"/>
		<path style="&st3;" d="M1725.7,34.1h-2.5v3.8h3v0.5h-3.6v-9.1h3.6v0.5h-3v3.7h2.5V34.1z"/>
		<path style="&st3;" d="M1730.5,29.9c0.3,0.4,0.5,0.9,0.5,1.6v1c0,0.7-0.2,1.3-0.5,1.6c-0.3,0.4-0.9,0.5-1.6,0.5h-1.1v3.7h-0.6
			v-9.1h1.9C1729.7,29.4,1730.2,29.6,1730.5,29.9z M1730,33.8c0.2-0.2,0.4-0.6,0.4-1.2v-1.1c0-0.5-0.1-0.9-0.3-1.2s-0.6-0.4-1-0.4
			h-1.3v4.3h1.1C1729.4,34.2,1729.8,34,1730,33.8z"/>
		<path style="&st3;" d="M1732.1,38.5h-0.5l2-9.1h0.9l2,9.1h-0.6l-0.5-2h-2.8L1732.1,38.5z M1735.3,35.9L1734,30l-1.3,5.9H1735.3z"
			/>
		<path style="&st3;" d="M1741.2,31.4v0.8c0,0.5-0.1,1-0.3,1.3c-0.2,0.3-0.5,0.5-1,0.6c0.9,0.2,1.3,0.8,1.3,1.9v1.4
			c0,0.5,0.1,0.9,0.2,1.1h-0.6c-0.1-0.1-0.1-0.3-0.2-0.4c0-0.2,0-0.4,0-0.6v-1.4c0-0.6-0.1-1-0.4-1.2s-0.7-0.3-1.3-0.3h-0.9v4.1
			h-0.6v-9.1h1.9C1740.6,29.4,1741.2,30,1741.2,31.4z M1740.2,33.5c0.3-0.2,0.4-0.6,0.4-1.2v-0.9c0-0.5-0.1-0.9-0.3-1.2
			c-0.2-0.3-0.6-0.4-1-0.4h-1.3v3.9h1C1739.5,33.8,1739.9,33.7,1740.2,33.5z"/>
		<path style="&st3;" d="M1743.9,29.9h-1.8v-0.5h4.3v0.5h-1.9v8.6h-0.6V29.9z"/>
		<path style="&st3;" d="M1747,38.5h-0.5l2-9.1h0.9l2,9.1h-0.6l-0.5-2h-2.8L1747,38.5z M1750.2,35.9l-1.3-5.9l-1.3,5.9H1750.2z"/>
		<path style="&st3;" d="M1754.8,38.4l-1.9-8v8.1h-0.5v-9.1h0.9l1.9,8l1.9-8h0.9v9.1h-0.6v-8.1l-1.9,8.1H1754.8z"/>
		<path style="&st3;" d="M1761.9,34.1h-2.5v3.8h3v0.5h-3.6v-9.1h3.6v0.5h-3v3.7h2.5V34.1z"/>
		<path style="&st3;" d="M1763.4,38.5v-9.1h0.8l2.7,7.7v-7.7h0.5v9.1h-0.7l-2.8-8.1v8.1H1763.4z"/>
		<path style="&st3;" d="M1770,29.9h-1.8v-0.5h4.3v0.5h-1.9v8.6h-0.6V29.9z"/>
		<path style="&st3;" d="M1773.7,29.9c0.3-0.4,0.8-0.6,1.5-0.6c0.7,0,1.2,0.2,1.5,0.6s0.5,1,0.5,1.7v4.7c0,0.7-0.2,1.3-0.5,1.7
			s-0.8,0.6-1.5,0.6c-0.7,0-1.2-0.2-1.5-0.6c-0.3-0.4-0.5-1-0.5-1.7v-4.7C1773.2,30.9,1773.4,30.3,1773.7,29.9z M1774.1,37.5
			c0.2,0.3,0.6,0.5,1.1,0.5c0.5,0,0.8-0.2,1.1-0.5c0.2-0.3,0.3-0.7,0.3-1.3v-4.7c0-0.5-0.1-0.9-0.3-1.3c-0.2-0.3-0.6-0.5-1.1-0.5
			c-0.5,0-0.8,0.2-1.1,0.5c-0.2,0.3-0.3,0.7-0.3,1.3v4.7C1773.8,36.8,1773.9,37.2,1774.1,37.5z"/>
	</g>
	<g>
		<g>
			<path style="&st3;" d="M1751.3,218.6c0.3,0.4,0.5,1,0.5,1.7v0.2h-0.6v-0.2c0-0.5-0.1-0.9-0.3-1.2s-0.6-0.5-1-0.5
				c-0.5,0-0.8,0.2-1,0.5c-0.2,0.3-0.3,0.7-0.3,1.2c0,0.3,0.1,0.6,0.2,0.9s0.3,0.5,0.5,0.7c0.2,0.2,0.5,0.4,0.8,0.7
				c0.4,0.3,0.7,0.5,0.9,0.7c0.2,0.2,0.4,0.5,0.6,0.8c0.2,0.3,0.2,0.7,0.2,1.1c0,0.7-0.2,1.2-0.5,1.7c-0.3,0.4-0.8,0.6-1.5,0.6
				c-0.7,0-1.2-0.2-1.5-0.6c-0.3-0.4-0.5-1-0.5-1.7v-0.5h0.6v0.5c0,0.5,0.1,0.9,0.3,1.2c0.2,0.3,0.6,0.4,1,0.4s0.8-0.1,1-0.4
				s0.3-0.7,0.3-1.2c0-0.3-0.1-0.6-0.2-0.9c-0.1-0.3-0.3-0.5-0.5-0.7c-0.2-0.2-0.5-0.4-0.8-0.7c-0.4-0.3-0.7-0.5-0.9-0.7
				c-0.2-0.2-0.4-0.5-0.6-0.8c-0.2-0.3-0.2-0.7-0.2-1.1c0-0.7,0.2-1.3,0.5-1.7c0.3-0.4,0.8-0.6,1.5-0.6
				C1750.5,218,1751,218.2,1751.3,218.6z"/>
			<path style="&st3;" d="M1755.8,222.8h-2.5v3.8h3v0.5h-3.6v-9.1h3.6v0.5h-3v3.7h2.5V222.8z"/>
			<path style="&st3;" d="M1757.8,227.2h-0.6l2.1-4.7l-1.9-4.4h0.6l1.7,3.9l1.7-3.9h0.6l-1.9,4.4l2,4.7h-0.6l-1.8-4.2L1757.8,227.2z
				"/>
			<path style="&st3;" d="M1763.3,218.6c0.3-0.4,0.8-0.6,1.5-0.6c0.7,0,1.2,0.2,1.5,0.6s0.5,1,0.5,1.7v4.7c0,0.7-0.2,1.3-0.5,1.7
				s-0.8,0.6-1.5,0.6c-0.7,0-1.2-0.2-1.5-0.6c-0.3-0.4-0.5-1-0.5-1.7v-4.7C1762.8,219.6,1763,219,1763.3,218.6z M1763.8,226.2
				c0.2,0.3,0.6,0.5,1.1,0.5c0.5,0,0.8-0.2,1.1-0.5c0.2-0.3,0.3-0.7,0.3-1.3v-4.7c0-0.5-0.1-0.9-0.3-1.3c-0.2-0.3-0.6-0.5-1.1-0.5
				c-0.5,0-0.8,0.2-1.1,0.5c-0.2,0.3-0.3,0.7-0.3,1.3v4.7C1763.4,225.5,1763.5,225.9,1763.8,226.2z"/>
		</g>
	</g>
	<g>
		<g>
			<path style="&st3;" d="M1566.6,23.8h-2.5v3.8h3v0.5h-3.6V19h3.6v0.5h-3v3.7h2.5V23.8z"/>
			<path style="&st3;" d="M1571.6,19.6c0.3,0.4,0.5,1,0.5,1.7v4.6c0,0.7-0.2,1.3-0.5,1.7c-0.3,0.4-0.8,0.6-1.5,0.6h-2V19h2
				C1570.8,19,1571.3,19.2,1571.6,19.6z M1571.2,27.1c0.2-0.3,0.4-0.7,0.4-1.2v-4.6c0-0.5-0.1-0.9-0.4-1.2c-0.2-0.3-0.6-0.5-1.1-0.5
				h-1.4v8h1.4C1570.6,27.6,1570.9,27.4,1571.2,27.1z"/>
			<path style="&st3;" d="M1573.5,28.1h-0.5l2-9.1h0.9l2,9.1h-0.6l-0.5-2h-2.8L1573.5,28.1z M1576.7,25.6l-1.3-5.9l-1.3,5.9H1576.7z
				"/>
			<path style="&st3;" d="M1582.3,19.6c0.3,0.4,0.5,1,0.5,1.7v4.6c0,0.7-0.2,1.3-0.5,1.7c-0.3,0.4-0.8,0.6-1.5,0.6h-2V19h2
				C1581.4,19,1582,19.2,1582.3,19.6z M1581.8,27.1c0.2-0.3,0.4-0.7,0.4-1.2v-4.6c0-0.5-0.1-0.9-0.4-1.2c-0.2-0.3-0.6-0.5-1.1-0.5
				h-1.4v8h1.4C1581.2,27.6,1581.6,27.4,1581.8,27.1z"/>
			<path style="&st3;" d="M1589.3,19.6c0.3,0.4,0.5,1,0.5,1.7v4.6c0,0.7-0.2,1.3-0.5,1.7c-0.3,0.4-0.8,0.6-1.5,0.6h-2V19h2
				C1588.5,19,1589,19.2,1589.3,19.6z M1588.9,27.1c0.2-0.3,0.4-0.7,0.4-1.2v-4.6c0-0.5-0.1-0.9-0.4-1.2c-0.2-0.3-0.6-0.5-1.1-0.5
				h-1.4v8h1.4C1588.3,27.6,1588.6,27.4,1588.9,27.1z"/>
			<path style="&st3;" d="M1593.9,23.8h-2.5v3.8h3v0.5h-3.6V19h3.6v0.5h-3v3.7h2.5V23.8z"/>
			<path style="&st3;" d="M1597.4,19h0.6v8.6h2.9v0.5h-3.5V19z"/>
			<path style="&st3;" d="M1602.1,28.1h-0.5l2-9.1h0.9l2,9.1h-0.6l-0.5-2h-2.8L1602.1,28.1z M1605.3,25.6l-1.3-5.9l-1.3,5.9H1605.3z
				"/>
			<path style="&st3;" d="M1572.4,43l1.8-8.4h0.6l-2,9.1h-0.9l-2-9.1h0.6L1572.4,43z"/>
			<path style="&st3;" d="M1575.5,32.8l0.9,1.2h-0.5l-1.1-1.2H1575.5z M1576.3,34.6v9.1h-0.6v-9.1H1576.3z"/>
			<path style="&st3;" d="M1580.8,35.2c0.3,0.4,0.5,1,0.5,1.7v0.8h-0.6v-0.8c0-0.5-0.1-0.9-0.3-1.2c-0.2-0.3-0.6-0.5-1-0.5
				s-0.8,0.2-1,0.5c-0.2,0.3-0.3,0.7-0.3,1.2v4.7c0,0.5,0.1,0.9,0.3,1.2c0.2,0.3,0.6,0.5,1,0.5s0.8-0.2,1-0.5
				c0.2-0.3,0.3-0.7,0.3-1.2v-1.1h0.6v1c0,0.7-0.2,1.3-0.5,1.7c-0.3,0.4-0.8,0.6-1.5,0.6c-0.7,0-1.2-0.2-1.5-0.6
				c-0.3-0.4-0.5-1-0.5-1.7v-4.7c0-0.7,0.2-1.3,0.5-1.7c0.3-0.4,0.8-0.6,1.5-0.6C1580,34.5,1580.5,34.7,1580.8,35.2z"/>
			<path style="&st3;" d="M1583.8,35.2h-1.8v-0.5h4.3v0.5h-1.9v8.6h-0.6V35.2z"/>
			<path style="&st3;" d="M1587.6,43.7h-0.6v-9.1h0.6V43.7z"/>
			<path style="&st3;" d="M1591.1,43.7l-1.9-8v8.1h-0.5v-9.1h0.9l1.9,8l1.9-8h0.9v9.1h-0.6v-8.1l-1.9,8.1H1591.1z"/>
			<path style="&st3;" d="M1595.6,43.7h-0.5l2-9.1h0.9l2,9.1h-0.6l-0.5-2h-2.8L1595.6,43.7z M1598.8,41.2l-1.3-5.9l-1.3,5.9H1598.8z
				"/>
		</g>
	</g>
	<path style="&st6;" d="M1586.1,321.2l6.4-25.5h0.4l-6.5,25.9h-0.6l-6.7-25.9h0.4L1586.1,321.2z"/>
	<path style="&st6;" d="M1596.3,321.6h-0.4v-25.9h0.4V321.6z"/>
	<path style="&st6;" d="M1600.6,297.4c0.9-1.2,2.2-1.8,4.1-1.8c1.9,0,3.3,0.6,4.1,1.8c0.9,1.2,1.3,2.8,1.3,4.7v13.2
		c0,1.9-0.4,3.5-1.3,4.7c-0.9,1.2-2.3,1.8-4.1,1.8c-1.8,0-3.2-0.6-4.1-1.8c-0.9-1.2-1.3-2.8-1.3-4.7v-13.2
		C1599.3,300.2,1599.7,298.6,1600.6,297.4z M1600.8,319.7c0.8,1.1,2.1,1.7,3.8,1.7c1.8,0,3-0.6,3.8-1.7c0.8-1.1,1.2-2.6,1.2-4.5
		v-13.2c0-1.8-0.4-3.3-1.2-4.5c-0.8-1.1-2.1-1.7-3.8-1.7c-1.8,0-3,0.6-3.8,1.7c-0.8,1.1-1.2,2.6-1.2,4.5v13.2
		C1599.6,317.1,1600,318.6,1600.8,319.7z"/>
	<path style="&st6;" d="M1613.1,295.7h0.4v25.5h9v0.4h-9.3V295.7z"/>
	<path style="&st6;" d="M1633.6,308.7h-7.9v12.6h9.3v0.4h-9.7v-25.9h9.7v0.4h-9.3v12.2h7.9V308.7z"/>
	<path style="&st6;" d="M1638,321.6v-25.9h0.6l9.8,25.4v-25.4h0.4v25.9h-0.6l-9.8-25.5v25.5H1638z"/>
	<path style="&st6;" d="M1661.1,297.4c0.9,1.2,1.3,2.8,1.3,4.7v2h-0.4v-2c0-1.8-0.4-3.3-1.2-4.5c-0.8-1.1-2-1.7-3.8-1.7
		s-3,0.6-3.8,1.7c-0.8,1.1-1.2,2.6-1.2,4.5v13.2c0,1.8,0.4,3.3,1.2,4.5c0.8,1.1,2,1.7,3.8,1.7s3-0.6,3.8-1.7
		c0.8-1.1,1.2-2.6,1.2-4.5v-2.7h0.4v2.7c0,1.9-0.4,3.5-1.3,4.7s-2.2,1.8-4,1.8s-3.2-0.6-4-1.8c-0.9-1.2-1.3-2.8-1.3-4.7v-13.2
		c0-1.9,0.4-3.5,1.3-4.7c0.9-1.2,2.2-1.8,4-1.8S1660.2,296.1,1661.1,297.4z"/>
	<path style="&st6;" d="M1665.7,321.6h-0.4v-25.9h0.4V321.6z"/>
	<path style="&st6;" d="M1669.1,321.6h-0.4l6.5-25.9h0.5l6.7,25.9h-0.4l-1.6-6.3h-9.8L1669.1,321.6z M1680.3,315l-4.8-18.8
		l-4.7,18.8H1680.3z"/>
	<path style="&st6;" d="M1700.5,297.3c0.8,1.2,1.3,2.7,1.3,4.6v0.4h-0.4V302c0-1.8-0.4-3.3-1.2-4.4s-2-1.7-3.7-1.7
		c-1.7,0-3,0.6-3.7,1.7c-0.8,1.1-1.1,2.6-1.1,4.4c0,1,0.2,1.9,0.7,2.7c0.5,0.8,1,1.5,1.7,2c0.7,0.5,1.6,1.2,2.7,1.9
		c1.1,0.7,2,1.3,2.7,1.9c0.7,0.6,1.3,1.2,1.7,2.1c0.5,0.8,0.7,1.8,0.7,2.8c0,1.9-0.4,3.5-1.3,4.7c-0.9,1.2-2.2,1.8-4.1,1.8
		c-1.8,0-3.2-0.6-4.1-1.8c-0.9-1.2-1.3-2.7-1.3-4.7v-1.2h0.4v1.2c0,1.8,0.4,3.3,1.2,4.4c0.8,1.1,2,1.7,3.8,1.7s3-0.6,3.8-1.7
		c0.8-1.1,1.2-2.6,1.2-4.4c0-1-0.2-1.9-0.7-2.7c-0.4-0.8-1-1.4-1.6-1.9c-0.7-0.5-1.5-1.1-2.6-1.8c-1.2-0.7-2.1-1.4-2.8-2
		c-0.7-0.6-1.3-1.3-1.7-2.1s-0.7-1.8-0.7-2.9c0-2,0.4-3.5,1.3-4.7c0.9-1.1,2.2-1.7,4-1.7C1698.3,295.5,1699.7,296.1,1700.5,297.3z"
		/>
	<path style="&st6;" d="M1713,308.7h-7.9v12.6h9.3v0.4h-9.7v-25.9h9.7v0.4h-9.3v12.2h7.9V308.7z"/>
	<path style="&st6;" d="M1717.9,321.6h-0.4l6.6-13.5l-6.1-12.4h0.4l5.9,12l5.9-12h0.4l-6.1,12.4l6.5,13.5h-0.4l-6.4-13.1
		L1717.9,321.6z"/>
	<path style="&st6;" d="M1735.4,319.7c0.8,1.2,2,1.7,3.7,1.7c1.7,0,3-0.6,3.7-1.7c0.8-1.2,1.1-2.7,1.1-4.5v-19.5h0.4v19.5
		c0,1.9-0.4,3.5-1.2,4.8c-0.8,1.2-2.2,1.8-4,1.8c-1.9,0-3.2-0.6-4-1.8c-0.8-1.2-1.2-2.8-1.2-4.8v-19.5h0.4v19.5
		C1734.3,317,1734.7,318.5,1735.4,319.7z"/>
	<path style="&st6;" d="M1747.7,321.6h-0.4l6.5-25.9h0.5l6.7,25.9h-0.4l-1.6-6.3h-9.8L1747.7,321.6z M1759,315l-4.8-18.8l-4.7,18.8
		H1759z"/>
	<path style="&st6;" d="M1764.1,295.7h0.4v25.5h9v0.4h-9.3V295.7z"/>
	<path style="&st3;" d="M1572.3,333.8c1.2,0,2.1,0.3,2.7,1s0.9,1.6,0.9,2.8v7.8c0,1.2-0.3,2.2-0.9,2.8s-1.5,1-2.7,1h-3.8v-15.4
		H1572.3z M1570.9,347h1.4c0.4,0,0.7-0.1,0.9-0.4c0.2-0.2,0.3-0.6,0.3-1.1v-8c0-0.5-0.1-0.9-0.3-1.1c-0.2-0.2-0.5-0.4-0.9-0.4h-1.4
		V347z"/>
	<path style="&st3;" d="M1579.7,345.7c0,1,0.4,1.5,1.3,1.5s1.3-0.5,1.3-1.5v-11.9h2.3v11.7c0,1.2-0.3,2.2-0.9,2.9
		c-0.6,0.7-1.5,1-2.7,1c-1.2,0-2.1-0.3-2.7-1c-0.6-0.7-0.9-1.6-0.9-2.9v-11.7h2.4V345.7z"/>
	<path style="&st3;" d="M1591.1,348.5c0-0.2,0-0.6,0-1.2v-2.4c0-0.7-0.1-1.2-0.4-1.5c-0.2-0.3-0.7-0.5-1.2-0.5h-0.8v6.3h-2.4v-15.4
		h3.7c1.2,0,2.2,0.3,2.7,0.9c0.6,0.6,0.9,1.5,0.9,2.7v1.2c0,1.6-0.5,2.6-1.6,3.1c0.6,0.2,1,0.6,1.2,1.2c0.3,0.5,0.4,1.3,0.4,2.1v2.4
		c0,0.4,0,0.8,0,1.1s0.1,0.5,0.2,0.8h-2.5C1591.2,349,1591.1,348.7,1591.1,348.5z M1588.6,340.7h0.9c0.5,0,0.8-0.1,1.1-0.4
		s0.4-0.7,0.4-1.3v-1.5c0-0.6-0.1-1-0.3-1.2c-0.2-0.2-0.5-0.4-0.9-0.4h-1.2V340.7z"/>
	<path style="&st3;" d="M1600.4,349.2l-0.4-2.8h-3l-0.4,2.8h-2.2l2.5-15.4h3.5l2.5,15.4H1600.4z M1599.7,344.3l-1.2-7.8l-1.2,7.8
		H1599.7z"/>
	<path style="&st3;" d="M1606.1,349.2h-2.2v-15.4h3l2.5,9.2v-9.2h2.2v15.4h-2.5l-3-11.2V349.2z"/>
	<path style="&st3;" d="M1620.1,333.8v2.2h-2.5v13.2h-2.4V336h-2.5v-2.2H1620.1z"/>
	<path style="&st3;" d="M1626.9,340.3v2.2h-3.3v4.5h4.2v2.2h-6.6v-15.4h6.6v2.2h-4.2v4.3H1626.9z"/>
	<path style="&st3;" d="M1638.5,340.3v2.2h-3.3v4.5h4.2v2.2h-6.6v-15.4h6.6v2.2h-4.2v4.3H1638.5z"/>
	<path style="&st3;" d="M1643.2,333.8V347h4v2.2h-6.4v-15.4H1643.2z"/>
	<path style="&st3;" d="M1658.7,345.5c0,1.2-0.3,2.2-0.9,2.9c-0.6,0.7-1.5,1-2.7,1c-1.2,0-2.1-0.3-2.7-1c-0.6-0.7-0.9-1.6-0.9-2.9
		v-8c0-1.2,0.3-2.2,0.9-2.9c0.6-0.7,1.5-1,2.7-1c1.2,0,2.1,0.3,2.7,1c0.6,0.7,0.9,1.6,0.9,2.9v1.5h-2.3v-1.7c0-1-0.4-1.5-1.3-1.5
		c-0.8,0-1.3,0.5-1.3,1.5v8.3c0,1,0.4,1.5,1.3,1.5c0.8,0,1.3-0.5,1.3-1.5v-2.2h2.3V345.5z"/>
	<path style="&st3;" d="M1660.9,334.7c0.6-0.7,1.5-1,2.7-1c1.2,0,2.1,0.3,2.7,1c0.6,0.7,0.9,1.6,0.9,2.9v8c0,1.2-0.3,2.2-0.9,2.9
		s-1.5,1-2.7,1c-1.2,0-2.1-0.3-2.7-1s-0.9-1.6-0.9-2.9v-8C1660,336.3,1660.3,335.3,1660.9,334.7z M1663.6,347.2
		c0.8,0,1.3-0.5,1.3-1.5v-8.3c0-1-0.4-1.5-1.3-1.5c-0.8,0-1.3,0.5-1.3,1.5v8.3C1662.4,346.7,1662.8,347.2,1663.6,347.2z"/>
	<path style="&st3;" d="M1671,349.2h-2.2v-15.4h3l2.5,9.2v-9.2h2.2v15.4h-2.5l-3-11.2V349.2z"/>
	<path style="&st3;" d="M1683.8,340.7v2.2h-3.1v6.4h-2.4v-15.4h6.4v2.2h-4v4.6H1683.8z"/>
	<path style="&st3;" d="M1688.3,333.8V347h4v2.2h-6.4v-15.4H1688.3z"/>
	<path style="&st3;" d="M1695.7,333.8v15.4h-2.4v-15.4H1695.7z"/>
	<path style="&st3;" d="M1704.5,345.5c0,1.2-0.3,2.2-0.9,2.9c-0.6,0.7-1.5,1-2.7,1c-1.2,0-2.1-0.3-2.7-1c-0.6-0.7-0.9-1.6-0.9-2.9
		v-8c0-1.2,0.3-2.2,0.9-2.9c0.6-0.7,1.5-1,2.7-1c1.2,0,2.1,0.3,2.7,1c0.6,0.7,0.9,1.6,0.9,2.9v1.5h-2.3v-1.7c0-1-0.4-1.5-1.3-1.5
		c-0.8,0-1.3,0.5-1.3,1.5v8.3c0,1,0.4,1.5,1.3,1.5c0.8,0,1.3-0.5,1.3-1.5v-2.2h2.3V345.5z"/>
	<path style="&st3;" d="M1712.7,333.8v2.2h-2.5v13.2h-2.4V336h-2.5v-2.2H1712.7z"/>
	<path style="&st3;" d="M1714.5,334.7c0.6-0.7,1.5-1,2.7-1c1.2,0,2.1,0.3,2.7,1c0.6,0.7,0.9,1.6,0.9,2.9v8c0,1.2-0.3,2.2-0.9,2.9
		s-1.5,1-2.7,1c-1.2,0-2.1-0.3-2.7-1s-0.9-1.6-0.9-2.9v-8C1713.6,336.3,1713.9,335.3,1714.5,334.7z M1717.3,347.2
		c0.8,0,1.3-0.5,1.3-1.5v-8.3c0-1-0.4-1.5-1.3-1.5c-0.8,0-1.3,0.5-1.3,1.5v8.3C1716,346.7,1716.4,347.2,1717.3,347.2z"/>
	<path style="&st3;" d="M1731.3,349.2l-0.4-2.8h-3l-0.4,2.8h-2.2l2.5-15.4h3.5l2.5,15.4H1731.3z M1730.6,344.3l-1.2-7.8l-1.2,7.8
		H1730.6z"/>
	<path style="&st3;" d="M1739.8,348.5c0-0.2,0-0.6,0-1.2v-2.4c0-0.7-0.1-1.2-0.4-1.5c-0.2-0.3-0.7-0.5-1.2-0.5h-0.8v6.3h-2.4v-15.4
		h3.7c1.2,0,2.2,0.3,2.7,0.9c0.6,0.6,0.9,1.5,0.9,2.7v1.2c0,1.6-0.5,2.6-1.6,3.1c0.6,0.2,1,0.6,1.2,1.2c0.3,0.5,0.4,1.3,0.4,2.1v2.4
		c0,0.4,0,0.8,0,1.1s0.1,0.5,0.2,0.8h-2.5C1739.8,349,1739.8,348.7,1739.8,348.5z M1737.3,340.7h0.9c0.5,0,0.8-0.1,1.1-0.4
		s0.4-0.7,0.4-1.3v-1.5c0-0.6-0.1-1-0.3-1.2c-0.2-0.2-0.5-0.4-0.9-0.4h-1.2V340.7z"/>
	<path style="&st3;" d="M1750.5,333.8h3.4v15.4h-2.3v-11l-1.7,11h-2.3l-1.8-10.9v10.9h-2.1v-15.4h3.4l1.8,10.9L1750.5,333.8z"/>
	<path style="&st3;" d="M1761,349.2l-0.4-2.8h-3l-0.4,2.8h-2.2l2.5-15.4h3.5l2.5,15.4H1761z M1760.3,344.3l-1.2-7.8l-1.2,7.8H1760.3
		z"/>
	<path style="&st3;" d="M1768.4,333.8c1.2,0,2.1,0.3,2.7,1s0.9,1.6,0.9,2.8v7.8c0,1.2-0.3,2.2-0.9,2.8s-1.5,1-2.7,1h-3.8v-15.4
		H1768.4z M1767,347h1.4c0.4,0,0.7-0.1,0.9-0.4c0.2-0.2,0.3-0.6,0.3-1.1v-8c0-0.5-0.1-0.9-0.3-1.1c-0.2-0.2-0.5-0.4-0.9-0.4h-1.4
		V347z"/>
	<path style="&st3;" d="M1774.3,334.7c0.6-0.7,1.5-1,2.7-1c1.2,0,2.1,0.3,2.7,1c0.6,0.7,0.9,1.6,0.9,2.9v8c0,1.2-0.3,2.2-0.9,2.9
		s-1.5,1-2.7,1c-1.2,0-2.1-0.3-2.7-1s-0.9-1.6-0.9-2.9v-8C1773.4,336.3,1773.7,335.3,1774.3,334.7z M1777,347.2
		c0.8,0,1.3-0.5,1.3-1.5v-8.3c0-1-0.4-1.5-1.3-1.5c-0.8,0-1.3,0.5-1.3,1.5v8.3C1775.8,346.7,1776.2,347.2,1777,347.2z"/>
	<path style="&st3;" d="M1637,366.7v2.2h-3.3v4.5h4.2v2.2h-6.6v-15.4h6.6v2.2h-4.2v4.3H1637z"/>
	<path style="&st3;" d="M1641.5,375.6h-2.2v-15.4h3l2.5,9.2v-9.2h2.2v15.4h-2.5l-3-11.2V375.6z"/>
	<path style="&st3;" d="M1659.2,371.9c0,1.2-0.3,2.2-0.9,2.9c-0.6,0.7-1.5,1-2.7,1c-1.2,0-2.1-0.3-2.7-1c-0.6-0.7-0.9-1.6-0.9-2.9
		v-8c0-1.2,0.3-2.2,0.9-2.9c0.6-0.7,1.5-1,2.7-1c1.2,0,2.1,0.3,2.7,1c0.6,0.7,0.9,1.6,0.9,2.9v1.5h-2.3v-1.7c0-1-0.4-1.5-1.3-1.5
		c-0.8,0-1.3,0.5-1.3,1.5v8.3c0,1,0.4,1.5,1.3,1.5c0.8,0,1.3-0.5,1.3-1.5v-2.2h2.3V371.9z"/>
	<path style="&st3;" d="M1661.4,361.1c0.6-0.7,1.5-1,2.7-1c1.2,0,2.1,0.3,2.7,1c0.6,0.7,0.9,1.6,0.9,2.9v8c0,1.2-0.3,2.2-0.9,2.9
		s-1.5,1-2.7,1c-1.2,0-2.1-0.3-2.7-1s-0.9-1.6-0.9-2.9v-8C1660.4,362.7,1660.7,361.7,1661.4,361.1z M1664.1,373.6
		c0.8,0,1.3-0.5,1.3-1.5v-8.3c0-1-0.4-1.5-1.3-1.5c-0.8,0-1.3,0.5-1.3,1.5v8.3C1662.8,373.1,1663.3,373.6,1664.1,373.6z"/>
	<path style="&st3;" d="M1671.8,360.2v13.2h4v2.2h-6.4v-15.4H1671.8z"/>
	<path style="&st3;" d="M1677.5,361.1c0.6-0.7,1.5-1,2.7-1c1.2,0,2.1,0.3,2.7,1c0.6,0.7,0.9,1.6,0.9,2.9v8c0,1.2-0.3,2.2-0.9,2.9
		s-1.5,1-2.7,1c-1.2,0-2.1-0.3-2.7-1s-0.9-1.6-0.9-2.9v-8C1676.6,362.7,1676.9,361.7,1677.5,361.1z M1680.3,373.6
		c0.8,0,1.3-0.5,1.3-1.5v-8.3c0-1-0.4-1.5-1.3-1.5c-0.8,0-1.3,0.5-1.3,1.5v8.3C1679,373.1,1679.4,373.6,1680.3,373.6z"/>
	<path style="&st3;" d="M1692.3,360.2h3.4v15.4h-2.3v-11l-1.7,11h-2.3l-1.8-10.9v10.9h-2.1v-15.4h3.4l1.8,10.9L1692.3,360.2z"/>
	<path style="&st3;" d="M1703.8,361.1c0.6,0.6,0.9,1.5,0.9,2.7v0.6c0,0.8-0.1,1.4-0.4,2c-0.3,0.5-0.6,0.9-1.2,1.1
		c1.2,0.5,1.8,1.6,1.8,3.3v1.3c0,1.2-0.3,2.1-0.9,2.7c-0.6,0.6-1.5,0.9-2.7,0.9h-3.8v-15.4h3.7
		C1702.3,360.2,1703.2,360.5,1703.8,361.1z M1699.8,366.5h0.9c0.5,0,0.8-0.1,1.1-0.4s0.4-0.7,0.4-1.3V364c0-0.6-0.1-1-0.3-1.2
		c-0.2-0.2-0.5-0.4-0.9-0.4h-1.2V366.5z M1699.8,373.4h1.4c0.4,0,0.7-0.1,0.9-0.3s0.3-0.6,0.3-1.2v-1.3c0-0.7-0.1-1.2-0.4-1.5
		c-0.2-0.3-0.6-0.4-1.2-0.4h-1.1V373.4z"/>
	<path style="&st3;" d="M1708.8,360.2v15.4h-2.4v-15.4H1708.8z"/>
	<path style="&st3;" d="M1715.9,375.6l-0.4-2.8h-3l-0.4,2.8h-2.2l2.5-15.4h3.5l2.5,15.4H1715.9z M1715.2,370.7l-1.2-7.8l-1.2,7.8
		H1715.2z"/>
	<g>
		<path style="&st3;" d="M674,858.5l0.4,0.4c-0.9,1.1-1.9,1.7-3.1,1.7c-0.9,0-1.7-0.3-2.4-1s-1-1.5-1-2.5c0-0.7,0.1-1.3,0.4-1.8
			c0.3-0.5,0.7-0.9,1.2-1.2s1.1-0.4,1.8-0.4c0.8,0,1.4,0.2,2,0.6c0.5,0.4,0.8,0.8,0.8,1.2c0,0.2-0.1,0.4-0.2,0.5s-0.3,0.2-0.4,0.2
			c-0.1,0-0.2,0-0.2-0.1s-0.2-0.1-0.2-0.2c0,0-0.1-0.2-0.2-0.4c-0.1-0.3-0.2-0.4-0.3-0.5c-0.1-0.2-0.3-0.3-0.5-0.4s-0.4-0.2-0.7-0.2
			c-0.4,0-0.7,0.1-1.1,0.3s-0.6,0.5-0.8,0.9c-0.2,0.4-0.3,0.9-0.3,1.5c0,0.9,0.2,1.6,0.7,2.1c0.4,0.5,0.9,0.7,1.5,0.7
			c0.3,0,0.5,0,0.8-0.1c0.3-0.1,0.5-0.2,0.8-0.4C673.3,859.2,673.6,858.9,674,858.5z"/>
		<path style="&st3;" d="M683,850.8h0.5l0.9,3.2l-0.6,0.2c-0.3-0.7-0.6-1.2-0.8-1.5c-0.3-0.4-0.7-0.7-1.1-1s-0.9-0.4-1.4-0.4
			c-0.6,0-1.2,0.2-1.7,0.5s-0.9,0.8-1.3,1.5c-0.3,0.6-0.5,1.4-0.5,2.2c0,0.8,0.2,1.6,0.5,2.2c0.3,0.6,0.8,1.1,1.3,1.5
			s1.2,0.5,1.8,0.5c0.6,0,1.2-0.2,1.9-0.5s1.2-0.8,1.6-1.5l0.5,0.4c-0.3,0.4-0.6,0.8-0.9,1.1c-0.5,0.5-1.1,0.8-1.6,1
			s-1.2,0.3-1.8,0.3c-1.5,0-2.7-0.5-3.6-1.6c-0.8-0.9-1.1-2-1.1-3.3c0-0.9,0.2-1.8,0.6-2.5c0.4-0.7,1-1.3,1.8-1.8s1.5-0.7,2.4-0.7
			c0.5,0,0.9,0.1,1.3,0.2c0.4,0.1,0.8,0.3,1.2,0.6L683,850.8z"/>
		<path style="&st3;" d="M691.6,858.5l0.4,0.4c-0.9,1.1-1.9,1.7-3.1,1.7c-0.9,0-1.7-0.3-2.4-1s-1-1.5-1-2.5c0-0.7,0.1-1.3,0.4-1.8
			c0.3-0.5,0.7-0.9,1.2-1.2s1.1-0.4,1.8-0.4c0.8,0,1.4,0.2,2,0.6c0.5,0.4,0.8,0.8,0.8,1.2c0,0.2-0.1,0.4-0.2,0.5s-0.3,0.2-0.4,0.2
			c-0.1,0-0.2,0-0.2-0.1s-0.2-0.1-0.2-0.2c0,0-0.1-0.2-0.2-0.4c-0.1-0.3-0.2-0.4-0.3-0.5c-0.1-0.2-0.3-0.3-0.5-0.4s-0.4-0.2-0.7-0.2
			c-0.4,0-0.7,0.1-1.1,0.3s-0.6,0.5-0.8,0.9c-0.2,0.4-0.3,0.9-0.3,1.5c0,0.9,0.2,1.6,0.7,2.1c0.4,0.5,0.9,0.7,1.5,0.7
			c0.3,0,0.5,0,0.8-0.1c0.3-0.1,0.5-0.2,0.8-0.4C690.9,859.2,691.2,858.9,691.6,858.5z"/>
	</g>
	<g>
		<path style="&st3;" d="M654.1,864.9C654.1,865,654.2,865,654.1,864.9c0.1,0,0.2,0,0.5,0c0.3,0,0.5-0.1,0.7-0.1
			c-0.2,0.1-0.4,0.1-0.6,0.2c-0.2,0.1-0.3,0.1-0.5,0.2c-0.2,0.1-0.3,0.1-0.4,0.2c-0.1,0-0.1,0-0.2,0c-0.2,0-0.3-0.1-0.3-0.4
			c0-0.6,0.2-1,0.5-1.3c0.1-0.1,0.3-0.2,0.6-0.4c0.3-0.1,0.6-0.3,0.9-0.4c0.3-0.1,0.7-0.2,1.2-0.3s0.8-0.1,1.2-0.1
			c0.4,0,0.8,0.1,1.2,0.2c0.4,0.1,0.6,0.3,0.9,0.5c0.2,0.2,0.4,0.5,0.5,0.8c0.1,0.3,0.2,0.7,0.2,1.1c0,0.6-0.2,1.2-0.5,1.8
			c-0.3,0.6-0.8,1.1-1.4,1.5c-0.6,0.4-1.2,0.8-2,1s-1.5,0.4-2.2,0.4c-0.1,0-0.2,0-0.3,0c-0.1,0-0.1-0.1-0.2-0.2s0-0.2,0-0.4
			c0-0.2,0-0.4,0-0.5s0.1-0.3,0.2-0.4c0.5-1.1,1.4-2.6,2.7-4.3c-0.3,0-0.5,0.1-0.8,0.2c-0.3,0.1-0.6,0.2-0.9,0.3
			c-0.3,0.1-0.5,0.2-0.7,0.3C654.2,864.8,654.1,864.9,654.1,864.9z M657,864c0,0,0,0,0,0.1s0,0.1,0,0.2c0,0.1,0,0.2-0.1,0.3
			c-0.1,0.1-0.2,0.4-0.5,0.8c-0.2,0.4-0.5,0.7-0.6,1c-0.2,0.3-0.4,0.7-0.6,1.1c-0.1,0.1-0.1,0.2-0.2,0.3c0,0.1-0.1,0.1-0.1,0.2
			c-0.1,0.1-0.1,0.2-0.1,0.3s0,0.1,0,0.2c0,0.1,0.1,0.2,0.2,0.2c0.1,0,0.2,0.1,0.4,0.1c0.5,0,1-0.1,1.5-0.3c0.5-0.2,1.1-0.4,1.5-0.7
			c0.5-0.3,0.9-0.7,1.1-1.1s0.4-0.8,0.4-1.2c0-0.5-0.2-0.9-0.5-1.1s-0.9-0.4-1.6-0.4C657.5,864,657.3,864,657,864z"/>
		<path style="&st3;" d="M663.2,868c-0.3,0.4-0.6,0.7-0.8,0.9c-0.2,0.3-0.5,0.4-0.6,0.6c-0.2,0.1-0.3,0.2-0.3,0.2
			c-0.1,0-0.2-0.1-0.3-0.2c-0.1-0.2-0.2-0.3-0.3-0.6c-0.1-0.2-0.1-0.5-0.1-0.7c0-0.3,0.2-0.7,0.5-1s0.7-0.6,1.1-0.9s0.8-0.3,1-0.3
			c0.2,0,0.3,0.1,0.5,0.3c0.3-0.6,0.5-1.1,0.8-1.5c0.2-0.4,0.5-0.8,0.6-1c0.2-0.2,0.3-0.3,0.4-0.3c0.1,0,0.2,0,0.2,0.1
			c0.1,0.1,0.1,0.2,0.1,0.3c0,0.2-0.1,0.5-0.4,1s-0.5,0.9-0.8,1.3s-0.5,0.9-0.7,1.3s-0.3,0.8-0.3,1.2c0,0.3,0.1,0.5,0.3,0.5
			c0.1,0,0.3-0.1,0.5-0.2s0.5-0.4,0.8-0.7v0.4c-0.8,1-1.4,1.5-1.8,1.5c-0.2,0-0.3-0.1-0.4-0.2c-0.1-0.1-0.1-0.3-0.1-0.6
			C663.1,868.7,663.1,868.4,663.2,868z M663.6,866.7c-0.3,0.1-0.7,0.3-1.1,0.5s-0.7,0.4-0.8,0.5c-0.1,0.1-0.1,0.2-0.2,0.4
			s-0.1,0.3-0.1,0.4c0,0.1,0,0.1,0.1,0.2c0,0,0.1,0.1,0.1,0.1c0.1,0,0.1,0,0.2-0.1s0.2-0.1,0.3-0.3c0.1-0.1,0.2-0.2,0.3-0.2
			c0.1-0.1,0.2-0.2,0.4-0.3c0.2-0.2,0.4-0.3,0.5-0.4s0.2-0.2,0.2-0.3C663.5,866.9,663.6,866.8,663.6,866.7z"/>
		<path style="&st3;" d="M667.8,868c-0.3,0.4-0.6,0.7-0.8,0.9c-0.2,0.3-0.5,0.4-0.6,0.6c-0.2,0.1-0.3,0.2-0.3,0.2
			c-0.1,0-0.2-0.1-0.3-0.2c-0.1-0.2-0.2-0.3-0.3-0.6c-0.1-0.2-0.1-0.5-0.1-0.7c0-0.3,0.2-0.7,0.5-1s0.7-0.6,1.1-0.9s0.8-0.3,1-0.3
			c0.2,0,0.3,0.1,0.5,0.3c0.3-0.6,0.5-1.1,0.8-1.5c0.2-0.4,0.5-0.8,0.6-1c0.2-0.2,0.3-0.3,0.4-0.3c0.1,0,0.2,0,0.2,0.1
			c0.1,0.1,0.1,0.2,0.1,0.3c0,0.2-0.1,0.5-0.4,1s-0.5,0.9-0.8,1.3s-0.5,0.9-0.7,1.3s-0.3,0.8-0.3,1.2c0,0.3,0.1,0.5,0.3,0.5
			c0.1,0,0.3-0.1,0.5-0.2s0.5-0.4,0.8-0.7v0.4c-0.8,1-1.4,1.5-1.8,1.5c-0.2,0-0.3-0.1-0.4-0.2c-0.1-0.1-0.1-0.3-0.1-0.6
			C667.7,868.7,667.7,868.4,667.8,868z M668.2,866.7c-0.3,0.1-0.7,0.3-1.1,0.5s-0.7,0.4-0.8,0.5c-0.1,0.1-0.1,0.2-0.2,0.4
			s-0.1,0.3-0.1,0.4c0,0.1,0,0.1,0.1,0.2c0,0,0.1,0.1,0.1,0.1c0.1,0,0.1,0,0.2-0.1s0.2-0.1,0.3-0.3c0.1-0.1,0.2-0.2,0.3-0.2
			c0.1-0.1,0.2-0.2,0.4-0.3c0.2-0.2,0.4-0.3,0.5-0.4s0.2-0.2,0.2-0.3C668.1,866.9,668.2,866.8,668.2,866.7z"/>
	</g>
	<g>
		<path style="&st3;" d="M677.5,868.3v2c0,0.4,0,0.6,0.1,0.7c0.1,0.2,0.3,0.3,0.6,0.3c0.5,0,1-0.1,1.5-0.4c0.5-0.3,0.9-0.6,1.2-1.1
			c0.1-0.2,0.2-0.3,0.2-0.3s0.1-0.1,0.2-0.1c0.1,0,0.1,0,0.2,0.1s0.1,0.1,0.1,0.2c0,0.2-0.1,0.4-0.4,0.7c-0.4,0.4-0.8,0.7-1.4,0.9
			c-0.6,0.2-1.1,0.4-1.6,0.4c-0.9,0-1.7-0.3-2.4-0.9c-0.4-0.4-0.7-0.8-0.9-1.3c-0.2-0.5-0.3-0.9-0.3-1.4c0-0.4,0.1-0.9,0.3-1.3
			s0.4-0.8,0.7-1.1c0.3-0.4,0.7-0.7,1.2-0.9c0.5-0.2,0.9-0.3,1.4-0.3c0.8,0,1.5,0.2,2.1,0.7c1,0.7,1.5,1.8,1.5,3.1h-1.5l-1.9,0
			L677.5,868.3z M679.1,867.9V866c0-0.4,0-0.6,0-0.7s0-0.2-0.1-0.2c-0.1-0.2-0.4-0.2-0.7-0.2c-0.4,0-0.6,0.1-0.7,0.3
			c-0.1,0.1-0.1,0.4-0.1,0.9v1.8l0.8,0L679.1,867.9z"/>
		<path style="&st3;" d="M686.6,865.6c0,0.2,0,0.4,0,0.7v0.4l0,4.4l2.2,0l1.5,0c0.2,0,0.4,0.1,0.4,0.2c0,0.1-0.1,0.2-0.2,0.2
			c0,0-0.2,0-0.5,0h-7.2l0-0.3l0-2.1l0-2.3l-0.1-3.9h6.7c0.3,0,0.5,0,0.5,0c0.1,0,0.1,0.1,0.1,0.2c0,0.1-0.1,0.2-0.3,0.2h0l-3.2,0
			l0,2l0.7,0l2.2,0l0.5,0c0.2,0,0.3,0,0.4,0c0.1,0,0.1,0.1,0.1,0.2c0,0.2-0.1,0.3-0.4,0.3l-0.5,0L686.6,865.6z"/>
		<path style="&st3;" d="M693.9,868.3v2c0,0.4,0,0.6,0.1,0.7c0.1,0.2,0.3,0.3,0.6,0.3c0.5,0,1-0.1,1.5-0.4c0.5-0.3,0.9-0.6,1.2-1.1
			c0.1-0.2,0.2-0.3,0.2-0.3s0.1-0.1,0.2-0.1c0.1,0,0.1,0,0.2,0.1s0.1,0.1,0.1,0.2c0,0.2-0.1,0.4-0.4,0.7c-0.4,0.4-0.8,0.7-1.4,0.9
			c-0.6,0.2-1.1,0.4-1.6,0.4c-0.9,0-1.7-0.3-2.4-0.9c-0.4-0.4-0.7-0.8-0.9-1.3c-0.2-0.5-0.3-0.9-0.3-1.4c0-0.4,0.1-0.9,0.3-1.3
			s0.4-0.8,0.7-1.1c0.3-0.4,0.7-0.7,1.2-0.9c0.5-0.2,0.9-0.3,1.4-0.3c0.8,0,1.5,0.2,2.1,0.7c1,0.7,1.5,1.8,1.5,3.1h-1.5l-1.9,0
			L693.9,868.3z M695.6,867.9V866c0-0.4,0-0.6,0-0.7s0-0.2-0.1-0.2c-0.1-0.2-0.4-0.2-0.7-0.2c-0.4,0-0.6,0.1-0.7,0.3
			c-0.1,0.1-0.1,0.4-0.1,0.9v1.8l0.8,0L695.6,867.9z"/>
	</g>
	<g>
		<g>
			<path style="&st3;" d="M664.8,882.3v-5h-0.8v-0.8h0.8v-0.3c0-0.8,0.2-1.6,0.7-2c0.4-0.4,0.9-0.5,1.4-0.5c0.4,0,0.7,0.1,0.9,0.2
				l-0.1,0.8c-0.2-0.1-0.4-0.1-0.7-0.1c-0.9,0-1.1,0.8-1.1,1.7v0.3h1.4v0.8h-1.4v5H664.8z"/>
			<path style="&st3;" d="M668.2,874.2h4.4v0.9h-3.3v2.7h3.1v0.9h-3.1v3.7h-1V874.2z"/>
			<path style="&st3;" d="M677.6,882.3v-5h-2.4v5h-1v-5h-0.8v-0.8h0.8v-0.2c0-0.8,0.2-1.5,0.6-2c0.3-0.3,0.8-0.5,1.5-0.5
				c0.3,0,0.6,0.1,0.8,0.2l-0.2,0.8c-0.2-0.1-0.4-0.1-0.6-0.1c-0.8,0-1.1,0.7-1.1,1.6v0.3h2.4v-0.3c0-0.8,0.2-1.6,0.7-2
				c0.4-0.4,0.9-0.5,1.4-0.5c0.4,0,0.7,0.1,0.9,0.2l-0.1,0.8c-0.2-0.1-0.4-0.1-0.7-0.1c-0.9,0-1.1,0.8-1.1,1.7v0.3h1.4v0.8h-1.4v5
				H677.6z"/>
		</g>
	</g>
	<g>
		<path style="&st3;" d="M661,849.5l-1,3h-1.3l3.2-9.4h1.5l3.2,9.4h-1.3l-1-3H661z M664.1,848.6l-0.9-2.7c-0.2-0.6-0.4-1.2-0.5-1.7
			h0c-0.1,0.6-0.3,1.1-0.5,1.7l-0.9,2.7H664.1z"/>
		<path style="&st3;" d="M671.9,852.5l-0.1-0.9h0c-0.4,0.5-1.1,1-2.1,1c-1.4,0-2.1-1-2.1-1.9c0-1.6,1.5-2.5,4.1-2.5V848
			c0-0.6-0.2-1.6-1.5-1.6c-0.6,0-1.3,0.2-1.8,0.5l-0.3-0.8c0.6-0.4,1.4-0.6,2.2-0.6c2.1,0,2.6,1.4,2.6,2.8v2.5c0,0.6,0,1.2,0.1,1.6
			H671.9z M671.7,849c-1.3,0-2.9,0.2-2.9,1.5c0,0.8,0.5,1.2,1.2,1.2c0.9,0,1.4-0.6,1.6-1.1c0-0.1,0.1-0.3,0.1-0.4V849z"/>
	</g>
	<path style="&st3;" d="M1686.2,219.1c-45.3-0.3-77.8-35.2-77.1-78c0.7-42.6,34.5-76.1,77.1-76.1l0.1,18
		c-30.8,1.4-58.9,23.2-59.3,58.1c-0.4,35,28.5,58.7,59.3,60L1686.2,219.1z"/>
	<path style="&st3;" d="M1685.5,65c45.3,0.3,77.8,35.2,77.1,78c-0.7,42.6-34.5,76.1-77.1,76.1l-0.1-18c30.8-1.4,58.9-23.2,59.3-58.1
		c0.4-35-28.5-58.7-59.3-60L1685.5,65z"/>
	<g>
		<path style="&st3;" d="M838.2,836.7c0.3,0.4,0.5,0.9,0.5,1.6c0,0.4-0.1,0.8-0.2,1.2c-0.1,0.4-0.3,0.7-0.5,0.9
			c-0.2,0.3-0.5,0.6-0.8,1c-0.3,0.3-0.5,0.6-0.7,0.8s-0.3,0.4-0.4,0.7c-0.1,0.3-0.2,0.5-0.2,0.8v0.1h2.8v0.9h-3.7v-0.7
			c0-0.4,0.1-0.8,0.2-1.2c0.1-0.3,0.3-0.7,0.5-0.9c0.2-0.3,0.5-0.6,0.8-0.9c0.3-0.3,0.5-0.6,0.7-0.8c0.2-0.2,0.3-0.5,0.5-0.8
			s0.2-0.6,0.2-1c0-0.4-0.1-0.8-0.2-1c-0.2-0.2-0.4-0.3-0.8-0.3c-0.3,0-0.6,0.1-0.7,0.3c-0.2,0.2-0.2,0.5-0.2,0.9v0.7h-0.9v-0.7
			c0-0.7,0.2-1.2,0.5-1.6c0.3-0.4,0.8-0.6,1.4-0.6C837.4,836.1,837.9,836.3,838.2,836.7z"/>
	</g>
</g>
<g id="Capa_3">
	<path style="&st3;" d="M702.3,835.6c-20-0.3-40-0.2-59.9,0c-0.6,0-0.6,1,0,1c20,0.2,40,0.3,59.9,0
		C702.9,836.5,702.9,835.6,702.3,835.6z"/>
	<path style="&st3;" d="M643.6,835.9c0-0.6-1-0.6-1,0c0,18.2-0.2,36.4,0,54.6c0,0.6,1,0.6,1,0C643.8,872.3,643.7,854.1,643.6,835.9z
		"/>
	<path style="&st3;" d="M658.3,861c-0.6,0-0.6,0.9,0,0.9C658.8,861.9,658.8,861,658.3,861z"/>
	<path style="&st3;" d="M702.6,890.7c-19.8-0.2-39.5-0.1-59.3,0c-0.7,0-0.7,1,0,1c19.8,0.1,39.5,0.2,59.3,0
		C703.2,891.8,703.2,890.8,702.6,890.7z"/>
	<path style="&st3;" d="M703.6,836.2c0-0.6-1-0.6-1,0c-0.1,18.3-0.1,36.7,0,55c0,0.7,1,0.7,1,0C703.6,872.9,703.7,854.6,703.6,836.2
		z"/>
	<path style="&st3;" d="M904.9,835.7c-10.2-0.1-20.4,0-30.6,0c-10.2,0-20.4-0.4-30.6,0c-0.6,0-0.6,0.9,0,0.9c10.2,0.4,20.4,0,30.6,0
		c10.2,0,20.4,0.1,30.6,0C905.5,836.7,905.5,835.7,904.9,835.7z"/>
	<path style="&st3;" d="M844.7,836.2c0-0.7-1-0.7-1,0c-0.1,18.2-0.3,36.5,0,54.7c0,0.6,0.9,0.6,1,0
		C845,872.7,844.8,854.5,844.7,836.2z"/>
	<path style="&st3;" d="M904,891.4c-20-0.2-40.1-0.1-60.1,0c-0.6,0-0.6,1,0,1c20,0.1,40.1,0.2,60.1,0
		C904.6,892.3,904.6,891.4,904,891.4z"/>
	<path style="&st3;" d="M905.1,837c0-0.6-1-0.6-1,0c0,18.2-0.2,36.4,0,54.6c0,0.6,1,0.6,1,0C905.3,873.4,905.1,855.2,905.1,837z"/>
	<path style="&st7;" d="M1598.7,85.8c-8.8,4.6-13.7-7.4-15.2-13.8c-1.7-7.5-1.5-15.4,1-22.7c0.2-0.6-0.8-0.9-1-0.3
		c-3,8.9-2.8,18.6,0.2,27.4c2.1,6.4,8,14.2,15.6,10.2C1599.8,86.4,1599.3,85.5,1598.7,85.8z"/>
	<path style="&st7;" d="M1584.2,48.2c-1,0.6-1.9,1.4-2.7,2.2c-0.4,0.5,0.3,1.2,0.7,0.7c0.8-0.8,1.6-1.5,2.5-2.1
		C1585.2,48.7,1584.7,47.8,1584.2,48.2z"/>
	<path style="&st7;" d="M1586,51.5c-0.6-0.9-1.1-1.9-1.4-2.9c-0.2-0.6-1.2-0.4-1,0.3c0.3,1.1,0.8,2.2,1.5,3.1
		C1585.4,52.6,1586.3,52.1,1586,51.5z"/>
	<path style="&st7;" d="M1600.3,84.6c-0.7,0-1.2,0.6-1.1,1.2c-0.1,0.2-0.1,0.4,0,0.7c0,0.2,0.2,0.4,0.4,0.4c0,0,0.1,0,0.1,0
		c0.5,0.4,1.3,0.4,1.8-0.2C1602.1,85.7,1601.3,84.6,1600.3,84.6z"/>
	<path style="&st7;" d="M1757.9,47.8c-2.4,7.6-5,15.4-9.7,21.9c-2.6,3.6-5.8,6.4-9.4,8.9c-3.7,2.6-7.5,4.8-12.1,5.5
		c-0.7,0.1-0.4,1.1,0.3,1c4.5-0.6,8.3-2.8,12-5.3c3.6-2.5,6.9-5.2,9.6-8.7c5.1-6.7,7.8-14.9,10.3-22.9
		C1759.1,47.4,1758.1,47.1,1757.9,47.8z"/>
	<path style="&st7;" d="M1758.3,47.3c-0.5,0.2-0.9,0.6-1.3,0.9c-0.4,0.3-0.9,0.6-1.3,1c-0.5,0.4,0,1.2,0.5,0.8
		c0.5-0.3,0.9-0.7,1.4-1c0.4-0.3,0.9-0.6,1.3-1C1759.3,47.7,1758.8,47.1,1758.3,47.3z"/>
	<path style="&st7;" d="M1760.3,51.4c-0.3-1.2-0.7-2.4-1.1-3.5c-0.2-0.6-1.1-0.4-1,0.3c0.4,1.2,0.6,2.4,1.1,3.5
		C1759.6,52.2,1760.4,52,1760.3,51.4z"/>
	<path style="&st7;" d="M1727,84.4c0-0.6-0.4-1.1-1-1.2c-0.1-0.1-0.3-0.1-0.5-0.1c-0.8,0-1.6,0.6-1.6,1.4c0,0.5,0.5,1,1,1.1
		c0.1,0.1,0.2,0.2,0.4,0.2c0.8,0.2,1.5-0.5,1.6-1.2c0,0,0,0,0-0.1C1727,84.5,1727,84.5,1727,84.4z"/>
	<g>
		<path style="&st7;" d="M1743.1,223c0.1,0,0.2-0.1,0.2-0.2c0.3,0,0.7-0.3,0.5-0.7c0-0.1,0-0.2-0.1-0.3c-0.7-0.9-1.5-1.6-2.5-2.2
			c-0.5-0.3-1,0.4-0.6,0.8c0.5,0.5,1,1,1.6,1.5c0,0,0,0,0,0c-1,0.5-2,1.1-3,1.6c-0.6,0.3-0.1,1.1,0.5,0.9
			C1740.9,224,1742,223.5,1743.1,223z"/>
		<g>
			<path style="&st7;" d="M1743.1,221.6c-15.2-0.4-28.6-9.2-37.1-21.5c-4.6-6.7-7.6-14.1-10.1-21.8c-2.7-8.2-5-16.5-6.9-24.9
				c-0.1-0.6-1.1-0.4-1,0.2c2.1,9.4,4.7,18.6,7.8,27.7c2.6,7.4,5.7,14.4,10.3,20.7c8.7,11.8,22,20.2,37,20.6
				C1743.8,222.6,1743.8,221.6,1743.1,221.6z"/>
			<path style="&st7;" d="M1689.3,153c0.1,0,0.1-0.1,0.2-0.2c0.3-0.2,0.4-0.5,0.5-0.9c0.2-1-0.6-1.9-1.5-1.9c-1.1-0.1-2,1.1-1.6,2.1
				C1687,153.2,1688.4,153.6,1689.3,153z M1687.9,151.9C1687.9,151.9,1687.9,151.9,1687.9,151.9
				C1687.9,151.9,1687.9,151.8,1687.9,151.9c0-0.1,0-0.2,0-0.2c0,0,0-0.1,0-0.1c0.1-0.2,0.3-0.3,0.5-0.3c-0.1,0.2-0.1,0.6,0.2,0.7
				c0,0,0,0,0,0c-0.1,0.1-0.2,0.2-0.3,0.2C1688.2,152.2,1688,152.1,1687.9,151.9z"/>
			<path style="&st7;" d="M1688.6,151.3C1688.5,151.3,1688.5,151.3,1688.6,151.3c-0.6-0.4-1.1,0.4-0.6,0.8c0,0,0,0,0.1,0
				C1688.7,152.7,1689.3,151.6,1688.6,151.3z"/>
		</g>
	</g>
</g>
</svg>
