<?xml version="1.0" encoding="utf-8"?>
<!-- Generator: Adobe Illustrator 23.0.2, SVG Export Plug-In . SVG Version: 6.00 Build 0)  -->
<!DOCTYPE svg PUBLIC "-//W3C//DTD SVG 1.0//EN" "http://www.w3.org/TR/2001/REC-SVG-20010904/DTD/svg10.dtd" [
	<!ENTITY st0 "fill:#075B4B;">
	<!ENTITY st1 "fill:#FDFDFD;">
	<!ENTITY st2 "fill:#FFFFFF;">
]>
<svg version="1.0" xmlns="http://www.w3.org/2000/svg" xmlns:xlink="http://www.w3.org/1999/xlink" x="0px" y="0px"
	 viewBox="0 0 1800 897.2" style="enable-background:new 0 0 1800 897.2;" xml:space="preserve">
<g id="Capa_1">
	<g>
		<path style="&st0;" d="M1566.7,471.9v3h-3.5v18h-3.3v-18h-3.5v-3H1566.7z"/>
		<path style="&st0;" d="M1576,480.8v3h-4.5v6.2h5.7v3h-9v-21h9v3h-5.7v5.8H1576z"/>
		<path style="&st0;" d="M1580,473c0.8-0.9,2-1.4,3.6-1.4c1.6,0,2.8,0.5,3.6,1.4s1.2,2.2,1.2,3.9v0.7h-3.1v-0.9
			c0-0.7-0.1-1.2-0.4-1.6c-0.3-0.3-0.7-0.5-1.2-0.5c-0.5,0-1,0.2-1.2,0.5c-0.3,0.3-0.4,0.9-0.4,1.6c0,0.9,0.2,1.7,0.7,2.3
			c0.5,0.7,1.2,1.4,2.1,2.3c0.8,0.7,1.4,1.4,1.9,1.9c0.5,0.6,0.9,1.2,1.2,2s0.5,1.7,0.5,2.7c0,1.7-0.4,3-1.3,3.9s-2.1,1.4-3.7,1.4
			s-2.8-0.5-3.7-1.4s-1.3-2.2-1.3-3.9v-1.3h3.1v1.5c0,1.4,0.6,2,1.7,2s1.7-0.7,1.7-2c0-0.9-0.2-1.7-0.7-2.3
			c-0.5-0.7-1.2-1.4-2.1-2.3c-0.8-0.7-1.4-1.4-1.9-1.9s-0.9-1.2-1.2-2s-0.5-1.7-0.5-2.7C1578.8,475.3,1579.2,474,1580,473z"/>
		<path style="&st0;" d="M1599.7,471.9v3h-3.5v18h-3.3v-18h-3.5v-3H1599.7z"/>
		<path style="&st0;" d="M1604.4,471.9v21h-3.3v-21H1604.4z"/>
		<path style="&st0;" d="M1616,471.9h4.6v21h-3.1v-15.1l-2.3,15.1h-3.1l-2.5-14.8v14.8h-2.9v-21h4.6l2.4,14.9L1616,471.9z"/>
		<path style="&st0;" d="M1624,473.1c0.9-0.9,2.1-1.4,3.7-1.4s2.9,0.5,3.7,1.4c0.9,0.9,1.3,2.2,1.3,3.9v10.9c0,1.7-0.4,3-1.3,3.9
			c-0.9,0.9-2.1,1.4-3.7,1.4s-2.9-0.5-3.7-1.4c-0.9-0.9-1.3-2.2-1.3-3.9V477C1622.8,475.3,1623.2,474,1624,473.1z M1627.8,490.2
			c1.1,0,1.7-0.7,1.7-2.1v-11.3c0-1.4-0.6-2.1-1.7-2.1s-1.7,0.7-1.7,2.1v11.3C1626.1,489.5,1626.6,490.2,1627.8,490.2z"/>
		<path style="&st0;" d="M1637.8,492.9h-3v-21h4.1l3.4,12.6v-12.6h2.9v21h-3.4l-4.1-15.2V492.9z"/>
		<path style="&st0;" d="M1651,471.9v21h-3.3v-21H1651z"/>
		<path style="&st0;" d="M1654.4,473.1c0.9-0.9,2.1-1.4,3.7-1.4s2.9,0.5,3.7,1.4c0.9,0.9,1.3,2.2,1.3,3.9v10.9c0,1.7-0.4,3-1.3,3.9
			c-0.9,0.9-2.1,1.4-3.7,1.4s-2.9-0.5-3.7-1.4c-0.9-0.9-1.3-2.2-1.3-3.9V477C1653.1,475.3,1653.6,474,1654.4,473.1z M1658.2,490.2
			c1.1,0,1.7-0.7,1.7-2.1v-11.3c0-1.4-0.6-2.1-1.7-2.1s-1.7,0.7-1.7,2.1v11.3C1656.4,489.5,1657,490.2,1658.2,490.2z"/>
		<path style="&st0;" d="M1666.1,473c0.8-0.9,2-1.4,3.6-1.4s2.8,0.5,3.6,1.4s1.2,2.2,1.2,3.9v0.7h-3.1v-0.9c0-0.7-0.1-1.2-0.4-1.6
			c-0.3-0.3-0.7-0.5-1.2-0.5s-0.9,0.2-1.2,0.5c-0.3,0.3-0.4,0.9-0.4,1.6c0,0.9,0.2,1.7,0.7,2.3c0.5,0.7,1.2,1.4,2.1,2.3
			c0.8,0.7,1.4,1.4,1.9,1.9c0.5,0.6,0.9,1.2,1.2,2s0.5,1.7,0.5,2.7c0,1.7-0.4,3-1.3,3.9c-0.8,0.9-2.1,1.4-3.7,1.4
			c-1.6,0-2.8-0.5-3.7-1.4s-1.3-2.2-1.3-3.9v-1.3h3.1v1.5c0,1.4,0.6,2,1.7,2c1.1,0,1.7-0.7,1.7-2c0-0.9-0.2-1.7-0.7-2.3
			c-0.5-0.7-1.2-1.4-2.1-2.3c-0.8-0.7-1.4-1.4-1.9-1.9c-0.5-0.5-0.9-1.2-1.2-2c-0.3-0.8-0.5-1.7-0.5-2.7
			C1664.9,475.3,1665.3,474,1666.1,473z"/>
		<path style="&st0;" d="M1686.4,471.9c1.6,0,2.9,0.4,3.7,1.3s1.2,2.2,1.2,3.9v10.6c0,1.7-0.4,3-1.2,3.9c-0.8,0.9-2.1,1.3-3.7,1.3
			h-5.2v-21H1686.4z M1684.5,489.9h1.9c0.5,0,1-0.2,1.2-0.5c0.3-0.3,0.4-0.8,0.4-1.6V477c0-0.7-0.1-1.2-0.4-1.6
			c-0.3-0.3-0.7-0.5-1.2-0.5h-1.9V489.9z"/>
		<path style="&st0;" d="M1701.2,480.8v3h-4.5v6.2h5.7v3h-9v-21h9v3h-5.7v5.8H1701.2z"/>
		<path style="&st0;" d="M1718.3,471.9h4.6v21h-3.1v-15.1l-2.3,15.1h-3.1l-2.5-14.8v14.8h-2.9v-21h4.6l2.4,14.9L1718.3,471.9z"/>
		<path style="&st0;" d="M1728.5,488.1c0,1.4,0.6,2,1.7,2s1.7-0.7,1.7-2v-16.2h3.1v16c0,1.7-0.4,3-1.3,3.9s-2.1,1.4-3.7,1.4
			s-2.8-0.5-3.7-1.4s-1.3-2.2-1.3-3.9v-16h3.3V488.1z"/>
		<path style="&st0;" d="M1737.5,489.9c0.6,0,1.1-0.1,1.4-0.4c0.3-0.3,0.5-0.8,0.5-1.6v-16h3.3v15.8c0,3.5-1.6,5.3-4.7,5.3
			c-0.7,0-1.2,0-1.6-0.1v-3C1736.6,489.9,1737,489.9,1737.5,489.9z"/>
		<path style="&st0;" d="M1752.8,480.8v3h-4.5v6.2h5.7v3h-9v-21h9v3h-5.7v5.8H1752.8z"/>
		<path style="&st0;" d="M1762.6,492c0-0.3-0.1-0.8-0.1-1.6V487c0-1-0.2-1.6-0.5-2.1s-0.9-0.6-1.7-0.6h-1.1v8.5h-3.3v-21h5
			c1.7,0,2.9,0.4,3.7,1.2c0.8,0.8,1.2,2,1.2,3.6v1.7c0,2.2-0.7,3.6-2.2,4.3c0.8,0.3,1.3,0.9,1.7,1.6s0.5,1.7,0.5,2.9v3.2
			c0,0.6,0,1.1,0.1,1.5c0,0.4,0.1,0.7,0.3,1.1h-3.4C1762.8,492.6,1762.7,492.3,1762.6,492z M1759.3,481.4h1.3c0.7,0,1.2-0.2,1.5-0.5
			s0.5-0.9,0.5-1.7v-2.1c0-0.8-0.1-1.3-0.4-1.7c-0.3-0.3-0.7-0.5-1.3-0.5h-1.6V481.4z"/>
		<path style="&st0;" d="M1775.9,480.8v3h-4.5v6.2h5.7v3h-9v-21h9v3h-5.7v5.8H1775.9z"/>
		<path style="&st0;" d="M1779.9,473c0.8-0.9,2-1.4,3.6-1.4c1.6,0,2.8,0.5,3.6,1.4s1.2,2.2,1.2,3.9v0.7h-3.1v-0.9
			c0-0.7-0.1-1.2-0.4-1.6c-0.3-0.3-0.7-0.5-1.2-0.5c-0.5,0-1,0.2-1.2,0.5c-0.3,0.3-0.4,0.9-0.4,1.6c0,0.9,0.2,1.7,0.7,2.3
			c0.5,0.7,1.2,1.4,2.1,2.3c0.8,0.7,1.4,1.4,1.9,1.9c0.5,0.6,0.9,1.2,1.2,2s0.5,1.7,0.5,2.7c0,1.7-0.4,3-1.3,3.9s-2.1,1.4-3.7,1.4
			s-2.8-0.5-3.7-1.4s-1.3-2.2-1.3-3.9v-1.3h3.1v1.5c0,1.4,0.6,2,1.7,2s1.7-0.7,1.7-2c0-0.9-0.2-1.7-0.7-2.3
			c-0.5-0.7-1.2-1.4-2.1-2.3c-0.8-0.7-1.4-1.4-1.9-1.9s-0.9-1.2-1.2-2s-0.5-1.7-0.5-2.7C1778.7,475.3,1779.1,474,1779.9,473z"/>
		<path style="&st0;" d="M1569,507.9h3l-3.2,21h-4.9l-3.2-21h3.3l2.5,17.1L1569,507.9z"/>
		<path style="&st0;" d="M1575.7,506.8h-2.2l2-3.3h3.2L1575.7,506.8z M1576.9,507.9v21h-3.3v-21H1576.9z"/>
		<path style="&st0;" d="M1588.9,523.9c0,1.7-0.4,3-1.3,3.9s-2.1,1.4-3.7,1.4s-2.8-0.5-3.7-1.4s-1.3-2.2-1.3-3.9V513
			c0-1.7,0.4-3,1.3-3.9s2.1-1.4,3.7-1.4s2.8,0.5,3.7,1.4s1.3,2.2,1.3,3.9v2h-3.1v-2.3c0-1.4-0.6-2.1-1.7-2.1s-1.7,0.7-1.7,2.1v11.3
			c0,1.4,0.6,2,1.7,2s1.7-0.7,1.7-2v-3h3.1V523.9z"/>
		<path style="&st0;" d="M1600.1,507.9v3h-3.4v18h-3.3v-18h-3.4v-3H1600.1z"/>
		<path style="&st0;" d="M1604.9,507.9v21h-3.3v-21H1604.9z"/>
		<path style="&st0;" d="M1616.5,507.9h4.6v21h-3.1v-15.1l-2.3,15.1h-3.1l-2.5-14.8v14.8h-2.9v-21h4.6l2.4,14.9L1616.5,507.9z"/>
		<path style="&st0;" d="M1630.8,528.9l-0.6-3.8h-4.1l-0.6,3.8h-3l3.4-21h4.8l3.4,21H1630.8z M1629.8,522.3l-1.6-10.6l-1.6,10.6
			H1629.8z"/>
		<path style="&st0;" d="M1636.5,509c0.8-0.9,2-1.4,3.6-1.4c1.6,0,2.8,0.5,3.6,1.4s1.2,2.2,1.2,3.9v0.7h-3.1v-0.9
			c0-0.7-0.1-1.2-0.4-1.6c-0.3-0.3-0.7-0.5-1.2-0.5c-0.5,0-1,0.2-1.2,0.5c-0.3,0.3-0.4,0.9-0.4,1.6c0,0.9,0.2,1.7,0.7,2.3
			c0.5,0.7,1.2,1.4,2.1,2.3c0.8,0.7,1.4,1.4,1.9,1.9c0.5,0.6,0.9,1.2,1.2,2s0.5,1.7,0.5,2.7c0,1.7-0.4,3-1.3,3.9s-2.1,1.4-3.7,1.4
			s-2.8-0.5-3.7-1.4s-1.3-2.2-1.3-3.9v-1.3h3.1v1.5c0,1.4,0.6,2,1.7,2s1.7-0.7,1.7-2c0-0.9-0.2-1.7-0.7-2.3
			c-0.5-0.7-1.2-1.4-2.1-2.3c-0.8-0.7-1.4-1.4-1.9-1.9s-0.9-1.2-1.2-2s-0.5-1.7-0.5-2.7C1635.3,511.3,1635.7,510,1636.5,509z"/>
		<path style="&st0;" d="M1656.8,507.9c1.6,0,2.9,0.4,3.7,1.3c0.8,0.9,1.2,2.2,1.2,3.9v10.6c0,1.7-0.4,3-1.2,3.9
			c-0.8,0.9-2.1,1.3-3.7,1.3h-5.2v-21H1656.8z M1654.9,525.9h1.9c0.5,0,1-0.2,1.2-0.5c0.3-0.3,0.4-0.8,0.4-1.6V513
			c0-0.7-0.1-1.2-0.4-1.6c-0.3-0.3-0.7-0.5-1.2-0.5h-1.9V525.9z"/>
		<path style="&st0;" d="M1671.6,516.8v3h-4.5v6.2h5.7v3h-9v-21h9v3h-5.7v5.8H1671.6z"/>
		<path style="&st0;" d="M1678.1,507.9v18h5.4v3h-8.7v-21H1678.1z"/>
		<path style="&st0;" d="M1699.2,523.9c0,1.7-0.4,3-1.3,3.9s-2.1,1.4-3.7,1.4c-1.6,0-2.8-0.5-3.7-1.4c-0.8-0.9-1.3-2.2-1.3-3.9V513
			c0-1.7,0.4-3,1.3-3.9c0.8-0.9,2.1-1.4,3.7-1.4c1.6,0,2.8,0.5,3.7,1.4s1.3,2.2,1.3,3.9v2h-3.1v-2.3c0-1.4-0.6-2.1-1.7-2.1
			c-1.1,0-1.7,0.7-1.7,2.1v11.3c0,1.4,0.6,2,1.7,2c1.1,0,1.7-0.7,1.7-2v-3h3.1V523.9z"/>
		<path style="&st0;" d="M1702.3,509.1c0.9-0.9,2.1-1.4,3.7-1.4s2.9,0.5,3.7,1.4c0.9,0.9,1.3,2.2,1.3,3.9v10.9c0,1.7-0.4,3-1.3,3.9
			c-0.9,0.9-2.1,1.4-3.7,1.4s-2.9-0.5-3.7-1.4c-0.9-0.9-1.3-2.2-1.3-3.9V513C1701,511.3,1701.4,510,1702.3,509.1z M1706,526.2
			c1.1,0,1.7-0.7,1.7-2.1v-11.3c0-1.4-0.6-2.1-1.7-2.1s-1.7,0.7-1.7,2.1v11.3C1704.3,525.5,1704.8,526.2,1706,526.2z"/>
		<path style="&st0;" d="M1716.1,528.9h-3v-21h4.1l3.4,12.6v-12.6h2.9v21h-3.4l-4.1-15.2V528.9z"/>
		<path style="&st0;" d="M1733.5,517.2v3h-4.3v8.7h-3.3v-21h8.7v3h-5.4v6.3H1733.5z"/>
		<path style="&st0;" d="M1739.5,507.9v18h5.4v3h-8.7v-21H1739.5z"/>
		<path style="&st0;" d="M1749.7,507.9v21h-3.3v-21H1749.7z"/>
		<path style="&st0;" d="M1761.7,523.9c0,1.7-0.4,3-1.3,3.9s-2.1,1.4-3.7,1.4s-2.8-0.5-3.7-1.4s-1.3-2.2-1.3-3.9V513
			c0-1.7,0.4-3,1.3-3.9s2.1-1.4,3.7-1.4s2.8,0.5,3.7,1.4s1.3,2.2,1.3,3.9v2h-3.1v-2.3c0-1.4-0.6-2.1-1.7-2.1s-1.7,0.7-1.7,2.1v11.3
			c0,1.4,0.6,2,1.7,2s1.7-0.7,1.7-2v-3h3.1V523.9z"/>
		<path style="&st0;" d="M1772.9,507.9v3h-3.4v18h-3.3v-18h-3.4v-3H1772.9z"/>
		<path style="&st0;" d="M1775.4,509.1c0.9-0.9,2.1-1.4,3.7-1.4s2.9,0.5,3.7,1.4c0.9,0.9,1.3,2.2,1.3,3.9v10.9c0,1.7-0.4,3-1.3,3.9
			c-0.9,0.9-2.1,1.4-3.7,1.4s-2.9-0.5-3.7-1.4c-0.9-0.9-1.3-2.2-1.3-3.9V513C1774.1,511.3,1774.5,510,1775.4,509.1z M1779.1,526.2
			c1.1,0,1.7-0.7,1.7-2.1v-11.3c0-1.4-0.6-2.1-1.7-2.1s-1.7,0.7-1.7,2.1v11.3C1777.4,525.5,1778,526.2,1779.1,526.2z"/>
	</g>
	<g>
		<path style="&st1;" d="M1599.1,690.4c0.5,0.5,0.8,1.3,0.8,2.4v0.5c0,0.7-0.1,1.3-0.3,1.8c-0.2,0.5-0.6,0.8-1.1,1
			c1.1,0.4,1.6,1.4,1.6,3v1.1c0,1.1-0.3,1.9-0.8,2.5c-0.6,0.6-1.4,0.8-2.5,0.8h-3.5v-14h3.3C1597.8,689.6,1598.6,689.9,1599.1,690.4
			z M1595.5,695.3h0.9c0.4,0,0.8-0.1,1-0.3c0.2-0.2,0.3-0.6,0.3-1.1v-0.8c0-0.5-0.1-0.9-0.3-1.1s-0.5-0.3-0.9-0.3h-1.1V695.3z
			 M1595.5,701.6h1.3c0.4,0,0.7-0.1,0.9-0.3c0.2-0.2,0.3-0.6,0.3-1.1V699c0-0.6-0.1-1.1-0.3-1.3c-0.2-0.2-0.6-0.4-1.1-0.4h-1V701.6z
			"/>
		<path style="&st1;" d="M1606.3,703.6l-0.4-2.5h-2.7l-0.4,2.5h-2l2.2-14h3.2l2.2,14H1606.3z M1605.7,699.2l-1.1-7.1l-1.1,7.1
			H1605.7z"/>
		<path style="&st1;" d="M1610.1,690.4c0.5-0.6,1.4-0.9,2.4-0.9s1.9,0.3,2.4,0.9s0.8,1.5,0.8,2.6v0.4h-2.1v-0.6c0-0.5-0.1-0.8-0.3-1
			s-0.5-0.3-0.8-0.3c-0.4,0-0.6,0.1-0.8,0.3s-0.3,0.6-0.3,1c0,0.6,0.2,1.1,0.5,1.5c0.3,0.4,0.8,0.9,1.4,1.5c0.5,0.5,0.9,0.9,1.3,1.3
			c0.3,0.4,0.6,0.8,0.8,1.3c0.2,0.5,0.3,1.1,0.3,1.8c0,1.1-0.3,2-0.8,2.6c-0.6,0.6-1.4,0.9-2.4,0.9c-1.1,0-1.9-0.3-2.4-0.9
			c-0.6-0.6-0.8-1.5-0.8-2.6v-0.9h2.1v1c0,0.9,0.4,1.4,1.1,1.4c0.8,0,1.1-0.5,1.1-1.4c0-0.6-0.2-1.1-0.5-1.5
			c-0.3-0.4-0.8-0.9-1.4-1.5c-0.5-0.5-0.9-0.9-1.3-1.3c-0.3-0.4-0.6-0.8-0.8-1.3c-0.2-0.5-0.3-1.1-0.3-1.8
			C1609.3,691.9,1609.6,691,1610.1,690.4z"/>
		<path style="&st1;" d="M1622.3,695.5v2h-3v4.1h3.8v2h-6v-14h6v2h-3.8v3.9H1622.3z"/>
		<path style="&st1;" d="M1625,690.4c0.5-0.6,1.4-0.9,2.4-0.9s1.9,0.3,2.4,0.9s0.8,1.5,0.8,2.6v0.4h-2.1v-0.6c0-0.5-0.1-0.8-0.3-1
			s-0.5-0.3-0.8-0.3c-0.4,0-0.6,0.1-0.8,0.3s-0.3,0.6-0.3,1c0,0.6,0.2,1.1,0.5,1.5c0.3,0.4,0.8,0.9,1.4,1.5c0.5,0.5,0.9,0.9,1.3,1.3
			c0.3,0.4,0.6,0.8,0.8,1.3c0.2,0.5,0.3,1.1,0.3,1.8c0,1.1-0.3,2-0.8,2.6c-0.6,0.6-1.4,0.9-2.4,0.9c-1.1,0-1.9-0.3-2.4-0.9
			c-0.6-0.6-0.8-1.5-0.8-2.6v-0.9h2.1v1c0,0.9,0.4,1.4,1.1,1.4c0.8,0,1.1-0.5,1.1-1.4c0-0.6-0.2-1.1-0.5-1.5
			c-0.3-0.4-0.8-0.9-1.4-1.5c-0.5-0.5-0.9-0.9-1.3-1.3c-0.3-0.4-0.6-0.8-0.8-1.3c-0.2-0.5-0.3-1.1-0.3-1.8
			C1624.1,691.9,1624.4,691,1625,690.4z"/>
		<path style="&st1;" d="M1638.5,689.6c1.1,0,1.9,0.3,2.5,0.9c0.5,0.6,0.8,1.4,0.8,2.6v7.1c0,1.1-0.3,2-0.8,2.6
			c-0.5,0.6-1.4,0.9-2.5,0.9h-3.5v-14H1638.5z M1637.2,701.6h1.2c0.4,0,0.6-0.1,0.8-0.3c0.2-0.2,0.3-0.6,0.3-1V693
			c0-0.5-0.1-0.8-0.3-1c-0.2-0.2-0.5-0.3-0.8-0.3h-1.2V701.6z"/>
		<path style="&st1;" d="M1648.4,695.5v2h-3v4.1h3.8v2h-6v-14h6v2h-3.8v3.9H1648.4z"/>
		<path style="&st1;" d="M1657.1,689.6c1.1,0,1.9,0.3,2.5,0.9c0.5,0.6,0.8,1.4,0.8,2.6v7.1c0,1.1-0.3,2-0.8,2.6
			c-0.5,0.6-1.4,0.9-2.5,0.9h-3.5v-14H1657.1z M1655.8,701.6h1.2c0.4,0,0.6-0.1,0.8-0.3c0.2-0.2,0.3-0.6,0.3-1V693
			c0-0.5-0.1-0.8-0.3-1c-0.2-0.2-0.5-0.3-0.8-0.3h-1.2V701.6z"/>
		<path style="&st1;" d="M1666.7,703.6l-0.4-2.5h-2.7l-0.4,2.5h-2l2.2-14h3.2l2.2,14H1666.7z M1666,699.2l-1.1-7.1l-1.1,7.1H1666z"
			/>
		<path style="&st1;" d="M1675.3,689.6v2h-2.3v12h-2.2v-12h-2.3v-2H1675.3z"/>
		<path style="&st1;" d="M1676.9,690.4c0.6-0.6,1.4-0.9,2.5-0.9s1.9,0.3,2.5,0.9c0.6,0.6,0.9,1.5,0.9,2.6v7.3c0,1.1-0.3,2-0.9,2.6
			c-0.6,0.6-1.4,0.9-2.5,0.9s-1.9-0.3-2.5-0.9c-0.6-0.6-0.9-1.5-0.9-2.6V693C1676.1,691.9,1676.4,691,1676.9,690.4z M1679.4,701.8
			c0.8,0,1.1-0.5,1.1-1.4v-7.6c0-0.9-0.4-1.4-1.1-1.4s-1.1,0.5-1.1,1.4v7.6C1678.3,701.3,1678.7,701.8,1679.4,701.8z"/>
		<path style="&st1;" d="M1684.7,690.4c0.5-0.6,1.4-0.9,2.4-0.9s1.9,0.3,2.4,0.9s0.8,1.5,0.8,2.6v0.4h-2.1v-0.6c0-0.5-0.1-0.8-0.3-1
			s-0.5-0.3-0.8-0.3c-0.4,0-0.6,0.1-0.8,0.3s-0.3,0.6-0.3,1c0,0.6,0.2,1.1,0.5,1.5c0.3,0.4,0.8,0.9,1.4,1.5c0.5,0.5,0.9,0.9,1.3,1.3
			c0.3,0.4,0.6,0.8,0.8,1.3c0.2,0.5,0.3,1.1,0.3,1.8c0,1.1-0.3,2-0.8,2.6c-0.6,0.6-1.4,0.9-2.4,0.9c-1.1,0-1.9-0.3-2.4-0.9
			c-0.6-0.6-0.8-1.5-0.8-2.6v-0.9h2.1v1c0,0.9,0.4,1.4,1.1,1.4c0.8,0,1.1-0.5,1.1-1.4c0-0.6-0.2-1.1-0.5-1.5
			c-0.3-0.4-0.8-0.9-1.4-1.5c-0.5-0.5-0.9-0.9-1.3-1.3c-0.3-0.4-0.6-0.8-0.8-1.3c-0.2-0.5-0.3-1.1-0.3-1.8
			C1683.9,691.9,1684.2,691,1684.7,690.4z"/>
		<path style="&st1;" d="M1695.4,690.4c0.6-0.6,1.4-0.9,2.5-0.9s1.9,0.3,2.5,0.9c0.6,0.6,0.9,1.5,0.9,2.6v7.3c0,1.1-0.3,2-0.9,2.6
			c-0.6,0.6-1.4,0.9-2.5,0.9s-1.9-0.3-2.5-0.9c-0.6-0.6-0.9-1.5-0.9-2.6V693C1694.6,691.9,1694.9,691,1695.4,690.4z M1697.9,701.8
			c0.8,0,1.1-0.5,1.1-1.4v-7.6c0-0.9-0.4-1.4-1.1-1.4s-1.1,0.5-1.1,1.4v7.6C1696.8,701.3,1697.2,701.8,1697.9,701.8z"/>
		<path style="&st1;" d="M1708.5,690.4c0.5,0.5,0.8,1.3,0.8,2.4v0.5c0,0.7-0.1,1.3-0.3,1.8c-0.2,0.5-0.6,0.8-1.1,1
			c1.1,0.4,1.6,1.4,1.6,3v1.1c0,1.1-0.3,1.9-0.8,2.5c-0.6,0.6-1.4,0.8-2.5,0.8h-3.5v-14h3.3C1707.1,689.6,1708,689.9,1708.5,690.4z
			 M1704.9,695.3h0.9c0.4,0,0.8-0.1,1-0.3c0.2-0.2,0.3-0.6,0.3-1.1v-0.8c0-0.5-0.1-0.9-0.3-1.1s-0.5-0.3-0.9-0.3h-1.1V695.3z
			 M1704.9,701.6h1.3c0.4,0,0.7-0.1,0.9-0.3c0.2-0.2,0.3-0.6,0.3-1.1V699c0-0.6-0.1-1.1-0.3-1.3c-0.2-0.2-0.6-0.4-1.1-0.4h-1V701.6z
			"/>
		<path style="&st1;" d="M1717,689.6v2h-2.3v12h-2.2v-12h-2.3v-2H1717z"/>
		<path style="&st1;" d="M1723.1,695.5v2h-3v4.1h3.8v2h-6v-14h6v2h-3.8v3.9H1723.1z"/>
		<path style="&st1;" d="M1727.2,703.6h-2v-14h2.8l2.3,8.4v-8.4h2v14h-2.3l-2.7-10.1V703.6z"/>
		<path style="&st1;" d="M1736,689.6v14h-2.2v-14H1736z"/>
		<path style="&st1;" d="M1741.1,689.6c1.1,0,1.9,0.3,2.5,0.9c0.5,0.6,0.8,1.4,0.8,2.6v7.1c0,1.1-0.3,2-0.8,2.6
			c-0.5,0.6-1.4,0.9-2.5,0.9h-3.5v-14H1741.1z M1739.8,701.6h1.2c0.4,0,0.6-0.1,0.8-0.3c0.2-0.2,0.3-0.6,0.3-1V693
			c0-0.5-0.1-0.8-0.3-1c-0.2-0.2-0.5-0.3-0.8-0.3h-1.2V701.6z"/>
		<path style="&st1;" d="M1750.7,703.6l-0.4-2.5h-2.7l-0.4,2.5h-2l2.2-14h3.2l2.2,14H1750.7z M1750,699.2l-1.1-7.1l-1.1,7.1H1750z"
			/>
		<path style="&st1;" d="M1581.5,713.6c1.1,0,1.9,0.3,2.5,0.9c0.5,0.6,0.8,1.4,0.8,2.6v7.1c0,1.1-0.3,2-0.8,2.6
			c-0.5,0.6-1.4,0.9-2.5,0.9h-3.5v-14H1581.5z M1580.2,725.6h1.2c0.4,0,0.6-0.1,0.8-0.3c0.2-0.2,0.3-0.6,0.3-1V717
			c0-0.5-0.1-0.8-0.3-1c-0.2-0.2-0.5-0.3-0.8-0.3h-1.2V725.6z"/>
		<path style="&st1;" d="M1591.4,719.5v2h-3v4.1h3.8v2h-6v-14h6v2h-3.8v3.9H1591.4z"/>
		<path style="&st1;" d="M1595.8,713.6v12h3.6v2h-5.8v-14H1595.8z"/>
		<path style="&st1;" d="M1604.1,714.4c0.6-0.6,1.4-0.9,2.5-0.9s1.9,0.3,2.5,0.9c0.6,0.6,0.9,1.5,0.9,2.6v7.3c0,1.1-0.3,2-0.9,2.6
			c-0.6,0.6-1.4,0.9-2.5,0.9s-1.9-0.3-2.5-0.9c-0.6-0.6-0.9-1.5-0.9-2.6V717C1603.3,715.9,1603.6,715,1604.1,714.4z M1606.6,725.8
			c0.8,0,1.1-0.5,1.1-1.4v-7.6c0-0.9-0.4-1.4-1.1-1.4s-1.1,0.5-1.1,1.4v7.6C1605.5,725.3,1605.8,725.8,1606.6,725.8z"/>
		<path style="&st1;" d="M1617.2,714.4c0.5,0.5,0.8,1.3,0.8,2.4v0.5c0,0.7-0.1,1.3-0.3,1.8c-0.2,0.5-0.6,0.8-1.1,1
			c1.1,0.4,1.6,1.4,1.6,3v1.1c0,1.1-0.3,1.9-0.8,2.5c-0.6,0.6-1.4,0.8-2.5,0.8h-3.5v-14h3.3C1615.8,713.6,1616.6,713.9,1617.2,714.4
			z M1613.6,719.3h0.9c0.4,0,0.8-0.1,1-0.3c0.2-0.2,0.3-0.6,0.3-1.1v-0.8c0-0.5-0.1-0.9-0.3-1.1s-0.5-0.3-0.9-0.3h-1.1V719.3z
			 M1613.6,725.6h1.3c0.4,0,0.7-0.1,0.9-0.3c0.2-0.2,0.3-0.6,0.3-1.1V723c0-0.6-0.1-1.1-0.3-1.3c-0.2-0.2-0.6-0.4-1.1-0.4h-1V725.6z
			"/>
		<path style="&st1;" d="M1620,714.4c0.5-0.6,1.4-0.9,2.4-0.9s1.9,0.3,2.4,0.9s0.8,1.5,0.8,2.6v0.4h-2.1v-0.6c0-0.5-0.1-0.8-0.3-1
			s-0.5-0.3-0.8-0.3c-0.4,0-0.6,0.1-0.8,0.3s-0.3,0.6-0.3,1c0,0.6,0.2,1.1,0.5,1.5c0.3,0.4,0.8,0.9,1.4,1.5c0.5,0.5,0.9,0.9,1.3,1.3
			c0.3,0.4,0.6,0.8,0.8,1.3c0.2,0.5,0.3,1.1,0.3,1.8c0,1.1-0.3,2-0.8,2.6c-0.6,0.6-1.4,0.9-2.4,0.9c-1.1,0-1.9-0.3-2.4-0.9
			c-0.6-0.6-0.8-1.5-0.8-2.6v-0.9h2.1v1c0,0.9,0.4,1.4,1.1,1.4c0.8,0,1.1-0.5,1.1-1.4c0-0.6-0.2-1.1-0.5-1.5
			c-0.3-0.4-0.8-0.9-1.4-1.5c-0.5-0.5-0.9-0.9-1.3-1.3c-0.3-0.4-0.6-0.8-0.8-1.3c-0.2-0.5-0.3-1.1-0.3-1.8
			C1619.2,715.9,1619.5,715,1620,714.4z"/>
		<path style="&st1;" d="M1632.2,719.5v2h-3v4.1h3.8v2h-6v-14h6v2h-3.8v3.9H1632.2z"/>
		<path style="&st1;" d="M1638.8,727c0-0.2,0-0.6,0-1.1v-2.2c0-0.6-0.1-1.1-0.3-1.4c-0.2-0.3-0.6-0.4-1.1-0.4h-0.8v5.7h-2.2v-14h3.3
			c1.1,0,2,0.3,2.5,0.8c0.5,0.5,0.8,1.3,0.8,2.4v1.1c0,1.4-0.5,2.4-1.4,2.8c0.5,0.2,0.9,0.6,1.1,1.1s0.3,1.1,0.3,1.9v2.2
			c0,0.4,0,0.7,0,1c0,0.2,0.1,0.5,0.2,0.7h-2.2C1638.8,727.4,1638.8,727.2,1638.8,727z M1636.5,719.9h0.9c0.4,0,0.8-0.1,1-0.3
			c0.2-0.2,0.3-0.6,0.3-1.1v-1.4c0-0.5-0.1-0.9-0.3-1.1s-0.5-0.3-0.9-0.3h-1.1V719.9z"/>
		<path style="&st1;" d="M1647.3,713.6h2l-2.2,14h-3.3l-2.2-14h2.2l1.7,11.4L1647.3,713.6z"/>
		<path style="&st1;" d="M1654.8,727.6l-0.4-2.5h-2.7l-0.4,2.5h-2l2.2-14h3.2l2.2,14H1654.8z M1654.1,723.2l-1.1-7.1l-1.1,7.1
			H1654.1z"/>
		<path style="&st1;" d="M1663.4,713.6v2h-2.3v12h-2.2v-12h-2.3v-2H1663.4z"/>
		<path style="&st1;" d="M1665,714.4c0.6-0.6,1.4-0.9,2.5-0.9s1.9,0.3,2.5,0.9c0.6,0.6,0.9,1.5,0.9,2.6v7.3c0,1.1-0.3,2-0.9,2.6
			c-0.6,0.6-1.4,0.9-2.5,0.9s-1.9-0.3-2.5-0.9c-0.6-0.6-0.9-1.5-0.9-2.6V717C1664.2,715.9,1664.5,715,1665,714.4z M1667.5,725.8
			c0.8,0,1.1-0.5,1.1-1.4v-7.6c0-0.9-0.4-1.4-1.1-1.4s-1.1,0.5-1.1,1.4v7.6C1666.4,725.3,1666.8,725.8,1667.5,725.8z"/>
		<path style="&st1;" d="M1676.7,727c0-0.2,0-0.6,0-1.1v-2.2c0-0.6-0.1-1.1-0.3-1.4c-0.2-0.3-0.6-0.4-1.1-0.4h-0.8v5.7h-2.2v-14h3.3
			c1.1,0,2,0.3,2.5,0.8c0.5,0.5,0.8,1.3,0.8,2.4v1.1c0,1.4-0.5,2.4-1.4,2.8c0.5,0.2,0.9,0.6,1.1,1.1s0.3,1.1,0.3,1.9v2.2
			c0,0.4,0,0.7,0,1c0,0.2,0.1,0.5,0.2,0.7h-2.2C1676.8,727.4,1676.8,727.2,1676.7,727z M1674.5,719.9h0.9c0.4,0,0.8-0.1,1-0.3
			c0.2-0.2,0.3-0.6,0.3-1.1v-1.4c0-0.5-0.1-0.9-0.3-1.1s-0.5-0.3-0.9-0.3h-1.1V719.9z"/>
		<path style="&st1;" d="M1682.5,713.6v14h-2.2v-14H1682.5z"/>
		<path style="&st1;" d="M1684.8,714.4c0.6-0.6,1.4-0.9,2.5-0.9s1.9,0.3,2.5,0.9c0.6,0.6,0.9,1.5,0.9,2.6v7.3c0,1.1-0.3,2-0.9,2.6
			c-0.6,0.6-1.4,0.9-2.5,0.9s-1.9-0.3-2.5-0.9c-0.6-0.6-0.9-1.5-0.9-2.6V717C1683.9,715.9,1684.2,715,1684.8,714.4z M1687.3,725.8
			c0.8,0,1.1-0.5,1.1-1.4v-7.6c0-0.9-0.4-1.4-1.1-1.4s-1.1,0.5-1.1,1.4v7.6C1686.1,725.3,1686.5,725.8,1687.3,725.8z"/>
		<path style="&st1;" d="M1698.6,713.6c1.1,0,1.9,0.3,2.5,0.9c0.5,0.6,0.8,1.4,0.8,2.6v7.1c0,1.1-0.3,2-0.8,2.6
			c-0.5,0.6-1.4,0.9-2.5,0.9h-3.5v-14H1698.6z M1697.3,725.6h1.2c0.4,0,0.6-0.1,0.8-0.3c0.2-0.2,0.3-0.6,0.3-1V717
			c0-0.5-0.1-0.8-0.3-1c-0.2-0.2-0.5-0.3-0.8-0.3h-1.2V725.6z"/>
		<path style="&st1;" d="M1708.5,719.5v2h-3v4.1h3.8v2h-6v-14h6v2h-3.8v3.9H1708.5z"/>
		<path style="&st1;" d="M1719.9,713.6h3.1v14h-2.1v-10l-1.5,10h-2.1l-1.6-9.9v9.9h-1.9v-14h3.1l1.6,9.9L1719.9,713.6z"/>
		<path style="&st1;" d="M1729.8,719.5v2h-3v4.1h3.8v2h-6v-14h6v2h-3.8v3.9H1729.8z"/>
		<path style="&st1;" d="M1738.1,713.6h3.1v14h-2.1v-10l-1.5,10h-2.1l-1.6-9.9v9.9h-1.9v-14h3.1l1.6,9.9L1738.1,713.6z"/>
		<path style="&st1;" d="M1743.4,714.4c0.6-0.6,1.4-0.9,2.5-0.9s1.9,0.3,2.5,0.9c0.6,0.6,0.9,1.5,0.9,2.6v7.3c0,1.1-0.3,2-0.9,2.6
			c-0.6,0.6-1.4,0.9-2.5,0.9s-1.9-0.3-2.5-0.9c-0.6-0.6-0.9-1.5-0.9-2.6V717C1742.6,715.9,1742.9,715,1743.4,714.4z M1745.9,725.8
			c0.8,0,1.1-0.5,1.1-1.4v-7.6c0-0.9-0.4-1.4-1.1-1.4s-1.1,0.5-1.1,1.4v7.6C1744.8,725.3,1745.2,725.8,1745.9,725.8z"/>
		<path style="&st1;" d="M1755.1,727c0-0.2,0-0.6,0-1.1v-2.2c0-0.6-0.1-1.1-0.3-1.4c-0.2-0.3-0.6-0.4-1.1-0.4h-0.8v5.7h-2.2v-14h3.3
			c1.1,0,2,0.3,2.5,0.8c0.5,0.5,0.8,1.3,0.8,2.4v1.1c0,1.4-0.5,2.4-1.4,2.8c0.5,0.2,0.9,0.6,1.1,1.1s0.3,1.1,0.3,1.9v2.2
			c0,0.4,0,0.7,0,1c0,0.2,0.1,0.5,0.2,0.7h-2.2C1755.2,727.4,1755.2,727.2,1755.1,727z M1752.9,719.9h0.9c0.4,0,0.8-0.1,1-0.3
			c0.2-0.2,0.3-0.6,0.3-1.1v-1.4c0-0.5-0.1-0.9-0.3-1.1s-0.5-0.3-0.9-0.3h-1.1V719.9z"/>
		<path style="&st1;" d="M1760.9,713.6v14h-2.2v-14H1760.9z"/>
		<path style="&st1;" d="M1767.4,727.6l-0.4-2.5h-2.7l-0.4,2.5h-2l2.2-14h3.2l2.2,14H1767.4z M1766.7,723.2l-1.1-7.1l-1.1,7.1
			H1766.7z"/>
		<path style="&st1;" d="M1637.5,737.6h2.3l1.7,6.4l1.7-6.4h2.1l-2.8,9.4v4.6h-2.2V747L1637.5,737.6z"/>
		<path style="&st1;" d="M1655.6,748.3c0,1.1-0.3,2-0.8,2.6c-0.6,0.6-1.4,0.9-2.4,0.9c-1.1,0-1.9-0.3-2.4-0.9s-0.8-1.5-0.8-2.6V741
			c0-1.1,0.3-2,0.8-2.6s1.4-0.9,2.4-0.9c1.1,0,1.9,0.3,2.4,0.9c0.6,0.6,0.8,1.5,0.8,2.6v1.4h-2.1v-1.5c0-0.9-0.4-1.4-1.1-1.4
			s-1.1,0.5-1.1,1.4v7.6c0,0.9,0.4,1.4,1.1,1.4s1.1-0.5,1.1-1.4v-2h2.1V748.3z"/>
		<path style="&st1;" d="M1657.6,738.4c0.6-0.6,1.4-0.9,2.5-0.9s1.9,0.3,2.5,0.9c0.6,0.6,0.9,1.5,0.9,2.6v7.3c0,1.1-0.3,2-0.9,2.6
			c-0.6,0.6-1.4,0.9-2.5,0.9s-1.9-0.3-2.5-0.9c-0.6-0.6-0.9-1.5-0.9-2.6V741C1656.8,739.9,1657,739,1657.6,738.4z M1660.1,749.8
			c0.8,0,1.1-0.5,1.1-1.4v-7.6c0-0.9-0.4-1.4-1.1-1.4s-1.1,0.5-1.1,1.4v7.6C1659,749.3,1659.3,749.8,1660.1,749.8z"/>
		<path style="&st1;" d="M1666.8,751.6h-2v-14h2.8l2.3,8.4v-8.4h2v14h-2.3l-2.7-10.1V751.6z"/>
		<path style="&st1;" d="M1678.4,743.9v2h-2.8v5.8h-2.2v-14h5.8v2h-3.6v4.2H1678.4z"/>
		<path style="&st1;" d="M1682.5,737.6v12h3.6v2h-5.8v-14H1682.5z"/>
		<path style="&st1;" d="M1689.3,737.6v14h-2.2v-14H1689.3z"/>
		<path style="&st1;" d="M1697.2,748.3c0,1.1-0.3,2-0.8,2.6c-0.6,0.6-1.4,0.9-2.4,0.9c-1.1,0-1.9-0.3-2.4-0.9s-0.8-1.5-0.8-2.6V741
			c0-1.1,0.3-2,0.8-2.6s1.4-0.9,2.4-0.9c1.1,0,1.9,0.3,2.4,0.9c0.6,0.6,0.8,1.5,0.8,2.6v1.4h-2.1v-1.5c0-0.9-0.4-1.4-1.1-1.4
			s-1.1,0.5-1.1,1.4v7.6c0,0.9,0.4,1.4,1.1,1.4s1.1-0.5,1.1-1.4v-2h2.1V748.3z"/>
		<path style="&st1;" d="M1704.7,737.6v2h-2.3v12h-2.2v-12h-2.3v-2H1704.7z"/>
		<path style="&st1;" d="M1706.4,738.4c0.6-0.6,1.4-0.9,2.5-0.9s1.9,0.3,2.5,0.9c0.6,0.6,0.9,1.5,0.9,2.6v7.3c0,1.1-0.3,2-0.9,2.6
			c-0.6,0.6-1.4,0.9-2.5,0.9s-1.9-0.3-2.5-0.9c-0.6-0.6-0.9-1.5-0.9-2.6V741C1705.5,739.9,1705.8,739,1706.4,738.4z M1708.9,749.8
			c0.8,0,1.1-0.5,1.1-1.4v-7.6c0-0.9-0.4-1.4-1.1-1.4s-1.1,0.5-1.1,1.4v7.6C1707.7,749.3,1708.1,749.8,1708.9,749.8z"/>
	</g>
	<g>
		<path style="&st1;" d="M1610.5,790.7l-0.4-2.5h-2.7l-0.4,2.5h-2l2.2-14h3.2l2.2,14H1610.5z M1609.8,786.2l-1.1-7.1l-1.1,7.1
			H1609.8z"/>
		<path style="&st1;" d="M1615.8,787.5c0,0.9,0.4,1.4,1.1,1.4s1.1-0.5,1.1-1.4v-10.8h2.1v10.7c0,1.1-0.3,2-0.8,2.6
			c-0.6,0.6-1.4,0.9-2.4,0.9c-1.1,0-1.9-0.3-2.4-0.9c-0.6-0.6-0.8-1.5-0.8-2.6v-10.7h2.2V787.5z"/>
		<path style="&st1;" d="M1625.1,776.7c1.1,0,1.9,0.3,2.5,0.9c0.5,0.6,0.8,1.4,0.8,2.6v7.1c0,1.1-0.3,2-0.8,2.6
			c-0.5,0.6-1.4,0.9-2.5,0.9h-3.5v-14H1625.1z M1623.9,788.7h1.2c0.4,0,0.6-0.1,0.8-0.3c0.2-0.2,0.3-0.6,0.3-1V780
			c0-0.5-0.1-0.8-0.3-1c-0.2-0.2-0.5-0.3-0.8-0.3h-1.2V788.7z"/>
		<path style="&st1;" d="M1632,776.7v14h-2.2v-14H1632z"/>
		<path style="&st1;" d="M1634.3,777.4c0.6-0.6,1.4-0.9,2.5-0.9s1.9,0.3,2.5,0.9c0.6,0.6,0.9,1.5,0.9,2.6v7.3c0,1.1-0.3,2-0.9,2.6
			c-0.6,0.6-1.4,0.9-2.5,0.9s-1.9-0.3-2.5-0.9c-0.6-0.6-0.9-1.5-0.9-2.6V780C1633.4,778.9,1633.7,778.1,1634.3,777.4z M1636.8,788.8
			c0.8,0,1.1-0.5,1.1-1.4v-7.6c0-0.9-0.4-1.4-1.1-1.4s-1.1,0.5-1.1,1.4v7.6C1635.6,788.4,1636,788.8,1636.8,788.8z"/>
		<path style="&st1;" d="M1642.1,777.4c0.5-0.6,1.4-0.9,2.4-0.9s1.9,0.3,2.4,0.9s0.8,1.5,0.8,2.6v0.4h-2.1v-0.6c0-0.5-0.1-0.8-0.3-1
			s-0.5-0.3-0.8-0.3c-0.4,0-0.6,0.1-0.8,0.3s-0.3,0.6-0.3,1c0,0.6,0.2,1.1,0.5,1.5c0.3,0.4,0.8,0.9,1.4,1.5c0.5,0.5,0.9,0.9,1.3,1.3
			c0.3,0.4,0.6,0.8,0.8,1.3c0.2,0.5,0.3,1.1,0.3,1.8c0,1.1-0.3,2-0.8,2.6c-0.6,0.6-1.4,0.9-2.4,0.9c-1.1,0-1.9-0.3-2.4-0.9
			c-0.6-0.6-0.8-1.5-0.8-2.6v-0.9h2.1v1c0,0.9,0.4,1.4,1.1,1.4c0.8,0,1.1-0.5,1.1-1.4c0-0.6-0.2-1.1-0.5-1.5
			c-0.3-0.4-0.8-0.9-1.4-1.5c-0.5-0.5-0.9-0.9-1.3-1.3c-0.3-0.4-0.6-0.8-0.8-1.3c-0.2-0.5-0.3-1.1-0.3-1.8
			C1641.3,778.9,1641.5,778,1642.1,777.4z"/>
		<path style="&st1;" d="M1657.3,782.6v2h-3v4.1h3.8v2h-6v-14h6v2h-3.8v3.9H1657.3z"/>
		<path style="&st1;" d="M1664.5,783.5l2.5,7.2h-2.3l-1.8-5.5l-1.8,5.5h-2.1l2.5-7.2l-2.3-6.8h2.3l1.7,5.2l1.7-5.2h2L1664.5,783.5z"
			/>
		<path style="&st1;" d="M1674.2,776.7v2h-2.3v12h-2.2v-12h-2.3v-2H1674.2z"/>
		<path style="&st1;" d="M1679.6,790c0-0.2,0-0.6,0-1.1v-2.2c0-0.6-0.1-1.1-0.3-1.4c-0.2-0.3-0.6-0.4-1.1-0.4h-0.8v5.7h-2.2v-14h3.3
			c1.1,0,2,0.3,2.5,0.8c0.5,0.5,0.8,1.3,0.8,2.4v1.1c0,1.4-0.5,2.4-1.4,2.8c0.5,0.2,0.9,0.6,1.1,1.1s0.3,1.1,0.3,1.9v2.2
			c0,0.4,0,0.7,0,1c0,0.2,0.1,0.5,0.2,0.7h-2.2C1679.7,790.5,1679.7,790.2,1679.6,790z M1677.4,783h0.9c0.4,0,0.8-0.1,1-0.3
			c0.2-0.2,0.3-0.6,0.3-1.1v-1.4c0-0.5-0.1-0.9-0.3-1.1s-0.5-0.3-0.9-0.3h-1.1V783z"/>
		<path style="&st1;" d="M1688.1,790.7l-0.4-2.5h-2.7l-0.4,2.5h-2l2.2-14h3.2l2.2,14H1688.1z M1687.5,786.2l-1.1-7.1l-1.1,7.1
			H1687.5z"/>
		<path style="&st1;" d="M1693.6,776.7v14h-2.2v-14H1693.6z"/>
		<path style="&st1;" d="M1698.7,776.7c1.1,0,1.9,0.3,2.5,0.9c0.5,0.6,0.8,1.4,0.8,2.6v7.1c0,1.1-0.3,2-0.8,2.6
			c-0.5,0.6-1.4,0.9-2.5,0.9h-3.5v-14H1698.7z M1697.4,788.7h1.2c0.4,0,0.6-0.1,0.8-0.3c0.2-0.2,0.3-0.6,0.3-1V780
			c0-0.5-0.1-0.8-0.3-1c-0.2-0.2-0.5-0.3-0.8-0.3h-1.2V788.7z"/>
		<path style="&st1;" d="M1704,777.4c0.6-0.6,1.4-0.9,2.5-0.9s1.9,0.3,2.5,0.9c0.6,0.6,0.9,1.5,0.9,2.6v7.3c0,1.1-0.3,2-0.9,2.6
			c-0.6,0.6-1.4,0.9-2.5,0.9s-1.9-0.3-2.5-0.9c-0.6-0.6-0.9-1.5-0.9-2.6V780C1703.2,778.9,1703.5,778.1,1704,777.4z M1706.5,788.8
			c0.8,0,1.1-0.5,1.1-1.4v-7.6c0-0.9-0.4-1.4-1.1-1.4s-1.1,0.5-1.1,1.4v7.6C1705.4,788.4,1705.7,788.8,1706.5,788.8z"/>
		<path style="&st1;" d="M1711.8,777.4c0.5-0.6,1.4-0.9,2.4-0.9s1.9,0.3,2.4,0.9s0.8,1.5,0.8,2.6v0.4h-2.1v-0.6c0-0.5-0.1-0.8-0.3-1
			s-0.5-0.3-0.8-0.3c-0.4,0-0.6,0.1-0.8,0.3s-0.3,0.6-0.3,1c0,0.6,0.2,1.1,0.5,1.5c0.3,0.4,0.8,0.9,1.4,1.5c0.5,0.5,0.9,0.9,1.3,1.3
			c0.3,0.4,0.6,0.8,0.8,1.3c0.2,0.5,0.3,1.1,0.3,1.8c0,1.1-0.3,2-0.8,2.6c-0.6,0.6-1.4,0.9-2.4,0.9c-1.1,0-1.9-0.3-2.4-0.9
			c-0.6-0.6-0.8-1.5-0.8-2.6v-0.9h2.1v1c0,0.9,0.4,1.4,1.1,1.4c0.8,0,1.1-0.5,1.1-1.4c0-0.6-0.2-1.1-0.5-1.5
			c-0.3-0.4-0.8-0.9-1.4-1.5c-0.5-0.5-0.9-0.9-1.3-1.3c-0.3-0.4-0.6-0.8-0.8-1.3c-0.2-0.5-0.3-1.1-0.3-1.8
			C1711,778.9,1711.3,778,1711.8,777.4z"/>
		<path style="&st1;" d="M1725.3,776.7c1.1,0,1.9,0.3,2.5,0.9c0.5,0.6,0.8,1.4,0.8,2.6v7.1c0,1.1-0.3,2-0.8,2.6
			c-0.5,0.6-1.4,0.9-2.5,0.9h-3.5v-14H1725.3z M1724,788.7h1.2c0.4,0,0.6-0.1,0.8-0.3c0.2-0.2,0.3-0.6,0.3-1V780
			c0-0.5-0.1-0.8-0.3-1c-0.2-0.2-0.5-0.3-0.8-0.3h-1.2V788.7z"/>
		<path style="&st1;" d="M1735.2,782.6v2h-3v4.1h3.8v2h-6v-14h6v2h-3.8v3.9H1735.2z"/>
		<path style="&st1;" d="M1739.6,776.7v12h3.6v2h-5.8v-14H1739.6z"/>
		<path style="&st1;" d="M1570.4,800.7c1.1,0,1.9,0.3,2.5,0.9c0.5,0.6,0.8,1.4,0.8,2.6v7.1c0,1.1-0.3,2-0.8,2.6
			c-0.5,0.6-1.4,0.9-2.5,0.9h-3.5v-14H1570.4z M1569.2,812.7h1.2c0.4,0,0.6-0.1,0.8-0.3c0.2-0.2,0.3-0.6,0.3-1V804
			c0-0.5-0.1-0.8-0.3-1c-0.2-0.2-0.5-0.3-0.8-0.3h-1.2V812.7z"/>
		<path style="&st1;" d="M1575.8,801.4c0.6-0.6,1.4-0.9,2.5-0.9s1.9,0.3,2.5,0.9c0.6,0.6,0.9,1.5,0.9,2.6v7.3c0,1.1-0.3,2-0.9,2.6
			c-0.6,0.6-1.4,0.9-2.5,0.9s-1.9-0.3-2.5-0.9c-0.6-0.6-0.9-1.5-0.9-2.6V804C1574.9,802.9,1575.2,802.1,1575.8,801.4z M1578.3,812.8
			c0.8,0,1.1-0.5,1.1-1.4v-7.6c0-0.9-0.4-1.4-1.1-1.4s-1.1,0.5-1.1,1.4v7.6C1577.1,812.4,1577.5,812.8,1578.3,812.8z"/>
		<path style="&st1;" d="M1589.4,811.3c0,1.1-0.3,2-0.8,2.6c-0.6,0.6-1.4,0.9-2.4,0.9c-1.1,0-1.9-0.3-2.4-0.9s-0.8-1.5-0.8-2.6V804
			c0-1.1,0.3-2,0.8-2.6s1.4-0.9,2.4-0.9c1.1,0,1.9,0.3,2.4,0.9c0.6,0.6,0.8,1.5,0.8,2.6v1.4h-2.1v-1.5c0-0.9-0.4-1.4-1.1-1.4
			s-1.1,0.5-1.1,1.4v7.6c0,0.9,0.4,1.4,1.1,1.4s1.1-0.5,1.1-1.4v-2h2.1V811.3z"/>
		<path style="&st1;" d="M1592.9,811.5c0,0.9,0.4,1.4,1.1,1.4s1.1-0.5,1.1-1.4v-10.8h2.1v10.7c0,1.1-0.3,2-0.8,2.6
			c-0.6,0.6-1.4,0.9-2.4,0.9c-1.1,0-1.9-0.3-2.4-0.9c-0.6-0.6-0.8-1.5-0.8-2.6v-10.7h2.2V811.5z"/>
		<path style="&st1;" d="M1604.9,800.7h3.1v14h-2.1v-10l-1.5,10h-2.1l-1.6-9.9v9.9h-1.9v-14h3.1l1.6,9.9L1604.9,800.7z"/>
		<path style="&st1;" d="M1614.8,806.6v2h-3v4.1h3.8v2h-6v-14h6v2h-3.8v3.9H1614.8z"/>
		<path style="&st1;" d="M1618.9,814.7h-2v-14h2.8l2.3,8.4v-8.4h2v14h-2.3l-2.7-10.1V814.7z"/>
		<path style="&st1;" d="M1631.6,800.7v2h-2.3v12h-2.2v-12h-2.3v-2H1631.6z"/>
		<path style="&st1;" d="M1636.7,814.7l-0.4-2.5h-2.7l-0.4,2.5h-2l2.2-14h3.2l2.2,14H1636.7z M1636,810.2l-1.1-7.1l-1.1,7.1H1636z"
			/>
		<path style="&st1;" d="M1642.1,800.7v12h3.6v2h-5.8v-14H1642.1z"/>
		<path style="&st1;" d="M1651.9,804.8h-2.1v-1.9l1-2.2h0.9l-0.6,2h0.8V804.8z M1654.9,804.8h-2.1v-1.9l1-2.2h0.9l-0.6,2h0.8V804.8z
			"/>
		<path style="&st1;" d="M1662.6,800.7h3.1v14h-2.1v-10l-1.5,10h-2.1l-1.6-9.9v9.9h-1.9v-14h3.1l1.6,9.9L1662.6,800.7z"/>
		<path style="&st1;" d="M1672.2,814.7l-0.4-2.5h-2.7l-0.4,2.5h-2l2.2-14h3.2l2.2,14H1672.2z M1671.5,810.2l-1.1-7.1l-1.1,7.1
			H1671.5z"/>
		<path style="&st1;" d="M1679.9,814c0-0.2,0-0.6,0-1.1v-2.2c0-0.6-0.1-1.1-0.3-1.4c-0.2-0.3-0.6-0.4-1.1-0.4h-0.8v5.7h-2.2v-14h3.3
			c1.1,0,2,0.3,2.5,0.8c0.5,0.5,0.8,1.3,0.8,2.4v1.1c0,1.4-0.5,2.4-1.4,2.8c0.5,0.2,0.9,0.6,1.1,1.1s0.3,1.1,0.3,1.9v2.2
			c0,0.4,0,0.7,0,1c0,0.2,0.1,0.5,0.2,0.7h-2.2C1679.9,814.5,1679.9,814.2,1679.9,814z M1677.6,807h0.9c0.4,0,0.8-0.1,1-0.3
			c0.2-0.2,0.3-0.6,0.3-1.1v-1.4c0-0.5-0.1-0.9-0.3-1.1s-0.5-0.3-0.9-0.3h-1.1V807z"/>
		<path style="&st1;" d="M1685.7,800.7v14h-2.2v-14H1685.7z"/>
		<path style="&st1;" d="M1693,801.6c0.5,0.6,0.8,1.4,0.8,2.6v1.8c0,1.1-0.3,2-0.8,2.6s-1.4,0.9-2.5,0.9h-1v5.3h-2.2v-14h3.2
			C1691.6,800.7,1692.4,801,1693,801.6z M1689.5,807.4h1c0.4,0,0.6-0.1,0.8-0.3c0.2-0.2,0.3-0.5,0.3-1V804c0-0.5-0.1-0.8-0.3-1
			c-0.2-0.2-0.4-0.3-0.8-0.3h-1V807.4z"/>
		<path style="&st1;" d="M1695.5,801.4c0.6-0.6,1.4-0.9,2.5-0.9s1.9,0.3,2.5,0.9c0.6,0.6,0.9,1.5,0.9,2.6v7.3c0,1.1-0.3,2-0.9,2.6
			c-0.6,0.6-1.4,0.9-2.5,0.9s-1.9-0.3-2.5-0.9c-0.6-0.6-0.9-1.5-0.9-2.6V804C1694.6,802.9,1694.9,802.1,1695.5,801.4z M1698,812.8
			c0.8,0,1.1-0.5,1.1-1.4v-7.6c0-0.9-0.4-1.4-1.1-1.4s-1.1,0.5-1.1,1.4v7.6C1696.8,812.4,1697.2,812.8,1698,812.8z"/>
		<path style="&st1;" d="M1703.3,801.4c0.5-0.6,1.4-0.9,2.4-0.9s1.9,0.3,2.4,0.9s0.8,1.5,0.8,2.6v0.4h-2.1v-0.6c0-0.5-0.1-0.8-0.3-1
			s-0.5-0.3-0.8-0.3c-0.4,0-0.6,0.1-0.8,0.3s-0.3,0.6-0.3,1c0,0.6,0.2,1.1,0.5,1.5c0.3,0.4,0.8,0.9,1.4,1.5c0.5,0.5,0.9,0.9,1.3,1.3
			c0.3,0.4,0.6,0.8,0.8,1.3c0.2,0.5,0.3,1.1,0.3,1.8c0,1.1-0.3,2-0.8,2.6c-0.6,0.6-1.4,0.9-2.4,0.9c-1.1,0-1.9-0.3-2.4-0.9
			c-0.6-0.6-0.8-1.5-0.8-2.6v-0.9h2.1v1c0,0.9,0.4,1.4,1.1,1.4c0.8,0,1.1-0.5,1.1-1.4c0-0.6-0.2-1.1-0.5-1.5
			c-0.3-0.4-0.8-0.9-1.4-1.5c-0.5-0.5-0.9-0.9-1.3-1.3c-0.3-0.4-0.6-0.8-0.8-1.3c-0.2-0.5-0.3-1.1-0.3-1.8
			C1702.4,802.9,1702.7,802,1703.3,801.4z"/>
		<path style="&st1;" d="M1715.1,814.7l-0.4-2.5h-2.7l-0.4,2.5h-2l2.2-14h3.2l2.2,14H1715.1z M1714.4,810.2l-1.1-7.1l-1.1,7.1
			H1714.4z"/>
		<path style="&st1;" d="M1718.9,801.4c0.5-0.6,1.4-0.9,2.4-0.9s1.9,0.3,2.4,0.9s0.8,1.5,0.8,2.6v0.4h-2.1v-0.6c0-0.5-0.1-0.8-0.3-1
			s-0.5-0.3-0.8-0.3c-0.4,0-0.6,0.1-0.8,0.3s-0.3,0.6-0.3,1c0,0.6,0.2,1.1,0.5,1.5c0.3,0.4,0.8,0.9,1.4,1.5c0.5,0.5,0.9,0.9,1.3,1.3
			c0.3,0.4,0.6,0.8,0.8,1.3c0.2,0.5,0.3,1.1,0.3,1.8c0,1.1-0.3,2-0.8,2.6c-0.6,0.6-1.4,0.9-2.4,0.9c-1.1,0-1.9-0.3-2.4-0.9
			c-0.6-0.6-0.8-1.5-0.8-2.6v-0.9h2.1v1c0,0.9,0.4,1.4,1.1,1.4c0.8,0,1.1-0.5,1.1-1.4c0-0.6-0.2-1.1-0.5-1.5
			c-0.3-0.4-0.8-0.9-1.4-1.5c-0.5-0.5-0.9-0.9-1.3-1.3c-0.3-0.4-0.6-0.8-0.8-1.3c-0.2-0.5-0.3-1.1-0.3-1.8
			C1718.1,802.9,1718.3,802,1718.9,801.4z"/>
		<path style="&st1;" d="M1733.9,800.7h2l-2.2,14h-3.3l-2.2-14h2.2l1.7,11.4L1733.9,800.7z"/>
		<path style="&st1;" d="M1739.2,800.7v14h-2.2v-14H1739.2z"/>
		<path style="&st1;" d="M1741.4,801.4c0.6-0.6,1.4-0.9,2.5-0.9s1.9,0.3,2.5,0.9c0.6,0.6,0.9,1.5,0.9,2.6v7.3c0,1.1-0.3,2-0.9,2.6
			c-0.6,0.6-1.4,0.9-2.5,0.9s-1.9-0.3-2.5-0.9c-0.6-0.6-0.9-1.5-0.9-2.6V804C1740.6,802.9,1740.9,802.1,1741.4,801.4z M1743.9,812.8
			c0.8,0,1.1-0.5,1.1-1.4v-7.6c0-0.9-0.4-1.4-1.1-1.4s-1.1,0.5-1.1,1.4v7.6C1742.8,812.4,1743.2,812.8,1743.9,812.8z"/>
		<path style="&st1;" d="M1750.9,800.7v12h3.6v2h-5.8v-14H1750.9z"/>
		<path style="&st1;" d="M1760.7,806.6v2h-3v4.1h3.8v2h-6v-14h6v2h-3.8v3.9H1760.7z"/>
		<path style="&st1;" d="M1769,800.7v2h-2.3v12h-2.2v-12h-2.3v-2H1769z"/>
		<path style="&st1;" d="M1774.1,814.7l-0.4-2.5h-2.7l-0.4,2.5h-2l2.2-14h3.2l2.2,14H1774.1z M1773.4,810.2l-1.1-7.1l-1.1,7.1
			H1773.4z"/>
		<path style="&st1;" d="M1776.1,800.7h2.1v1.9l-1,2.2h-0.9l0.6-2h-0.8V800.7z M1779,800.7h2.1v1.9l-1,2.2h-0.9l0.6-2h-0.8V800.7z"
			/>
	</g>
	<g>
		<path style="&st1;" d="M1625.4,860.3h2.6v11.9h-1.8v-8.5l-1.3,8.5h-1.8l-1.4-8.4v8.4h-1.6v-11.9h2.6l1.4,8.4L1625.4,860.3z"/>
		<path style="&st1;" d="M1631.2,860.3v11.9h-1.9v-11.9H1631.2z"/>
		<path style="&st1;" d="M1634.4,860.3v10.2h3.1v1.7h-4.9v-11.9H1634.4z"/>
		<path style="&st1;" d="M1642.8,865.3v1.7h-2.6v3.5h3.2v1.7h-5.1v-11.9h5.1v1.7h-3.2v3.3H1642.8z"/>
		<path style="&st1;" d="M1646.2,872.2h-1.7v-11.9h2.3l1.9,7.1v-7.1h1.7v11.9h-1.9l-2.3-8.6V872.2z"/>
		<path style="&st1;" d="M1656,872.2l-0.3-2.2h-2.3l-0.3,2.2h-1.7l1.9-11.9h2.7l1.9,11.9H1656z M1655.4,868.4l-0.9-6l-0.9,6H1655.4z
			"/>
		<path style="&st1;" d="M1662,860.9c0.5-0.5,1.2-0.8,2.1-0.8s1.6,0.3,2.1,0.8s0.7,1.3,0.7,2.2v6.2c0,1-0.2,1.7-0.7,2.2
			c-0.5,0.5-1.2,0.8-2.1,0.8s-1.6-0.3-2.1-0.8c-0.5-0.5-0.7-1.3-0.7-2.2v-6.2C1661.2,862.2,1661.5,861.4,1662,860.9z M1664.1,870.6
			c0.6,0,1-0.4,1-1.2V863c0-0.8-0.3-1.2-1-1.2c-0.6,0-1,0.4-1,1.2v6.4C1663.1,870.2,1663.4,870.6,1664.1,870.6z"/>
		<path style="&st1;" d="M1671.9,871.6c0-0.2,0-0.5,0-0.9v-1.9c0-0.5-0.1-0.9-0.3-1.2s-0.5-0.3-0.9-0.3h-0.6v4.8h-1.9v-11.9h2.8
			c1,0,1.7,0.2,2.1,0.7c0.4,0.4,0.7,1.1,0.7,2.1v0.9c0,1.2-0.4,2-1.2,2.4c0.4,0.2,0.8,0.5,1,0.9s0.3,1,0.3,1.6v1.8
			c0,0.3,0,0.6,0,0.8c0,0.2,0.1,0.4,0.2,0.6h-1.9C1672,872,1671.9,871.8,1671.9,871.6z M1670,865.6h0.7c0.4,0,0.7-0.1,0.8-0.3
			c0.2-0.2,0.3-0.5,0.3-1v-1.2c0-0.4-0.1-0.7-0.2-0.9c-0.2-0.2-0.4-0.3-0.7-0.3h-0.9V865.6z"/>
		<path style="&st1;" d="M1680.2,860.3v1.7h-2v10.2h-1.9V862h-2v-1.7H1680.2z"/>
		<path style="&st1;" d="M1682.9,860.3v11.9h-1.9v-11.9H1682.9z"/>
		<path style="&st1;" d="M1689.4,861.9l-3.6,8.5h3.6v1.7h-5.5v-1.7l3.6-8.5h-3.4v-1.7h5.3V861.9z"/>
		<path style="&st1;" d="M1698.4,860.3v1.7h-2v10.2h-1.9V862h-2v-1.7H1698.4z"/>
		<path style="&st1;" d="M1699.8,860.9c0.5-0.5,1.2-0.8,2.1-0.8s1.6,0.3,2.1,0.8s0.7,1.3,0.7,2.2v6.2c0,1-0.2,1.7-0.7,2.2
			c-0.5,0.5-1.2,0.8-2.1,0.8s-1.6-0.3-2.1-0.8c-0.5-0.5-0.7-1.3-0.7-2.2v-6.2C1699.1,862.2,1699.3,861.4,1699.8,860.9z
			 M1701.9,870.6c0.6,0,1-0.4,1-1.2V863c0-0.8-0.3-1.2-1-1.2c-0.6,0-1,0.4-1,1.2v6.4C1700.9,870.2,1701.3,870.6,1701.9,870.6z"/>
		<path style="&st1;" d="M1709.7,871.6c0-0.2,0-0.5,0-0.9v-1.9c0-0.5-0.1-0.9-0.3-1.2s-0.5-0.3-0.9-0.3h-0.6v4.8h-1.9v-11.9h2.8
			c1,0,1.7,0.2,2.1,0.7c0.4,0.4,0.7,1.1,0.7,2.1v0.9c0,1.2-0.4,2-1.2,2.4c0.4,0.2,0.8,0.5,1,0.9s0.3,1,0.3,1.6v1.8
			c0,0.3,0,0.6,0,0.8c0,0.2,0.1,0.4,0.2,0.6h-1.9C1709.8,872,1709.7,871.8,1709.7,871.6z M1707.8,865.6h0.7c0.4,0,0.7-0.1,0.8-0.3
			c0.2-0.2,0.3-0.5,0.3-1v-1.2c0-0.4-0.1-0.7-0.2-0.9c-0.2-0.2-0.4-0.3-0.7-0.3h-0.9V865.6z"/>
		<path style="&st1;" d="M1716.6,871.6c0-0.2,0-0.5,0-0.9v-1.9c0-0.5-0.1-0.9-0.3-1.2s-0.5-0.3-0.9-0.3h-0.6v4.8h-1.9v-11.9h2.8
			c1,0,1.7,0.2,2.1,0.7c0.4,0.4,0.7,1.1,0.7,2.1v0.9c0,1.2-0.4,2-1.2,2.4c0.4,0.2,0.8,0.5,1,0.9s0.3,1,0.3,1.6v1.8
			c0,0.3,0,0.6,0,0.8c0,0.2,0.1,0.4,0.2,0.6h-1.9C1716.6,872,1716.6,871.8,1716.6,871.6z M1714.6,865.6h0.7c0.4,0,0.7-0.1,0.8-0.3
			c0.2-0.2,0.3-0.5,0.3-1v-1.2c0-0.4-0.1-0.7-0.2-0.9c-0.2-0.2-0.4-0.3-0.7-0.3h-0.9V865.6z"/>
		<path style="&st1;" d="M1724,865.3v1.7h-2.6v3.5h3.2v1.7h-5.1v-11.9h5.1v1.7h-3.2v3.3H1724z"/>
		<path style="&st1;" d="M1726.3,860.9c0.5-0.5,1.2-0.8,2.1-0.8c0.9,0,1.6,0.3,2.1,0.8s0.7,1.3,0.7,2.2v0.4h-1.8V863
			c0-0.4-0.1-0.7-0.2-0.9c-0.2-0.2-0.4-0.3-0.7-0.3s-0.5,0.1-0.7,0.3c-0.2,0.2-0.2,0.5-0.2,0.9c0,0.5,0.1,0.9,0.4,1.3
			c0.3,0.4,0.7,0.8,1.2,1.3c0.4,0.4,0.8,0.8,1.1,1.1c0.3,0.3,0.5,0.7,0.7,1.1c0.2,0.4,0.3,0.9,0.3,1.5c0,1-0.2,1.7-0.7,2.2
			s-1.2,0.8-2.1,0.8c-0.9,0-1.6-0.3-2.1-0.8c-0.5-0.5-0.7-1.3-0.7-2.2v-0.7h1.8v0.8c0,0.8,0.3,1.2,1,1.2c0.6,0,1-0.4,1-1.2
			c0-0.5-0.1-0.9-0.4-1.3s-0.7-0.8-1.2-1.3c-0.4-0.4-0.8-0.8-1.1-1.1c-0.3-0.3-0.5-0.7-0.7-1.1c-0.2-0.4-0.3-0.9-0.3-1.5
			C1725.6,862.2,1725.9,861.4,1726.3,860.9z"/>
	</g>
</g>
<g id="Capa_3">
	<path style="&st2;" d="M1793.2,839c-39.2-0.1-78.5,0-117.7,0c-39.2,0-78.6-0.4-117.7,0c-2.3,0-2.3,1.1,0,1.1
		c39.1,0.5,78.6,0,117.7,0c39.2,0,78.5,0.1,117.7,0C1795.6,840.2,1795.6,839,1793.2,839z"/>
	<path style="&st2;" d="M1792.9,663.4c-39.2-0.1-78.5,0-117.7,0c-39.2,0-78.6-0.4-117.7,0c-2.3,0-2.3,1.1,0,1.1
		c39.1,0.5,78.6,0,117.7,0c39.2,0,78.5,0.1,117.7,0C1795.3,664.6,1795.3,663.4,1792.9,663.4z"/>
	<path style="&st2;" d="M1791.2,552.9c-39.2-0.1-78.5,0-117.7,0c-39.2,0-78.6-0.4-117.7,0c-2.3,0-2.3,1.1,0,1.1
		c39.1,0.5,78.6,0,117.7,0c39.2,0,78.5,0.1,117.7,0C1793.6,554.1,1793.6,552.9,1791.2,552.9z"/>
	<path style="&st2;" d="M1793.2,446.9c-39.2-0.1-78.5,0-117.7,0c-39.2,0-78.6-0.4-117.7,0c-2.3,0-2.3,1.1,0,1.1
		c39.1,0.5,78.6,0,117.7,0c39.2,0,78.5,0.1,117.7,0C1795.6,448.1,1795.6,446.9,1793.2,446.9z"/>
</g>
</svg>
