<svg xmlns="http://www.w3.org/2000/svg" xmlns:xlink="http://www.w3.org/1999/xlink" viewBox="0 0 1920 1081"><defs><style>.cls-1{fill:none;}.cls-2{opacity:0.52;}.cls-3{clip-path:url(#clip-path);}.cls-4,.cls-8{fill:#09485b;}.cls-4{opacity:0.83;}.cls-5{fill:#073a56;opacity:0.55;}.cls-6,.cls-9{fill:#06303d;}.cls-6{opacity:0.56;}.cls-7{fill:#064966;opacity:0.23;}.cls-8{opacity:0.61;}.cls-10{fill:#e09e88;}</style><clipPath id="clip-path"><rect class="cls-1" x="-1403" y="100" width="982" height="879"/></clipPath></defs><g id="Texto2"><path class="cls-4" d="M1017.2,985.1H170q.19-115.05.4-230.09c15.44,2.32,28.21,9.82,39.24,20.52,6.63,6.44,12.34,14.08,22.16,16.13l2.53,2.48,2.83-.27c11,7.62,23.44,8.56,36.27,7.38,3.6,5.73,8.74,7.7,15.27,6.24,1.13,7.22,7,6.93,12.19,7.69l.62.27,2.2,2.09c6.78,4.5,14.65,8,20.06,13.74,7.79,8.32,17,11.72,27.52,14.87,25,7.44,50.79,6.45,76.15,9.68,7.41.95,14.08,3.92,22.19,3.91,14.71,0,29.93-.68,44.52,4,20.34,6.48,40.83,12.46,61.31,18.46,3.63,1.07,8,2.62,11.21,1.48,8.45-3.06,16-.71,23.85,1.54,8.66,2.46,17.46,4.39,26.2,6.56a46,46,0,0,0,26.4,1.59c2.84-.69,4.83-1.07,8.07-.23,15.64,4,29.47,11.63,43.1,19.81,7.81,8.79,16.7,13.57,28.47,7.73l15.3-.63c40.33,2.45,78.07,12.69,111.16,36.94,2.69,4.15,6.16,7.49,11.36,7.29,20.75-.78,41.76,2.45,62.17-4C959.41,948.78,988.62,965.76,1017.2,985.1Z"/><path class="cls-5" d="M1319.42,775.92c.83-.22,1.93-.16,2.45-.69,19.85-19.82,46.87-20.49,71.61-27.92,20.53-6.16,42.07-7.94,61.8-14.32a126.41,126.41,0,0,1,37.18-6.19V876.61c-21.54,5.32-43.5,8.62-65,14.36-9.3,2.49-18.62,7.64-29.86,4.74-28.71-7.43-57-5.55-83.65,8.77-4.41,2.36-8.93,4-13.53,3-23.56-5.37-47,2.3-70.51.27-3.32-.29-7.29-.15-10.06,1.39-19,10.57-42.27,1.13-61,12.9-1,.65-3.29-.36-4.86-.92-23.34-8.36-46.67-5.58-70.3-1-18.32,3.56-37,5.46-55.46,8.11-14.58,2.1-31.18-6.06-43.38,8.53-.56.67-2.44.29-3.7.32-30.4.77-60.1,6.2-89.46,13.63-14,3.53-27.46,9.65-42.41,6.22-33.09-24.25-70.83-34.49-111.16-36.94,1.43-5.57,5.6-6.54,10.69-7.37,16.2-2.64,32.48-2.82,48.79-2.45,29.45.68,52.93-15.17,77.6-27.76,3.17-1.62,4.3-3.87,3.46-7.34-.41-1.67-.19-4.22,1.81-4,15,1.63,24.22-10.46,36.6-15.07,24.07-9,47.38-20.92,73.8-20.52,22.29.33,43.6,8.14,65.62,10.64,19.94,2.27,40.52,3.14,59,10.53,23.42,9.38,42.88,3.09,58.6-12.29,20.41-20,46.88-26.54,71.65-35.79,10.3-3.85,22.56-6.91,33.16-10.74C1292.92,792.74,1309.79,790.25,1319.42,775.92Z"/><path class="cls-6" d="M849.22,957c14.95,3.43,28.45-2.69,42.41-6.22,29.36-7.43,59.06-12.86,89.46-13.63,1.26,0,3.14.35,3.7-.32,12.2-14.59,28.8-6.43,43.38-8.53,18.49-2.65,37.14-4.55,55.46-8.11,23.63-4.6,47-7.38,70.3,1,1.57.56,3.83,1.57,4.86.92,18.77-11.77,42-2.33,61-12.9,2.77-1.54,6.74-1.68,10.06-1.39,23.51,2,46.95-5.64,70.51-.27,4.6,1,9.12-.65,13.53-3,26.62-14.32,54.94-16.2,83.65-8.77,11.24,2.9,20.56-2.25,29.86-4.74,21.52-5.74,43.48-9,65-14.36,0,33.15-.31,66.3.22,99.44.13,7.73-1.56,9.27-9.26,9.26q-233.12-.43-466.22-.21c-28.58-19.34-57.79-36.32-94.45-24.8-20.41,6.4-41.42,3.17-62.17,4C855.38,964.45,851.91,961.11,849.22,957Z"/><path class="cls-7" d="M1319.42,775.92c-9.63,14.33-26.5,16.82-40.63,21.94-10.6,3.83-22.86,6.89-33.16,10.74-24.77,9.25-51.24,15.81-71.65,35.79-15.72,15.38-35.18,21.67-58.6,12.29-18.43-7.39-39-8.26-59-10.53-22-2.5-43.33-10.31-65.62-10.64-26.42-.4-49.73,11.56-73.8,20.52-12.38,4.61-21.63,16.7-36.6,15.07-2-.22-2.22,2.33-1.81,4,.84,3.47-.29,5.72-3.46,7.34C850.47,895,827,910.88,797.54,910.2c-16.31-.37-32.59-.19-48.79,2.45-5.09.83-9.26,1.8-10.69,7.37l-15.3.63c-8.75-5.31-16.48-14.35-28.47-7.73-13.63-8.18-27.46-15.77-43.1-19.81-3.24-.84-5.23-.46-8.07.23a46,46,0,0,1-26.4-1.59c1.82-8.56,9.6-7.64,15.4-9.19,30.79-8.26,62.72-12.15,91.58-27.53,9.09-4.84,20.66-5.65,31.26-6.88,14.62-1.69,27.16-7.91,38.5-16.35,13.33-9.94,29.1-13.77,43.82-20.32,19-8.44,36.43-20.36,55.38-28.88,34.79-15.65,68.68-36.12,109.85-25,8.11,2.19,14.12,8.35,22.24,9.82,24.63,4.44,48.44,2.33,70.88-9.57,9.84-5.22,19.84-10.18,29.43-15.82,27-15.85,52.7-10.3,77.15,5.18,9.86,6.24,20.26,8.26,31.13,10.87C1261.86,764.93,1291.52,766.21,1319.42,775.92Z"/><path class="cls-8" d="M694.29,912.92c12-6.62,19.72,2.42,28.47,7.73C711,926.49,702.1,921.71,694.29,912.92Z"/><path class="cls-9" d="M231.8,791.66l2.53,2.48Z"/><path class="cls-9" d="M301.51,815.45l2.21,2.09Z"/><path class="cls-10" d="M898.61,680.38c-.93-2.62,1.06-2.34,2.55-2.57Z"/><path class="cls-10" d="M838.83,683l5.12,1.73Z"/><path class="cls-10" d="M914,673l3.24-3.32Z"/></g></svg>