<?xml version="1.0" encoding="utf-8"?>
<!-- Generator: Adobe Illustrator 23.0.2, SVG Export Plug-In . SVG Version: 6.00 Build 0)  -->
<!DOCTYPE svg PUBLIC "-//W3C//DTD SVG 1.0//EN" "http://www.w3.org/TR/2001/REC-SVG-20010904/DTD/svg10.dtd" [
	<!ENTITY st0 "display:none;">
	<!ENTITY st1 "fill:none;stroke:#010202;stroke-width:3;stroke-miterlimit:10;">
	<!ENTITY st2 "fill:#010202;">
]>
<svg version="1.0" xmlns="http://www.w3.org/2000/svg" xmlns:xlink="http://www.w3.org/1999/xlink" x="0px" y="0px"
	 viewBox="0 0 484.3 483.8" style="enable-background:new 0 0 484.3 483.8;" xml:space="preserve">
<g id="Capa_1">
</g>
<g id="Capa_3" style="&st0;">
	
		<image style="display:inline;overflow:visible;opacity:0.48;" width="921" height="390" xlink:href="5803F399.jpg"  transform="matrix(1.5217 0 0 1.5217 2157.2007 460.3145)">
	</image>
</g>
<g id="Capa_2">
	<g>
		<g>
			<g>
				<g>
					
						<ellipse transform="matrix(0.7226 -0.6913 0.6913 0.7226 -71.9083 223.3617)" style="&st1;" cx="242.4" cy="201.3" rx="186.4" ry="181.7"/>
				</g>
			</g>
		</g>
		<g>
			<path style="&st2;" d="M134.8,95.5c1-2.9,3.1-4.4,6.3-4.4c0.8,0,1.8,0.1,2.9,0.2c5,1,8.5,3.7,10.6,8.2c0.5,5.6,1,12.5,1.5,20.5
				c0.3,8.1,0.6,16.3,1,24.7c0.5,12.6,0.8,23.9,1,34.1c0.3,10.2,0.6,15.7,0.7,16.7c0.5-3.5,2-10.5,4.6-20.8
				c2.7-10.3,5.8-20.8,9.2-31.4c2.3-7.1,4.6-13.5,7-19.3c2.3-6,4.4-10.4,6.5-13.3c1.3-1.9,3.7-2.9,7.3-2.9c3.4,0,6.5,1.2,9.4,3.6
				c1.5,1.3,2.7,2.9,3.9,4.8c1.1,2.1,1.8,4.5,2.2,7.3c0.2,4.2,0.3,10.6,0.5,19.1c0,8.4,0.1,17.4,0.2,27.1c0,5,0.1,10,0.2,15v14.5
				c0.2,8.4,0.3,15.5,0.5,21.3c0.2,5.8,0.3,8.8,0.5,8.9c0.3-0.3,0.8-1.5,1.5-3.4c0.5-2.1,1.2-4.8,2.2-8.2c1.5-6.4,3.5-14.7,6-24.7
				c2.7-10,6-20.2,9.7-30.7c3.9-10.8,8.5-20.9,13.8-30.5c5.2-9.5,11.1-16.7,17.9-21.5c3.5-2.6,7.7-2.6,12.3,0
				c4.7,2.6,7.8,6.4,9.4,11.6c0.8,4,1.2,9.3,1.2,16c0,2.6-0.1,5.4-0.2,8.5c-0.3,10.6-1.1,22.2-2.2,34.8c-0.6,6.8-1.3,13.6-1.9,20.5
				c-0.6,6.9-1.2,13.8-1.7,20.5c-1.1,12.6-1.9,24.1-2.4,34.6c-0.3,10.3,0.2,17.8,1.5,22.5c0.5,4.5-1.9,7.1-7,7.7
				c-1,0.2-1.9,0.2-2.7,0.2c-4,0-7.7-1.4-11.1-4.1c-1.3-1.1-2.4-2.5-3.4-4.1c-1-1.6-1.6-3.5-1.9-5.6c-0.8-16.3-0.8-31.6,0-45.9
				c0.8-14.3,1.9-27.5,3.4-39.4c2.9-22.1,6-39.5,9.4-52.2c3.4-12.7,4.4-19.4,2.9-20.1c-2.9-0.8-6.3,1.5-10.2,7
				c-3.7,5.6-7.6,13-11.6,22c-2.1,4.8-4.2,10.1-6.3,15.7c-2.1,5.5-4.1,11.1-6,16.9c-3.7,11.1-7,22.2-9.9,33.1
				c-3.1,11-5.3,20.2-6.8,27.8c-0.6,2.4-1.5,4.3-2.7,5.6c-1.1,1.5-2.4,2.5-3.9,3.1c-3.4,1.3-6.9,1-10.6-1c-3.7-2.1-6-4.6-6.8-7.5
				c-1.9-7.7-3.1-16.8-3.4-27.1c-0.2-10.3-0.1-20.7,0.2-31.2c0.3-10.2,0.8-19.8,1.5-29c0.6-9,1-16.4,1-22c0-3.1-0.2-5.5-0.5-7.3
				c-0.3-1.8-0.8-2.7-1.5-2.7c-1.9-0.3-4.8,4.3-8.5,13.8c-3.7,9.7-7.3,20.2-10.6,31.7c-2.7,9.5-5.2,18.5-7.3,26.8
				c-1.9,8.5-3,14.3-3.1,17.4c0.5,8.2,1,15.7,1.7,22.5c0.6,6.9,1,14.3,1.2,22.2c-0.5,2.4-1.2,4.6-2.2,6.5c-1.1,2.1-2.3,3.9-3.6,5.6
				c-4.5,4.8-9.7,7.6-15.5,8.2c-5.8,0.6-9-1.5-9.7-6.3c-1.6-9.3-2.5-20.2-2.7-32.6c-0.2-3.5-0.2-7.2-0.2-10.9
				c0-8.9,0.2-17.9,0.7-27.1c0.6-15.6,1.5-30.9,2.7-45.7c1.1-14.7,2-26.9,2.7-36.7c0.2-5.3,0.2-9.7,0.2-13.1
				C135.7,98.5,135.4,96.3,134.8,95.5z"/>
			<path style="&st2;" d="M348.4,176.5c1.8,0.6,2.1,1.4,1,2.2c-1.1,0.8-2.3,1-3.4,0.7c-6.9-2.3-12.7-0.6-17.2,5.1
				c-4.5,5.8-7.9,13.1-10.2,21.8c-1.3,4.7-2.2,9.5-2.7,14.5c-0.6,5-0.9,9.8-0.7,14.5c0,3.4,0.2,7.1,0.7,11.1
				c0.5,3.9,1.2,7.7,2.2,11.4c1.8,7.1,4.4,13.2,7.7,18.4c3.5,5.2,8.1,7.7,13.5,7.5c2.4-0.2,4.8-1,7.3-2.7c2.4-1.6,4.7-3.8,6.8-6.5
				c3.2-4,6-9.3,8.5-15.7c-4.7-1.5-9.3-4.4-13.8-8.7c-5-4.7-9.3-9.9-12.8-15.7c-5.5-9-8.8-18.2-9.9-27.6c-1.1-9.3,1.5-15.9,7.7-19.6
				c10.6-6.1,19.5-5.7,26.6,1.2c7.1,6.8,11.4,20.1,13.1,39.9c0.6,8.7,0.2,16.9-1.5,24.7c1,0,1.9-0.1,2.9-0.2
				c2.9-0.6,5.6-1.7,8.2-3.1c5-2.6,9.3-6.2,13.1-10.9c3.9-4.7,6.5-8.7,8-12.1c1.5-0.5,2.8-0.6,4.1-0.5c1.3,0,2.6,0.2,3.9,0.7
				c-2.3,5.3-5.7,10.9-10.4,16.7c-4.5,5.6-9.8,10-16,13.1c-3.4,1.8-6.9,2.9-10.4,3.4c-1.8,0.3-3.5,0.4-5.3,0.2
				c-2.4,7.7-5.8,14.1-10.2,19.1c-2.7,3.1-5.9,5.4-9.4,7c-3.4,1.8-7.1,2.7-11.1,2.7h-0.2c-15,0-26.3-4.9-34.1-14.7
				c-7.6-9.8-11.4-23.6-11.4-41.3v-0.2c0-14,2.6-26,7.7-36c5.2-10,11.7-16.9,19.6-20.8c4.2-1.9,8.7-2.9,13.5-2.9
				C338.6,172.8,343.4,174,348.4,176.5z M365.6,229.1c-1.3-10.8-5-18.6-11.1-23.4c-6.1-4.7-11.6-5.6-16.4-2.9
				c-2.6,1.3-2.7,5.2-0.5,11.8c2.1,6.4,5.2,13,9.4,19.6c2.7,4.4,5.7,8.1,8.9,11.4c2.9,3.1,5.6,5.1,8.2,6
				C365.9,244.5,366.4,237,365.6,229.1z"/>
		</g>
	</g>
	<g>
		<path style="&st2;" d="M55.6,413.2h4.8v48.4h-4.8V413.2z M60.2,457.2h11c4.5,0,7.8-1,10.1-3.1c2.2-2.1,3.3-5.3,3.3-9.5v-14.3
			c0-4.2-1.1-7.4-3.3-9.5c-2.2-2.1-5.6-3.1-10.1-3.1h-11v-4.5H71c4.1,0,7.5,0.6,10.3,1.9s4.8,3.2,6.1,5.8c1.4,2.6,2,5.8,2,9.7v13.7
			c0,3.9-0.7,7.1-2,9.6s-3.4,4.5-6.1,5.8c-2.7,1.3-6.2,1.9-10.3,1.9H60.2V457.2z"/>
		<path style="&st2;" d="M99.7,413.2h4.8v48.4h-4.8V413.2z M103,413.2h27.8v4.5H103V413.2z M103,435.4h24.1v4.5H103V435.4z
			 M103,457.2h27.8v4.5H103V457.2z"/>
		<path style="&st2;" d="M151.6,462.2c0,0-1-0.2-3.1-0.7s-4-1.1-5.8-2c-1.8-0.9-3.5-2-5.1-3.3l2.9-3.8c2,1.8,4.3,3.1,6.7,4
			c2.4,0.9,5.1,1.3,8,1.3c4.2,0,7.4-0.8,9.6-2.5c2.3-1.6,3.4-4,3.4-6.9v0c0-1.8-0.5-3.3-1.5-4.4c-1-1.1-2.3-1.9-3.8-2.5
			c-1.6-0.6-3.6-1.1-6-1.5c-0.1,0-0.1,0-0.2,0c-0.1,0-0.2,0-0.3-0.1l-1-0.2c-3.4-0.6-6.1-1.3-8.2-2c-2-0.7-3.8-1.9-5.2-3.6
			c-1.4-1.7-2.1-4-2.1-7v0c0-3,0.7-5.6,2-7.7c1.3-2.1,3.3-3.7,5.9-4.8c2.6-1.1,5.7-1.7,9.3-1.7c1.7,0,3.4,0.2,5.1,0.6
			c1.7,0.4,3.3,0.9,5,1.7c1.6,0.7,3.2,1.7,4.8,2.8l-2.8,3.8c-2.1-1.5-4.1-2.6-6.1-3.3s-4-1.1-5.9-1.1c-4,0-7,0.8-9.2,2.5
			c-2.2,1.7-3.3,4-3.3,7v0c0,1.8,0.5,3.3,1.6,4.3s2.4,1.8,4,2.3c1.6,0.5,3.8,1,6.6,1.6c0.1,0,0.2,0,0.3,0.1c0.1,0,0.2,0,0.3,0.1
			c0.1,0,0.3,0.1,0.4,0.1c0.1,0,0.2,0.1,0.4,0.1c3,0.6,5.6,1.3,7.6,2.1c2,0.8,3.7,2,5,3.7c1.3,1.7,2,4,2,6.9v0.1
			c0,3-0.7,5.5-2.1,7.6c-1.4,2.1-3.4,3.7-6.1,4.8c-2.7,1.1-5.9,1.6-9.6,1.6C152.7,462.2,151.6,462.2,151.6,462.2z"/>
		<path style="&st2;" d="M187.6,461.7h-4.8v-48.4h4.8V461.7z"/>
		<path style="&st2;" d="M233.7,436.9v7.1c0,4-0.6,7.4-1.9,10.1c-1.3,2.7-3.1,4.7-5.6,6c-2.5,1.3-5.7,2-9.4,2c-3.8,0-7-0.6-9.5-1.9
			c-2.5-1.3-4.4-3.2-5.7-5.7c-1.3-2.5-1.9-5.7-1.9-9.5v-14.3c0-4,0.6-7.4,1.9-10.1c1.3-2.7,3.1-4.7,5.6-6c2.5-1.3,5.7-2,9.4-2
			c3.1,0,5.8,0.5,8.1,1.6c2.3,1.1,4.1,2.7,5.6,4.8s2.5,4.8,3.1,8h-5.2c-0.6-2.2-1.4-4.1-2.4-5.5c-1-1.5-2.3-2.6-3.8-3.3
			c-1.5-0.7-3.3-1.1-5.3-1.1c-2.7,0-5,0.5-6.8,1.5c-1.8,1-3.1,2.5-4,4.5c-0.9,2-1.3,4.5-1.3,7.6v14.3c0,2.8,0.5,5.2,1.4,7
			c0.9,1.9,2.3,3.2,4.1,4.2c1.8,0.9,4.1,1.4,6.9,1.4c2.7,0,4.9-0.5,6.6-1.4c1.7-1,3.1-2.4,3.9-4.4c0.9-2,1.3-4.6,1.3-7.7v-2.8h-11.7
			v-4.5H233.7z"/>
		<path style="&st2;" d="M244.1,413.2h4.8l28.1,43.6l-2-1.3v-42.3h4.8v48.4h-4.9l-28.7-44l2.6,1.9v42.1h-4.8V413.2z"/>
		<path style="&st2;" d="M310.1,413.2h4.8v48.4h-4.8V413.2z M313.5,457.2h27.7v4.5h-27.7V457.2z"/>
		<path style="&st2;" d="M363.1,413.2h5.8l17.9,48.4h-5.3L366,418.3l-15.4,43.4h-5.3L363.1,413.2z M353.5,445.4h25.5v4.5h-25.5
			V445.4z"/>
		<path style="&st2;" d="M394.1,413.2h4.8v48.4h-4.8V413.2z M398.1,457.2h13.3c4.1,0,7.1-0.8,9-2.3c1.9-1.5,2.8-3.7,2.8-6.5v-0.1
			c0-1.9-0.3-3.6-1-4.9c-0.7-1.4-1.8-2.4-3.3-3.2c-1.5-0.7-3.4-1.1-5.8-1.1h-15v-4.5h15c3.2,0,5.5-0.7,7.1-2.1
			c1.6-1.4,2.4-3.5,2.4-6.2c0-2.9-0.9-5-2.6-6.4c-1.7-1.4-4.3-2.1-7.8-2.1h-14v-4.5h15.1c3.1,0,5.8,0.5,7.9,1.6s3.7,2.6,4.7,4.5
			c1,2,1.6,4.3,1.6,7c0,1.6-0.3,3.2-1,4.6c-0.6,1.5-1.6,2.7-2.9,3.7c-1.3,1-3,1.7-4.9,2.1c2,0.3,3.6,1,5.1,2.1
			c1.4,1.1,2.5,2.5,3.3,4.1c0.8,1.6,1.1,3.4,1.1,5.3v0.1c0,2.6-0.6,4.9-1.7,6.9s-2.8,3.5-5,4.6c-2.2,1.1-4.7,1.6-7.5,1.6h-15.7
			V457.2z"/>
	</g>
</g>
</svg>
