<?xml version="1.0" encoding="utf-8"?>
<!-- Generator: Adobe Illustrator 23.0.2, SVG Export Plug-In . SVG Version: 6.00 Build 0)  -->
<!DOCTYPE svg PUBLIC "-//W3C//DTD SVG 1.0//EN" "http://www.w3.org/TR/2001/REC-SVG-20010904/DTD/svg10.dtd" [
	<!ENTITY st0 "fill:none;stroke:#000000;stroke-miterlimit:10;">
]>
<svg version="1.0" id="Capa_1" xmlns="http://www.w3.org/2000/svg" xmlns:xlink="http://www.w3.org/1999/xlink" x="0px" y="0px"
	 viewBox="0 0 60.7 60.7" style="enable-background:new 0 0 60.7 60.7;" xml:space="preserve">
<rect x="0.6" y="0.7" style="&st0;" width="59.4" height="59.4"/>
<path d="M30.4,7.5c10.5,0,19.6,7.6,21.5,18c2.2,11.7-5.5,23.1-17.1,25.4C29.2,52,23.9,51,19,48.1c-0.2-0.1-0.4-0.2-0.7-0.1
	c-2.6,0.9-5.2,1.8-7.8,2.7c-0.3,0.1-0.5,0.2-0.8,0c-0.2-0.2-0.1-0.5-0.1-0.7c0.8-2.6,1.6-5.3,2.4-7.9c0.1-0.3,0.1-0.5-0.1-0.7
	c-2.7-4.3-3.9-9-3.4-14c0.9-9.6,8.1-17.5,17.6-19.3c0.5-0.1,1-0.2,1.5-0.2C28.5,7.6,29.4,7.5,30.4,7.5z M10.9,49.5
	c0.2-0.1,0.4-0.1,0.5-0.2c2.3-0.8,4.6-1.6,7-2.4c0.3-0.1,0.6-0.1,0.9,0.1c6.5,3.9,13.2,4.4,20,1.2c7.5-3.6,11.4-9.7,12-18
	c0.2-3.4-0.4-6.6-1.9-9.7c-3.7-7.4-9.7-11.5-18-12c-3.4-0.2-6.7,0.4-9.7,1.9c-7.4,3.7-11.5,9.7-12,18c-0.3,4.6,1,8.7,3.5,12.5
	c0.2,0.3,0.2,0.5,0.1,0.9c-0.4,1.3-0.8,2.6-1.2,3.9C11.6,47.1,11.3,48.3,10.9,49.5z"/>
<path d="M17.1,23.2c0-4.1,2.1-6.1,5.1-7c0.3-0.1,0.6,0.1,0.7,0.4c0.7,1.2,1.4,2.3,2.1,3.5c0.8,1.3,1.5,2.5,2.3,3.8
	c0.2,0.3,0.2,0.5-0.1,0.8c-0.5,0.5-1,1-1.6,1.6c-0.1,0.1-0.1,0.3-0.1,0.4c1.5,2.5,3.2,4.7,5.6,6.4c0.6,0.4,1.2,0.7,1.8,1.1
	c0.2,0.1,0.3,0.1,0.5-0.1c0.5-0.6,1.1-1.1,1.6-1.7c0.3-0.3,0.5-0.3,0.8-0.1c2.4,1.5,4.8,3,7.1,4.5c0.2,0.2,0.4,0.3,0.3,0.7
	c-0.8,2.2-2,4-4.3,4.8c-1.8,0.7-3.6,0.5-5.4,0c-2.7-0.8-5-2.2-7.1-3.9c-3.4-2.8-6.2-6-8.2-9.9C17.7,26.5,17.1,24.7,17.1,23.2z
	 M26.3,24.1c-0.1-0.1-0.1-0.3-0.2-0.4c-1.2-1.9-2.3-3.8-3.5-5.7c-0.4-0.7-0.4-0.7-1.2-0.4c-2.2,1-3.3,2.7-3.3,5.2
	c0,1.3,0.3,2.5,0.8,3.7c1.2,3,3.1,5.6,5.3,8c2.4,2.5,5,4.7,8.2,6.1c1.5,0.7,3.1,1.1,4.8,1.1c2.4-0.1,4.7-1.9,5.2-4.2
	c-2.2-1.4-4.4-2.8-6.7-4.2c-0.6,0.6-1.2,1.2-1.7,1.8c-0.3,0.3-0.6,0.4-1,0.2c-0.8-0.5-1.7-0.9-2.5-1.5c-2.6-1.9-4.5-4.4-6.1-7.1
	c-0.2-0.3-0.1-0.5,0.1-0.8C25.2,25.3,25.7,24.7,26.3,24.1z"/>
</svg>
