<?xml version="1.0" standalone="no"?>
<!DOCTYPE svg PUBLIC "-//W3C//DTD SVG 20010904//EN"
 "http://www.w3.org/TR/2001/REC-SVG-20010904/DTD/svg10.dtd">
<svg version="1.0" xmlns="http://www.w3.org/2000/svg"
 width="271.000000pt" height="271.000000pt" viewBox="0 0 271.000000 271.000000"
 preserveAspectRatio="xMidYMid meet">
<metadata>
Created by potrace 1.14, written by Peter Selinger 2001-2017
</metadata>
<g transform="translate(0.000000,271.000000) scale(0.100000,-0.100000)"
fill="#000000" stroke="none">
<path d="M1297 2434 c-1 -1 -31 -4 -67 -8 -420 -39 -802 -369 -910 -786 -48
-183 -46 -387 5 -566 118 -411 459 -707 885 -769 56 -9 230 -9 290 -1 310 42
603 235 766 504 64 106 123 259 138 357 2 17 7 48 11 70 12 81 8 236 -10 325
-3 14 -7 36 -10 50 -2 14 -14 53 -25 88 -127 387 -470 672 -876 728 -46 6
-192 12 -197 8z"/>
</g>
</svg>
