<svg xmlns="http://www.w3.org/2000/svg" xmlns:xlink="http://www.w3.org/1999/xlink" viewBox="0 0 1920 1081"><defs><style>.cls-1{fill:none;}.cls-2{opacity:0.52;}.cls-3{clip-path:url(#clip-path);}.cls-4{opacity:0.73;}.cls-5{fill:#c0cfd4;}.cls-6{fill:#7f9ab5;}.cls-7{fill:#3f5c75;}.cls-8{fill:#385167;}.cls-9{fill:#acbecf;}.cls-10{fill:#2f4456;}.cls-11{fill:#1e2a36;}.cls-12{fill:#293a4a;}.cls-13{fill:#567d9d;}.cls-14{fill:#6a8baa;}.cls-15{fill:#527795;}.cls-16{fill:#243240;}.cls-17{fill:#141c24;}.cls-18{fill:#e8ecf0;}.cls-19{fill:#8fa9bf;}.cls-20{fill:#486882;}.cls-21{fill:#5f82a4;}</style><clipPath id="clip-path"><rect class="cls-1" x="-1403" y="100" width="982" height="879"/></clipPath></defs><g id="Texto2"><g class="cls-4"><circle class="cls-5" cx="1695.22" cy="292.85" r="126.22"/></g><path class="cls-6" d="M1695.84,123c0,.88,0,1.75,0,2.63a1.37,1.37,0,0,1-2.33,0l0-2.67Z"/><path class="cls-7" d="M1762.31,175a8.18,8.18,0,0,0,0,1c-2.88.69-5.46-1.13-8.28-1l-2.48-2.3-1.83-1.28-1.71-.18a4.4,4.4,0,0,0-2.62-3.49l.53-3.53c2.56-.38,4.52.88,6.61,2.12,1.49.89,2.79,3.3,5.12,1.43C1758.91,170.42,1762.26,171.67,1762.31,175Z"/><path class="cls-8" d="M1757.65,167.81c-2.33,1.87-3.63-.54-5.12-1.43-2.09-1.24-4-2.5-6.61-2.12-1.48-3.08-1.53-6.46-2.06-9.74l.56,0,2.26,2.53C1749.94,161,1755,163.16,1757.65,167.81Z"/><path class="cls-6" d="M1712.8,126.63c6.37-2.09,12.57.11,18.76,1,3.75.55,1.07,4,1.69,6-5.77.23-10,3.75-14.41,6.81l-1.43.49-10.54,4.68a4,4,0,0,0-3.68,1.78l-2.52,0a6.18,6.18,0,0,0-4.91-2.43l-.08-.12c-.56-1.57-1.86-2.35-3.22-3.07-1.27-1.78-3.17-2.72-5-3.75-.28-3-2.23-4.61-4.72-5.79,0-5.91,3.21-7.61,8.55-6.46,1.78,3.24-1.82,12.27,7.8,7.23.57-.3,2.16.88,3,1.66,2.13,2,4.93,1.41,7.35,2.2,2.66.87,3.71-3.18,6.43-2.14,4.49,1.71,6.08-.82,6.8-4.63,1.65-.36,3.79,1,5.26-1.43-2.45-1.11-4.27-1.36-5.3,1.41A25.58,25.58,0,0,1,1712.8,126.63Z"/><path class="cls-8" d="M1665.22,166.6c.67-4,5.66-4.39,6.62-8.11l1.56-.29c4.56,3.39,9.87,3.62,15.24,3.57l-1.32,4.8c-3.06.88-3.91,4.64-6.89,5.47-6.72,1.88-8.06,4-5.36,11,1,2.47,0,3.69-1,5.36l-4.65-1.35c-.15-1.92-.31-3.85-.46-5.77l1.08-9.58C1671.62,166.93,1668.16,167,1665.22,166.6Z"/><path class="cls-9" d="M1722.67,130.14c-.72,3.81-2.31,6.34-6.8,4.63-2.72-1-3.77,3-6.43,2.14-2.42-.79-5.22-.24-7.35-2.2-.84-.78-2.43-2-3-1.66-9.62,5-6-4-7.8-7.23l2.18-.15a1.37,1.37,0,0,0,2.33,0l17,1a25.58,25.58,0,0,0,9.83,3.49Z"/><path class="cls-10" d="M1688.64,161.77c-5.37,0-10.68-.18-15.24-3.57-.51-2.13-.86-4.24.78-6.09,4.61-.19,9.92,1.34,12-5,3.8,2.68,5.18,6.73,6.2,11C1691.93,160.16,1690.29,161,1688.64,161.77Z"/><path class="cls-11" d="M1692.39,158.14c-1-4.25-2.4-8.3-6.2-11-1.36-3.21-3.59-2.63-5.53-.9s-3.6,2-5.28-.2c.09-3.33.81-6.42,3.35-8.81l3.83.19a3.63,3.63,0,0,0,2.47,2.2l2.34.29a34.79,34.79,0,0,0,4.92,9.58c1.79,4.08,3.5,8.2,5.43,12.21.4.81,1.63,1.37,1,2.43a2.76,2.76,0,0,1-1.93,1,2.38,2.38,0,0,1-2.74-1.79C1693.75,161.53,1694.78,159.3,1692.39,158.14Z"/><path class="cls-12" d="M1675.38,146.06c1.68,2.18,3.25,2,5.28.2s4.17-2.31,5.53.9c-2.09,6.29-7.4,4.76-12,5C1674.12,150,1673.3,147.75,1675.38,146.06Z"/><path class="cls-7" d="M1687.37,139.93l-2.34-.28c-.35-1.28.09-3.42-2.47-2.21l-3.83-.19c0-2.78,2.28-3.63,4-5,2.49,1.18,4.44,2.8,4.72,5.79Z"/><path class="cls-8" d="M1687.37,139.93l.09-1.86c1.83,1,3.73,2,5,3.75-.16,2.32,1.28,3,3.22,3.07l.08.12c2,4.37,2.35,4.53,4.91,2.43l2.52,0c2.35,1.72,3.21.38,3.68-1.78l10.54-4.68c.72.54,1.17.3,1.43-.49,4.43-3.06,8.64-6.58,14.41-6.81,1.82,2.37,8.39-1.36,6.86,5.33-4,.54-8.29-.1-11.69,2.88-5.52,1.26-11.15,2.3-14.44,7.74a3.12,3.12,0,0,0-2.73,2.22l-3.32,2.63-3.64,2.42c-3.75.41-7.12.4-7.9-4.59-.31-2-2.19-2.64-4.1-2.77A34.79,34.79,0,0,1,1687.37,139.93Z"/><path class="cls-12" d="M1728.42,141.86c3.4-3,7.69-2.34,11.69-2.88a30.71,30.71,0,0,1,4.31,15.51l-.56,0c-1.79-.71-2-2.24-2-3.86,0-4.92-2.57-7.5-7.25-8.28Z"/><path class="cls-6" d="M1676.52,205.32l-6-1.21c-5.61-2.22-8.69-7.59-13.47-10.86l-1.13-1.17c-.07-2.46-.14-4.93-.2-7.39,5.18,1.79,8.42-3.86,13.25-3.46.15,1.92.31,3.85.46,5.77-.11.88-.21,1.77-.31,2.66-1.32,1.67-.11,2.08,1.21,2.43a4.68,4.68,0,0,1,2.55,3.53c.32,1.9.53,4.12,2.89,4.39,1.77.2,1.75-1.63,2-2.93,2,.2,4,.44,5.89.66,5.28.6,10.78-.79,15.85,1.62-.39,1.88-1.9,2.62-3.48,2.84-4.85.69-9.68,2.5-14.65.61C1678.83,201.84,1676.51,201.36,1676.52,205.32Z"/><path class="cls-13" d="M1657.06,193.25c4.78,3.27,7.86,8.64,13.47,10.86-6.92,2.16-9.64-3.56-13.46-7.2C1657.07,195.69,1657.06,194.47,1657.06,193.25Z"/><path class="cls-14" d="M1669,181.23c-4.83-.4-8.07,5.25-13.25,3.46-.74-2-2.41-3.75-1.9-6,.26-1.16.39-2.94,2.48-2.45,2.32.53,2.32.53,3.28-2.2.38-.83.77-1.65,1.15-2.48h0a27.34,27.34,0,0,0,9.29.14Z"/><path class="cls-15" d="M1670.06,171.65a27.34,27.34,0,0,1-9.29-.14c-.18-3.15,1.2-4.88,4.45-4.91C1668.16,167,1671.62,166.93,1670.06,171.65Z"/><path class="cls-15" d="M1660.74,171.52c-.38.83-.77,1.65-1.15,2.48C1658.19,172.34,1659.15,171.79,1660.74,171.52Z"/><path class="cls-6" d="M1751.55,172.75,1754,175c.8,1.39,1.31,3.65,2.46,4,6.34,2.13,3,5.79,1.74,9.13-.8,2.21-2.59,3.55-4.34,4.92l-2.4,2.28c-2.26,1-5,1.32-5.77,4.24-2.37,1.7-5.82,1.46-7.61,4.22-4.83,1.2-9.18,4.24-14.45,3.79,2.13-4.2-3.51-5-3.58-8.29,5.45-2.5,11.5-.37,17.09-2.32,4.89-1.71,9-3.87,9.75-9.63a3.38,3.38,0,0,0,2.54-3.21c.4-.58.79-1.17,1.19-1.76a3,3,0,0,0,.43-3.68l-.81-6.09Z"/><path class="cls-13" d="M1753.89,193.12c1.75-1.37,3.54-2.71,4.34-4.92,1.21-3.34,4.6-7-1.74-9.13-1.15-.38-1.66-2.64-2.46-4,2.82-.14,5.4,1.68,8.28,1,1.62,6.7,2.16,13.1-4.53,17.74C1756.09,194.94,1754.72,196.13,1753.89,193.12Z"/><path class="cls-13" d="M1745.72,199.64c.82-2.92,3.51-3.28,5.77-4.24,0,1.31.06,2.63.1,3.94h-2.46Z"/><path class="cls-11" d="M1734.62,142.38c4.68.78,7.29,3.36,7.25,8.28,0,1.62.2,3.15,2,3.86.53,3.28.58,6.66,2.06,9.74-.17,1.18-.35,2.36-.53,3.53l-1.27,1.16c-5.81,2.65-3.2,9.75-7.08,13.42h-2.42c-7.6-3.58-14.45,1.3-21.57,2.35-3.2.47-3.16,3.87,1,4.83-.87,1.2-2.29,2-2.44,3.72-3.16-2.89-6.4-.28-9.61-.16a2.87,2.87,0,0,0-2-2.05c-4.5-.92-7.89-5.12-7.93-8.07-.08-5.61,5.4,1.29,7.45-1.83h3.63a1.38,1.38,0,0,0,2.43,0c2.06-2.59.93-5.62,1.2-8.46.65-5.5-1.9-10.51-2.45-15.82l3.64-2.42c.09,1.89.32,3.66,3,2.94,2-.55,3.77.63,5.66.89-.06,3.17-5.11,6.31,0,9.51l3.59,3.62c3.85,5.92,9.44,4.1,13.6,1.64s3.35-7.74,3.2-12.14c-.05-1.64-1.26-3-2.72-2.46-5.07,1.86-9.34-2-14.15-1.59.47-1.91,2.25-1.78,3.57-2.51C1728.56,151.63,1733.72,148.91,1734.62,142.38Z"/><path class="cls-12" d="M1737,182.37c3.88-3.67,1.27-10.77,7.08-13.42.52,2.08,2,2.52,3.89,2.33l1.71.18c.18.41.37.81.55,1.21l.81,6.09c-.15,1.23-.29,2.45-.43,3.68-.4.59-.79,1.18-1.19,1.76l-1.2-.24c-2.28-2.66-3.89,0-5.75.71C1740,185.63,1737.24,187,1737,182.37Z"/><path class="cls-8" d="M1748,171.28c-1.87.19-3.37-.25-3.89-2.33l1.27-1.16A4.4,4.4,0,0,1,1748,171.28Z"/><path class="cls-13" d="M1750.27,172.67c-.18-.4-.37-.8-.55-1.21l1.83,1.28Z"/><path class="cls-7" d="M1700.67,147.44c-2.56,2.1-2.9,1.94-4.91-2.43A6.18,6.18,0,0,1,1700.67,147.44Z"/><path class="cls-15" d="M1722.63,130.12c1-2.77,2.85-2.52,5.3-1.41-1.47,2.44-3.61,1.07-5.26,1.43Z"/><path class="cls-7" d="M1706.87,145.63c-.47,2.16-1.33,3.5-3.68,1.78A4,4,0,0,1,1706.87,145.63Z"/><path class="cls-7" d="M1695.68,144.89c-1.94-.11-3.38-.75-3.22-3.07C1693.82,142.54,1695.12,143.32,1695.68,144.89Z"/><path class="cls-12" d="M1718.84,140.46c-.26.79-.71,1-1.43.49Z"/><path class="cls-16" d="M1704.29,156.87c.55,5.31,3.1,10.32,2.45,15.82-4.92.68-11.32.1-7.26,8.47-2,3.12-7.53-3.78-7.45,1.83,0,2.95,3.43,7.15,7.93,8.07a2.87,2.87,0,0,1,2,2.05c-7.56.43-13.72-3.09-20.18-6.66,2-2.08,4.4.79,5.8-1.54,0-1.58-1.4-1.71-2.43-2.22-1.26-.61-3.83-.13-2.86-2.7.69-1.84,1.91-3.58,4.41-3.51,1.65.05,3.74,2,4.85-.38,1-2.07-.75-3.8-2-5.35-1-1.28-2-2.49-2.26-4.18l1.32-4.8c1.65-.81,3.29-1.61,3.75-3.63,2.39,1.16,1.36,3.39,1.69,5.23a2.38,2.38,0,0,0,2.74,1.79,2.76,2.76,0,0,0,1.93-1c.6-1.06-.63-1.62-1-2.43-1.93-4-3.64-8.13-5.43-12.21,1.91.13,3.79.81,4.1,2.77C1697.17,157.27,1700.54,157.28,1704.29,156.87Z"/><path class="cls-12" d="M1687.32,166.57c.21,1.69,1.25,2.9,2.26,4.18,1.24,1.55,3,3.28,2,5.35-1.11,2.34-3.2.43-4.85.38-2.5-.07-3.72,1.67-4.41,3.51-1,2.57,1.6,2.09,2.86,2.7,1,.51,2.43.64,2.43,2.22-1.4,2.33-3.83-.54-5.8,1.54,6.46,3.57,12.62,7.09,20.18,6.66,3.21-.12,6.45-2.73,9.61.16h3.64a4.45,4.45,0,0,1,3.68,1.3c-15.59,2.59-30.76,2.23-44.82-6.23.94-1.67,1.94-2.89,1-5.36-2.7-7-1.36-9.07,5.36-11C1683.41,171.21,1684.26,167.45,1687.32,166.57Z"/><path class="cls-15" d="M1674.09,188.35c14.06,8.46,29.23,8.82,44.82,6.23,9.81-.2,18.72-3.52,27.35-7.83l.66.66c-.74,5.76-4.86,7.92-9.75,9.63-5.59,2-11.64-.18-17.09,2.32l-2.42,1.21-6.09,0c-3.91-1.59-7.81-3.22-12.08-1.24-5.07-2.41-10.57-1-15.85-1.62-1.94-.22-3.92-.46-5.89-.66l-4.86-1.46a4.68,4.68,0,0,0-2.55-3.53c.63-1.32.65-2.35-1.21-2.43.1-.89.2-1.78.31-2.66Z"/><path class="cls-8" d="M1682.56,137.44c2.56-1.21,2.12.93,2.47,2.21A3.67,3.67,0,0,1,1682.56,137.44Z"/><path class="cls-17" d="M1716.55,158.28c-1.89-.26-3.63-1.44-5.66-.89-2.64.72-2.87-1-3-2.94l3.32-2.63a2.33,2.33,0,0,0,2.73-2.22c3.29-5.44,8.92-6.48,14.44-7.74l6.2.52c-.9,6.53-6.06,9.25-11,12-1.32.73-3.1.6-3.57,2.51Z"/><path class="cls-11" d="M1714,149.6a2.33,2.33,0,0,1-2.73,2.22A3.12,3.12,0,0,1,1714,149.6Z"/><path class="cls-18" d="M1622.09,246.89c2-1.55,2.2-3.82,2.53-6l5.18-6.24c8.1-9.6,18.67-15.78,29.78-21.06,4.64-2.21,7.66-7.52,13.64-7.07-.66,2-1.31,4-2,6-2.63,2.78-2.89,6.34-3.21,9.87-2,3.08-1.65,6,.72,8.68a2.6,2.6,0,0,0-.17.77c-1.45.39-1.71,1.48-1.62,2.78a80,80,0,0,0,1.48,23.91c2.29,11.08,2.74,22.61,7.88,33-.1.69-.21,1.38-.32,2.07-1.26.17-2.57,1.87-3.76.23-3-4.06-3.92-.28-3.66,1.32,1.15,7.23-.81,14.67,1.65,21.77.29,4.42-.64,8.88.46,13.27l-.45,12.14c-.2,1.11-.41,2.23-.62,3.35l-1.12,1.2c-5.17-.17-9.19-3.63-14-4.93-4.16-1.12-7-.39-8.36,4l-.19,2.43a62,62,0,0,0-9.54,16.82c3.2-.34,6,.82,8.54-1.13,6,.65,12.22-1.4,18.06,1.39,5.91,6.77,7.16,15.61,10.43,23.55l-1.08,1c-6.63-1.42-13.23-3.3-20.11-1.61h0a1.34,1.34,0,0,0-1.51,1.08,1.06,1.06,0,0,0-.76.38c-2.91-.6-5.36.46-7.68,2.07a1,1,0,0,0-.8.18c-4.54-.54-8.81,5.15-12,3-3.43-2.37-1.52-8.49-2.73-12.83-.51-3.53.93-7.14-.39-10.64,0-3.54-1.77-6-4.51-8-1.77-1.32-3.38-2.22-5.35-.57-1.74,1.46-1.34,2.94-.39,4.79a15.71,15.71,0,0,1,1.87,8.1,1.6,1.6,0,0,0-1,.26,3.44,3.44,0,0,1-.83-.58l-1.29-.73c-4.5-2.45-7.39-6.36-9.77-10.74a14.28,14.28,0,0,1,1.24-13.05l0-.1c1.4-.9,2.36-2.07,2.14-3.87a.56.56,0,0,0,.2-.78c1.57-3,3-6,4.75-8.85,1.22-2.07,2.68-3.91,1.89-6.59-1.75-5.91-1-11.8.48-17.65l2.37-3.63c4,0,1.48,4.78,4.93,6.69V297.46l1.9,4.33c1.43-5,2.28-9.88,0-14.78-1.72-.32-1.46,2.95-3.81,2.09-.93-1.92-.09-4.79-2.48-6.27-.21-1.57-.42-3.14-.64-4.71a13.92,13.92,0,0,0,0-7.33l.6-3.43c2.42-1.3,2.4-2.63,0-4,0-.68,0-1.36.07-2,2.43-1.31,2.22-3.09.89-5.07l.59-2.34.42-1.31C1621.18,250.7,1621.64,248.8,1622.09,246.89Zm44.59,47.17c-1-6.74-.76-13.29-2.55-19.66-.79-2.81-2.62-4.94-4.52-7-1-1.08-2.8-2.12-3.29-.16-1.07,4.24-2,9.33,1.29,12.49s4.37,6.52,5.51,10.23C1663.68,291.76,1664,293.37,1666.68,294.06Zm-31.49-37.71a3,3,0,0,0-2.85,1.85,2.14,2.14,0,0,0,1,2.62c7.66,3.74,8,12,11.45,18.34.76,1.4,1.46,2.83,2.3,4.18.63,1,1.47,2.18,2.83,1.24,1-.72.24-1.8,0-2.74-2.23-8.37-7.2-15.46-10.85-23.16A3.79,3.79,0,0,0,1635.19,256.35Zm23.45,36.33c-1,3.61,1.07,6.36.86,9.42s0,6,0,9.08c0,1,.13,2.21,1.36,2.36s1.56-1,2-1.88C1665.86,305.35,1664.37,298,1658.64,292.68Zm3.95,26.37c.11-1.3-.5-2-1.62-2a3,3,0,0,0-3.1,2.18c-.28,1.14.63,1.87,1.67,1.9A2.94,2.94,0,0,0,1662.59,319.05Z"/><path class="cls-9" d="M1667,234.57c-.09-1.3.17-2.39,1.63-2.78,1.39,1,2.55,1.2,3.14-.81a5.43,5.43,0,0,0,2.19-5.06l.33-5.74c1.82-.57,2.14-2.24,2.73-3.72,1-2.39,2-1.09,3-.06.12,1.14.24,2.28.35,3.42q1.07,2.48,2.12,4.93.09,6.12.17,12.24c0,.95,0,1.91,1.17,2.32l0,2.41c.27,1.61.55,3.22.82,4.82-2.46,3.18.51,5.34,1.46,7.88a14.69,14.69,0,0,0-6.46,2.84c-3.08-.08-4,2.42-3.57,4.37,1.33,6.26-1,12.76,1.46,18.88-.08,3.69.9,7.51-1.22,11-5.14-10.4-5.59-21.93-7.88-33,.52-.55,1.5-1.08,1.51-1.64q.27-9.79.24-19.6C1670.2,235.22,1668.74,234.62,1667,234.57Z"/><path class="cls-19" d="M1717.66,200.57l2.42-1.21c.07,3.25,5.71,4.09,3.58,8.29a1.25,1.25,0,0,1-1,.23,4.77,4.77,0,0,0-3.72.78l-2.21.49a4.93,4.93,0,0,0-3.86.72l-3.66.85-2.67.44a18.51,18.51,0,0,0-9.26-.27l-11.08-2c-3-1.83-7-1-9.67-3.59,0-4,2.31-3.48,4.84-2.51,5,1.89,9.8.08,14.65-.61,1.58-.22,3.09-1,3.48-2.84,4.27-2,8.17-.35,12.08,1.24C1713.62,203.85,1715.65,204,1717.66,200.57Z"/><path class="cls-10" d="M1686.19,208.91l11.08,2c.33,1,4.65-.82,1.65,3-2.58,3.33-5.14,5.41-9.14,6l-2.26-.1-1.44-1,.3-1.32c1.46-2.63-.72-3.06-2.31-3.84C1683.29,211.39,1681,208.49,1686.19,208.91Z"/><path class="cls-6" d="M1680,216.4c-1-1-2.06-2.33-3,.06-.59,1.48-.91,3.15-2.73,3.72.14-3,2.36-6.84-3-7.71.66-2,1.31-4,2-6C1677,208.74,1681.42,210.58,1680,216.4Z"/><path class="cls-6" d="M1686.08,218.79l1.44,1c0,.42-.07.85-.11,1.27,0,3.44-2.32,3.76-4.94,3.67q-1-2.46-2.12-4.93C1682.36,220,1684.52,221.06,1686.08,218.79Z"/><path class="cls-20" d="M1684.07,213.63c1.59.78,3.77,1.21,2.31,3.84C1684,217.13,1683.69,215.6,1684.07,213.63Z"/><path class="cls-14" d="M1672.89,195.62l4.86,1.46c-.22,1.3-.2,3.13-2,2.93C1673.42,199.74,1673.21,197.52,1672.89,195.62Z"/><path class="cls-14" d="M1669.13,189.66c1.86.08,1.84,1.11,1.21,2.43C1669,191.74,1667.81,191.33,1669.13,189.66Z"/><path class="cls-18" d="M1750.59,213.61l5.76,2.78c1.72,3.26,4.94,2.54,7.74,2.92l4.2,1c.54,1.21,1.29,1.91,2.66,1.06l2.16.27a2.82,2.82,0,0,0,3,1.47l2.45,1.78c.28,1.16.57,2.32.85,3.48l.34,1.36-.23,4.65c-3.24,3.14-8.07,5.19-7.49,10.94l.21,6.07c-1.16,1.12-.75,2,.46,2.7l.6,7c-1.55,2.39,1.75,5.71-1.47,7.79-2.85-7-5.66-14-8.57-21-2.37-5.7-4.33-11.65-9.06-16-2.31-8-9.3-12.38-14.15-18.41l0-3.23C1744.05,209.94,1746.77,213.51,1750.59,213.61Z"/><path class="cls-16" d="M1745.72,199.64l3.41-.29-3.69,8.82-4.75.8-2.58-5.11C1739.9,201.1,1743.35,201.34,1745.72,199.64Z"/><path class="cls-9" d="M1740.69,209l4.75-.8c.42,3,4.42,2.69,5.15,5.44-3.82-.1-6.54-3.67-10.5-3.3a6.18,6.18,0,0,1-.09-1A.58.58,0,0,0,1740.69,209Z"/><path class="cls-9" d="M1764.09,219.31c-2.8-.38-6,.34-7.74-2.92C1759.33,216.31,1762.09,216.8,1764.09,219.31Z"/><path class="cls-9" d="M1776.12,223.15a2.82,2.82,0,0,1-3-1.47A2.27,2.27,0,0,1,1776.12,223.15Z"/><path class="cls-9" d="M1771,221.41c-1.37.85-2.12.15-2.66-1.06A2.49,2.49,0,0,1,1771,221.41Z"/><path class="cls-12" d="M1740.69,209a.58.58,0,0,1-.69.3l-4.18-.23-.27-.3.29.28c-1.18,4.47-4.78,6.53-8.47,8.51a2.62,2.62,0,0,0-2.45,2.37l-3.6,0c-1.11-3.4-4-3.74-6.79-3.51-3.69.29-5.58-1.32-6.38-4.7l1-.95,3.66-.85a4.2,4.2,0,0,0,3.86-.72l2.21-.49a3.82,3.82,0,0,0,3.72-.78,1.25,1.25,0,0,0,1-.23c5.27.45,9.62-2.59,14.45-3.79Z"/><path class="cls-15" d="M1748.26,184l1.2.24a3.38,3.38,0,0,1-2.54,3.21l-.66-.66Z"/><path class="cls-13" d="M1750.65,182.44c.14-1.23.28-2.45.43-3.68A3,3,0,0,1,1750.65,182.44Z"/><path class="cls-16" d="M1748.26,184l-2,2.79c-8.63,4.31-17.54,7.63-27.35,7.83a4.45,4.45,0,0,0-3.68-1.3h-3.64c.15-1.67,1.57-2.52,2.44-3.72,1.29-2.23,3.56-2,5.67-2.46,5.08-1.2,10.8-.5,14.92-4.72H1737c.2,4.63,2.94,3.26,5.47,2.3C1744.37,184,1746,181.3,1748.26,184Z"/><path class="cls-12" d="M1716.55,158.28l3.47-1.42c4.81-.44,9.08,3.45,14.15,1.59,1.46-.54,2.67.82,2.72,2.46.15,4.4.83,9.77-3.2,12.14s-9.75,4.28-13.6-1.64c1.43-1.31,2.51,0,3.77.44,2.87,1.12,5.43-.76,7.55-1.92,1.38-.75.09-4.05-1.08-5.38-2.59-3-6.37-1.25-9.64-1.42-3-.15-4.23,1.81-4.19,4.66C1711.44,164.59,1716.49,161.45,1716.55,158.28Z"/><path class="cls-8" d="M1716.5,167.79c0-2.85,1.14-4.81,4.19-4.66,3.27.17,7-1.58,9.64,1.42,1.17,1.33,2.46,4.63,1.08,5.38-2.12,1.16-4.68,3-7.55,1.92-1.26-.49-2.34-1.75-3.77-.44Z"/><path class="cls-12" d="M1734.62,182.37c-4.12,4.22-9.84,3.52-14.92,4.72-2.11.49-4.38.23-5.67,2.46-4.14-1-4.18-4.36-1-4.83C1720.17,183.67,1727,178.79,1734.62,182.37Z"/><path class="cls-12" d="M1699.48,181.16c-4.06-8.37,2.34-7.79,7.26-8.47-.27,2.84.86,5.87-1.2,8.46a1.39,1.39,0,0,0-2.43,0Z"/><path class="cls-16" d="M1703.11,181.16a1.39,1.39,0,0,1,2.43,0A1.39,1.39,0,0,1,1703.11,181.16Z"/><path class="cls-11" d="M1714,193.28h0Z"/><path class="cls-6" d="M1717.66,200.57c-2,3.38-4,3.28-6.09,0Z"/><path class="cls-20" d="M1668.51,346.84l1.12-1.2c6.72,1.2,5.28,6.16,5.19,10.77-.17,9.43-3.53,18.93.43,28.3l.29.29-.3-.28c4-1.31,7.28,2.56,11.23,1.39a4.42,4.42,0,0,1-3.59,1.74c-7.92.87-7.92.88-6.39,9a5.09,5.09,0,0,1-4.6-2A10.67,10.67,0,0,0,1662,391l-1.32-.32c-2.4-2.18-5.54-1.7-8.38-2.32,6.88-1.69,13.48.19,20.11,1.61l1.31.42-.23-1.44c-3.27-7.94-4.52-16.78-10.43-23.55,1.38-2.64,6.45-2.92,4.77-7.5Z"/><path class="cls-21" d="M1670.25,342.29l.45-12.14,2.2.07c.39,1.57-.83,3.49,1.23,5,2.3-2.53,3.9-7,8.57-3.78l-.69,11.49a14.83,14.83,0,0,0-.57,6.58c2.65,8.52,2.55,17.5,4.19,26.21.67,3.51,5.08,4.84,4.25,8.8l-2.34,1c-1-3.46-5.38-4-6.29-7.82-1.49-6.31-2.85-12.55-2.34-19.09.55-7.11-2.36-13.89-1.25-21.3C1673.87,338.2,1673.71,342.54,1670.25,342.29Z"/><path class="cls-15" d="M1670.25,342.29c3.46.25,3.62-4.09,7.41-5-1.11,7.41,1.8,14.19,1.25,21.3-.51,6.54.85,12.78,2.34,19.09.91,3.8,5.3,4.36,6.29,7.82l-1.07.58c-4,1.17-7.27-2.7-11.23-1.39h0c-4-9.37-.6-18.87-.43-28.3.09-4.61,1.53-9.57-5.19-10.77C1669.84,344.52,1670.05,343.4,1670.25,342.29Z"/><path class="cls-16" d="M1652.27,388.4c2.84.62,6,.14,8.38,2.32-4.79,2.51-8.85,5.78-11.07,10.91-1.25,2.25.74,3.29,1.86,4.45,4.19,4.33,6.67,9.68,9.21,15-5.65.64-7.56-3.82-9.27-7.58-1.25-2.76-2.82-3.46-5.35-3.47-1.35-3.16-2.5-2.32-3.58.17a1.59,1.59,0,0,1-.78-.07l-1.42-.14c-2.37-3-5.28-5.7-6.42-9.56l.53.07c4.24,1.07,7.94,3.4,12.6,6-1.24-5.25-2.27-9.64-3.31-14,2.19-.69,4.77-.43,6.35-2.61a1.06,1.06,0,0,1,.76-.38l1.51-1.08Z"/><path class="cls-6" d="M1667.8,357.94c1.68,4.58-3.39,4.86-4.77,7.5-5.84-2.79-12-.74-18.06-1.39,1.08-4.56,4.85-3.3,7.82-3.48,3.65-.21,5.68-1.09,2.91-4.95-.54-5.19-6-3-8.3-5.5a1.84,1.84,0,0,0-1.43-1.76c.06-.81.12-1.62.19-2.43,7.65-.36,13.22,3.44,17.66,9.16C1665,356.54,1665.53,358.26,1667.8,357.94Z"/><path class="cls-14" d="M1676.33,291.49c2.12-3.47,1.14-7.29,1.22-11,1.8-.33,1.87-1.42,1.8-3.05a16.29,16.29,0,0,1,1.9-9.08c1.13.88,1.9,2.29,3.56,2.39l-4.32,28.92c-.51,2.29-.87,4.65-2.85,6.28l-3.2-1.06c-1.26-4,1.74-7.47,1.57-11.35C1676.12,292.87,1676.23,292.18,1676.33,291.49Z"/><path class="cls-9" d="M1646,348.36a1.86,1.86,0,0,1,1.44,1.76c-1,7.43,4.64,5,8.29,5.5,2.77,3.86.74,4.74-2.91,4.95-3,.18-6.74-1.08-7.82,3.48-2.54,1.95-5.34.79-8.54,1.13A62,62,0,0,1,1646,348.36Z"/><path class="cls-6" d="M1666.68,294.06c-2.71-.69-3-2.3-3.56-4.11-1.14-3.71-2.34-7.2-5.51-10.23s-2.36-8.25-1.29-12.49c.49-2,2.3-.92,3.29.16,1.9,2.07,3.73,4.2,4.52,7C1665.92,280.77,1665.73,287.32,1666.68,294.06Z"/><path class="cls-9" d="M1618.39,288.82l.36-6c2.39,1.48,1.55,4.35,2.48,6.27,2.35.86,2.09-2.41,3.81-2.09,2.33,4.9,1.48,9.77,0,14.78l-1.9-4.33v18.83c-3.45-1.91-.88-6.7-4.93-6.69q0-3,.08-6h0A28.49,28.49,0,0,0,1618.39,288.82Z"/><path class="cls-9" d="M1667.8,357.94c-2.27.32-2.85-1.4-4-2.85-4.44-5.72-10-9.52-17.66-9.16,1.31-4.41,4.2-5.14,8.36-4,4.8,1.3,8.82,4.76,14,4.93C1668.27,350.54,1668,354.24,1667.8,357.94Z"/><path class="cls-9" d="M1635.19,256.35a3.79,3.79,0,0,1,3.88,2.33c3.65,7.7,8.62,14.79,10.85,23.16.24.94,1,2,0,2.74-1.36.94-2.2-.24-2.83-1.24-.84-1.35-1.54-2.78-2.3-4.18-3.45-6.33-3.79-14.6-11.45-18.34a2.14,2.14,0,0,1-1-2.62A3,3,0,0,1,1635.19,256.35Z"/><path class="cls-9" d="M1676,293.56c.17,3.88-2.83,7.32-1.57,11.35a22.85,22.85,0,0,1-4.2,12c-2.46-7.1-.5-14.54-1.65-21.77-.26-1.6.71-5.38,3.66-1.32C1673.44,295.43,1674.75,293.73,1676,293.56Z"/><path class="cls-9" d="M1618.07,375.91a15.71,15.71,0,0,0-1.87-8.1c-1-1.85-1.35-3.33.39-4.79,2-1.65,3.58-.75,5.35.57,2.74,2,4.54,4.48,4.51,8C1623.09,371.93,1622.1,376.89,1618.07,375.91Z"/><path class="cls-17" d="M1643.65,392.47c1,4.39,2.07,8.78,3.31,14-4.66-2.59-8.36-4.92-12.6-6a2.67,2.67,0,0,1,.77-2.58c.38.14.45,1.18,1.15.4l-1.13-.41c-.08-4.35,5.12-2.92,6.37-5.81a1.05,1.05,0,0,1,.81-.18Z"/><path class="cls-15" d="M1670.24,316.88a22.85,22.85,0,0,0,4.2-12l3.2,1.06c0,.77.1,1.54.16,2.31l-.08,1.36c-1.35,6.92-4.43,13.44-4.82,20.58l-2.2-.07C1669.6,325.76,1670.53,321.3,1670.24,316.88Z"/><path class="cls-9" d="M1658.64,292.68c5.73,5.35,7.22,12.67,4.23,19-.44.92-.82,2-2,1.88s-1.34-1.37-1.36-2.36c-.06-3-.21-6.07,0-9.08S1657.61,296.29,1658.64,292.68Z"/><path class="cls-19" d="M1667,234.57c1.77.05,3.23.65,3.23,2.67q0,9.8-.24,19.6c0,.56-1,1.09-1.51,1.64A80,80,0,0,1,1667,234.57Z"/><path class="cls-14" d="M1671.25,212.47c5.37.87,3.15,4.69,3,7.71l-.33,5.75c-2.47-.36-2.78-4.28-5.89-3.59C1668.36,218.81,1668.62,215.25,1671.25,212.47Z"/><path class="cls-6" d="M1618.07,375.91c4,1,5-4,8.38-4.3,1.32,3.5-.12,7.11.39,10.64l-1-.15c-2.23-2.79-5.7-3.37-8.67-4.84a2.52,2.52,0,0,1-.12-1.09A1.6,1.6,0,0,1,1618.07,375.91Z"/><path class="cls-6" d="M1668,222.34c3.11-.69,3.42,3.23,5.89,3.59a5.39,5.39,0,0,1-2.19,5l-3,.05C1666.39,228.3,1666,225.42,1668,222.34Z"/><path class="cls-8" d="M1618.34,303.57q0,3-.08,6l-2.37,3.63-.4-.25C1617.52,310.17,1612,305.07,1618.34,303.57Z"/><path class="cls-9" d="M1662.59,319.05a2.94,2.94,0,0,1-3,2.07c-1,0-2-.76-1.67-1.9A3,3,0,0,1,1661,317C1662.09,317,1662.7,317.75,1662.59,319.05Z"/><path class="cls-20" d="M1643.65,392.47l-1.32-.54c2.31-1.61,4.76-2.67,7.67-2.07C1648.42,392,1645.84,391.78,1643.65,392.47Z"/><path class="cls-9" d="M1618.82,261.33a5.44,5.44,0,0,1,.89-5.07C1621,258.24,1621.25,260,1618.82,261.33Z"/><path class="cls-9" d="M1618.7,267.36a4.76,4.76,0,0,1,0-4C1621.1,264.73,1621.12,266.06,1618.7,267.36Z"/><path class="cls-8" d="M1606.43,351c-.44-1.93-.1-3.43,2.14-3.87C1608.79,348.9,1607.83,350.07,1606.43,351Z"/><path class="cls-19" d="M1668.76,231l3-.05c-.59,2-1.75,1.86-3.14.82A2.3,2.3,0,0,1,1668.76,231Z"/><path class="cls-9" d="M1620.3,253.92a.81.81,0,0,1,.42-1.31Z"/><path class="cls-20" d="M1652.27,388.4l-1.51,1.08A1.34,1.34,0,0,1,1652.27,388.4Z"/><path class="cls-6" d="M1616.22,375.59l-1.29-.73Z"/><path class="cls-6" d="M1740.06,213.54c4.85,6,11.84,10.42,14.15,18.41-2.27.52-2.28,1.7-1.23,3.51,1.73,3,4.28,5.82-.32,8.94-1.66,1.12.74,2.5,1.65,3.73,2.31,3.11,5.84,6.19,3.57,10.57-2.12,4.08-.65,6,3.08,7.21,3.54,1.12,5.32,3.46,5.21,7.13-.18,6.47,3.15,13-.53,19.43-1.17,2-.37,3.9,1.81,5,0,.85,0,1.7.07,2.55-1.67,1.28-.44,3.32-1.27,4.82-2.22.21-2.57,1.75-2.54,3.56h0l-6,1.27c.35-2.18.81-4.35,1-6.55.16-1.6.22-3.69-1.76-4-8.89-1.48-17.89-4.93-27.14,1.05,1.16-5.67-5.73-8.42-4.2-14.19.28-1.08-1.26-1.27-2.32-1-6.52,1.4-6-2.53-5.07-6.73.33-1.52,1.1-3,0-4.58-5.06,4.39-5.06,4.39-9.34,4.51-10.78.29-16.83-3.92-20.34-14.27-.42-1.23-.88-2.22-2.21-2.58l-.3-6.84c-.95-2.54-3.92-4.7-1.46-7.87,1.63.95,2.69,3,5,2.59l0,0,0,2.74c0,3.48,4.12,4,5,6.84-2.88,1-2.93,3.41-.54,4.06,5,1.34,7.4,4.64,10,8.6,1.17,1.81,3.33,4.75,6.22,3.54,2.38-1,.88-3.94,1.26-6,2-.19,2,4.83,5,2a1.73,1.73,0,0,0,.36-2.57l1.38-4.48c1.19-.62,2-1.35.81-2.67.12-.79.25-1.58.37-2.36,2.59-.46,4.08-2.29,5.5-4.28,1.13-1.58,2-3.35,4.09-4.16,10.85-4.07,14.52-14.1,9.09-24.41C1737.49,221.61,1739.21,217.64,1740.06,213.54Zm-4.16,50.6c-.68-1.56,1.1-5.1-2.2-4.31-2.72.65-5.51,3.29-4.84,6.8.57,3,.69,7.67,4.23,7.85,2.7.13,1-4.49,2.23-6.75C1735.86,266.73,1735.72,265.37,1735.9,264.14Z"/><path class="cls-6" d="M1681.25,268.38a16.29,16.29,0,0,0-1.9,9.08c.07,1.63,0,2.72-1.8,3.05-2.5-6.12-.13-12.62-1.46-18.88-.41-1.95.49-4.45,3.57-4.37C1680.68,260.9,1681.73,264.53,1681.25,268.38Z"/><path class="cls-13" d="M1681.25,268.38c.48-3.85-.57-7.48-1.59-11.12a14.69,14.69,0,0,1,6.46-2.84l.3,6.84-.39,7c-.41.85-.81,1.69-1.22,2.53C1683.15,270.67,1682.38,269.26,1681.25,268.38Z"/><path class="cls-7" d="M1683.84,241.72l0-2.41,1.1-2.46v0l2.37-2.27c2.58,4.92,3.78,10.58,8,14.59,1.45,1.36,1.74,2.76-.71,3.46l-2.37-1.34a2.47,2.47,0,0,0-2.59-2.21l0,0A10.34,10.34,0,0,0,1683.84,241.72Z"/><path class="cls-14" d="M1682.47,224.75c2.62.09,4.94-.23,4.94-3.67a5.07,5.07,0,0,1,2.41,3.72h0c-2.51,1.73-3.48,3.65-.78,6l-1.14,3.14c-4.14-2.27-2.55,1.36-3,2.9v0l-2.27.14Q1682.55,230.87,1682.47,224.75Z"/><path class="cls-20" d="M1683.84,241.72a10.34,10.34,0,0,1,5.85,7.42c-2.34.41-3.4-1.64-5-2.59C1684.39,244.94,1684.11,243.33,1683.84,241.72Z"/><path class="cls-20" d="M1682.64,237l2.27-.14-1.1,2.46C1682.69,238.9,1682.68,237.94,1682.64,237Z"/><path class="cls-8" d="M1689.78,219.91c4-.57,6.56-2.65,9.14-6,3-3.86-1.32-2-1.65-3a18.39,18.39,0,0,1,9.26.28l.35.47c-2.51,3.23-.52,6,1.07,8.65,2.23,3.79,2.82-3.08,4.91-.82.24.26.71.32,1.07.47,3.62,6.92,3.39,7.54-4.8,13.29-1.63,0-3.14-.22-3.59-2.17-1.17-3.91.27-8.95-4.84-11.15l-.71-.69-.3.49,1,.24c-.35,2,3.3,4.79-1.28,5.81-1.08-1.38-1.92-3.35-4.12-2.72-1.76.5-1.24,2.13-1.19,3.53.1,2.87-2.13,2.9-4.13,3.13l-.14-4.9h0C1694.05,223.14,1690.89,221.53,1689.78,219.91Z"/><path class="cls-6" d="M1722.65,207.88a3.82,3.82,0,0,1-3.72.78A4.77,4.77,0,0,1,1722.65,207.88Z"/><path class="cls-6" d="M1716.72,209.15a4.2,4.2,0,0,1-3.86.72A4.93,4.93,0,0,1,1716.72,209.15Z"/><path class="cls-8" d="M1709.2,210.72l-1,.95-1.27,0-.35-.47Z"/><path class="cls-20" d="M1689.78,219.91c1.11,1.62,4.27,3.23,0,4.89a5.07,5.07,0,0,0-2.41-3.72c0-.42.07-.85.11-1.27Z"/><path class="cls-13" d="M1767.52,300c0-.85,0-1.7-.07-2.55,3.68-6.57,4.13-14,6-21.14,4.75-4.24,4.74-6.31-.09-15.18l-.6-7a2.25,2.25,0,0,0-.46-2.7l-.21-6.07c1.22-.64,2.7-2.08,3.62-1.78,6.09,2,4.87-2.3,5-5.5,2.19,2.41,2.22,5.46,2.51,8.44.21,2.3-.68,4.95,2,6.46,0,5.68.3,11.31,2.55,16.64l1.3,3.79c-4.88,1.65-1.55,5.51-2.23,8.29-3.94,1.27-4,4.5-3.41,7.61.59,2.85,2.8.81,4.31.81,3.51,10.25,3.51,10.25,14.44,9.5.06.74.13,1.47.19,2.2l-.12.16-5.79,2.77c-3.82.78-6.84-2-10.38-2.34-3.14-.26-4.26-1.25-3.35-4.57s-.41-3.82-3.49-2.31C1775.47,297.35,1771.43,298.55,1767.52,300Z"/><path class="cls-14" d="M1773.4,276.32c-1.82,7.09-2.27,14.57-6,21.14-2.18-1.09-3-3-1.81-5,3.68-6.43.35-13,.53-19.43.11-3.67-1.67-6-5.21-7.13-3.73-1.18-5.2-3.13-3.08-7.21,2.27-4.38-1.26-7.46-3.57-10.57-.91-1.23-3.31-2.61-1.65-3.73,4.6-3.12,2-6,.32-8.94-1-1.81-1-3,1.23-3.51,4.73,4.37,6.69,10.32,9.06,16,2.91,7,5.72,14,8.57,21C1772,271.48,1772,274.05,1773.4,276.32Z"/><path class="cls-8" d="M1740.06,213.54c-.85,4.1-2.57,8.07-1.92,12.41-4.45,2.73-5.9,7.27-6.73,11.94-.74,4.15-2.57,5.53-6.49,3.84,0-.41,0-.82,0-1.23,3.93-5.33,1.82-9.95-1.74-14.34-1.6-2-4-3.4-4.34-6.23l2.5-.05,3.6,0c2.92,1.38,2.06-1.14,2.45-2.37,3.69-2,7.29-4,8.47-8.51l0,0,4.18.23a6.18,6.18,0,0,0,.09,1Z"/><path class="cls-9" d="M1780.64,238.08c-.11,3.2,1.11,7.47-5,5.5-.92-.3-2.4,1.14-3.62,1.78-.58-5.75,4.25-7.8,7.49-10.94l.6-.1.6.07Z"/><path class="cls-9" d="M1773.4,276.32c-1.42-2.27-1.43-4.84-1.56-7.39,3.22-2.08-.08-5.4,1.47-7.79C1778.14,270,1778.15,272.08,1773.4,276.32Z"/><path class="cls-9" d="M1772.25,251.43a2.25,2.25,0,0,1,.46,2.7C1771.5,253.41,1771.09,252.55,1772.25,251.43Z"/><path class="cls-13" d="M1780.74,229.72l-.49.08-.49,0c-.11-.46-.23-.91-.34-1.36Z"/><path class="cls-10" d="M1721.32,219.88l-2.5.05a4.43,4.43,0,0,0-4.89,0c-.36-.15-.83-.21-1.07-.47-2.09-2.26-2.68,4.61-4.91.82-1.59-2.69-3.58-5.42-1.07-8.65l1.27,0c.8,3.38,2.69,5,6.38,4.7C1717.33,216.14,1720.21,216.48,1721.32,219.88Z"/><path class="cls-10" d="M1727.37,217.53c-.39,1.23.47,3.75-2.45,2.37A2.62,2.62,0,0,1,1727.37,217.53Z"/><polygon class="cls-8" points="1735.84 209.02 1735.55 208.74 1735.82 209.04 1735.84 209.02"/><path class="cls-11" d="M1625.62,384.85l-4.84-1.46-4.41-4c.27-.71.54-1.42.8-2.13,3,1.47,6.44,2.05,8.67,4.84C1625.77,383,1625.69,383.93,1625.62,384.85Z"/><path class="cls-8" d="M1618.34,303.57l-.39-12.33c.14-.8.29-1.61.44-2.42A28.49,28.49,0,0,1,1618.34,303.57Z"/><path class="cls-7" d="M1607.43,378.64l-2.74-1.26c-1.22-2.21-.72-4.52,1.79-4.1C1610,373.87,1606.74,376.86,1607.43,378.64Z"/><path class="cls-17" d="M1744.08,389.85c-2.13-2.25-4.52-4.35-9-4.67,4.5-3.47,8.39-5.14,10-9.15,1-2.43,2.21-4.76,1.32-7.47-.55-1.67-1.59-3.4-3.26-1.37-3.67,4.46-7.93,2.41-12.15,1.6l-3.58.07c-6,1.73-11.91,3.76-18.19,1.35l-.41.34h-.54l0,0-1.79,1.52c0,1.89.85,3.87-.77,6.06-1.33-2,.3-3.88-.21-5.56l-2.07.6c-1.09,3.89-3.61,6.93-6,10.07,2.65,1.26,5.19.56,8.17-1.2-3,4.69-4.36,4.93-9.87,2.38l-5.86.13-2.34,1-1.07.58a4.42,4.42,0,0,1-3.59,1.74c-7.92.87-7.91.88-6.39,9h0l1.11,1.34c3.72,6.7,7,13.68,11.78,19.72,1.85-.77,3.69-1.57,5.57-2.3,1.61-.63,3.42.1,3.12,1.58-1,5.15,3.61,7.18,5.32,10.77a10.36,10.36,0,0,0,8.83,5.69c2.91-2.79,3-6.4,3.07-10.08,0-2.61-.28-5.25.85-7.75s2.32-5.15,5.41-1.73c2.55,2.83,3.83.33,5.09-1.35,3.85-5.14,7.5-10.28,13.88-12.89a17.5,17.5,0,0,1,6.82-1.79c-.36-1.58-.73-3.17-1.09-4.75A5.46,5.46,0,0,1,1744.08,389.85Zm-14.12-9.6c-.91.22-1.38-.84-1.12-1.63a4.37,4.37,0,0,1,4.89-3.38c1,.1,1.82.75,1.62,2.27C1734.08,379.16,1732,379.75,1730,380.25Z"/><path class="cls-19" d="M1677.58,398.14c3.72,6.7,7,13.68,11.78,19.72a61.28,61.28,0,0,0,9.87,13.17c1.78,4,7.11,4,8.93,7.94-3.33,2.43-2.61,5.46-1.26,8.57l-4,.33c-2.43-2.2-4.82-.42-7.23.08l0-.05-1.4-1-1.93-1.69-2.7-2.19c.06-2.62-.29-5-3.1-6.22-1.89-1.76-3.45-4.57-6.66-2.08l0,0a4.45,4.45,0,0,0-2.08-4.21c.06-4.2.46-8.65-5.91-8.27a20.83,20.83,0,0,0-6.32-8.3,84.93,84.93,0,0,0-4.77-12.92c-1.4-3.07-4.82-7.35,1.21-9.91a10.67,10.67,0,0,1,9.92,3.73,5.09,5.09,0,0,0,4.6,2h0Z"/><path class="cls-14" d="M1662,391c-6,2.56-2.61,6.84-1.21,9.91a84.93,84.93,0,0,1,4.77,12.92c-4.52,2.47-5.91-1.8-7.7-4-2.47-3.08-4.54-6.41-8.25-8.2,2.22-5.13,6.28-8.4,11.07-10.91Z"/><path class="cls-18" d="M1673.46,389l.23,1.44-1.31-.42Z"/><polygon class="cls-15" points="1675.24 384.72 1675.54 385 1675.25 384.71 1675.24 384.72"/><path class="cls-19" d="M1705.48,372.53l-2.07.6a14.32,14.32,0,0,0-2.15-2.84c-4.44-3.58-6.22-6.92.09-10.48,2-1.13,1.93-2.81-.13-4.22-3.13-2.15-3.41-9.32-9.88-5.58-3-5.52-6.52-1.88-9.9-.51a14.77,14.77,0,0,1,.57-6.57c4.81-2.93,5.08-7.46.69-11.5-4.67-3.22-6.27,1.25-8.57,3.78-2.06-1.5-.84-3.42-1.23-5,.39-7.14,3.47-13.66,4.82-20.58.13-.14.39-.28.37-.4a5.57,5.57,0,0,0-.29-1c-.06-.77-.11-1.54-.16-2.31,2-1.63,2.34-4,2.85-6.28,1.51.21,2.58-.52,3.73-1.43,7-5.55,7.91-20.89,1.81-30l.39-7c1.33.36,1.79,1.35,2.21,2.58,3.51,10.35,9.56,14.56,20.34,14.27,4.28-.12,4.28-.12,9.34-4.51,1.06,1.54.29,3.06,0,4.58-.91,4.2-1.45,8.13,5.07,6.73,1.06-.23,2.6,0,2.32,1-1.53,5.77,5.36,8.52,4.2,14.19,9.25-6,18.25-2.53,27.14-1.05,2,.33,1.92,2.42,1.76,4-.22,2.2-.68,4.37-1,6.55l0,0c-1.94-.3-4.29-1.85-5.73,0-3.48,4.49-10.82,4.9-11.86,12.06-.74,5.08-6.71,6-9.21,9.48a31.87,31.87,0,0,0-5.87,20.86c.11,5.34-1.71,9.43-7.29,10.9-2,.52-2.48,1.8-2.52,3.55h-2.41c-2.76-.07-5.16.26-4.57,4v0a2.36,2.36,0,0,0-2.82.9A2.4,2.4,0,0,0,1705.48,372.53Zm8.17-69.52c-2.57,3.17-1.78,6.2-2.5,8.82-3.91,14.18-.49,28.89-3,43.21-.36,2.11,0,5.09,2.92,5.88,2.37.63,11.26-6.9,11.31-9.54.17-10.65.37-21.32-1.26-31.9-.33-2.17-.94-4.44-3.59-1.74-1.15,1.16-2.33,1.86-3.65.84a3.22,3.22,0,0,1-.63-4.41C1715.68,310.66,1713.79,307.36,1713.65,303Zm-15.48,39.9c-.07-1-.2-2.25-1.47-2s-1.65,1.6-1.68,2.83c0,.83.33,1.62,1.31,1.62C1698,345.38,1698.07,344.13,1698.17,342.91Z"/><path class="cls-6" d="M1681.44,349.5c3.38-1.37,6.88-5,9.9.51,6.47-3.74,6.75,3.43,9.88,5.58,2.06,1.41,2.13,3.09.13,4.22-6.31,3.56-4.53,6.9-.09,10.48a14.32,14.32,0,0,1,2.15,2.84c-1.09,3.89-3.61,6.93-6,10.07a1.54,1.54,0,0,0-1.7,1.18l-5.86.13c.83-4-3.58-5.29-4.25-8.8C1684,367,1684.09,358,1681.44,349.5Z"/><path class="cls-18" d="M1682.7,331.43c4.39,4,4.12,8.57-.69,11.5Z"/><path class="cls-15" d="M1649.58,401.63c3.71,1.79,5.78,5.12,8.25,8.2,1.79,2.24,3.18,6.51,7.7,4a20.83,20.83,0,0,1,6.32,8.3c.75,2.84,1.5,5.69,2.26,8.53-6-1-9.19-6.11-13.46-9.61-2.54-5.33-5-10.68-9.21-15C1650.32,404.92,1648.33,403.88,1649.58,401.63Z"/><path class="cls-8" d="M1646,410l-3.58.17C1643.53,407.72,1644.68,406.88,1646,410Z"/><path class="cls-18" d="M1655.7,355.62c-3.65-.49-9.24,1.93-8.29-5.5C1649.71,352.65,1655.16,350.43,1655.7,355.62Z"/><path class="cls-9" d="M1686,268.24c6.1,9.13,5.14,24.47-1.81,30-1.15.91-2.22,1.64-3.73,1.43l4.32-28.92C1685.22,269.93,1685.62,269.09,1686,268.24Z"/><path class="cls-16" d="M1635.15,397.92l1.13.41c-.7.78-.77-.26-1.15-.4Z"/><path class="cls-14" d="M1677.8,308.28a5.57,5.57,0,0,1,.29,1c0,.12-.24.26-.37.4C1677.74,309.18,1677.77,308.73,1677.8,308.28Z"/><path class="cls-14" d="M1715.22,366.53c0-1.75.55-3,2.52-3.55,5.58-1.47,7.4-5.56,7.29-10.9,5.9-3.21,5.67-9.37,6.81-16,3.37,6,5.46,5.43,7.13.18a25.3,25.3,0,0,1,11.77-14.68c5.48-2.93,6.7-6.75,7-11.92l0,0,6-1.27.39,2.57c-1.92,6.89-5.57,13.27-6,20.58l-.84,2.18c-1.32.42-2,1.08-1,2.47-.08.77-.16,1.54-.25,2.31a2.62,2.62,0,0,0-1.83,2.77l-.13,2.24c-2.59.3-4.46,2.61-7.28,2.45-5.32-.29-6.77,3-5.66,7.35.93,3.61.61,6.16-2.83,8.05a5.11,5.11,0,0,0-2.47,3.92l-2.2,1.08c-.23-2.51-.16-5.43-3.11-6.3a4.22,4.22,0,0,0-5.57,2.81C1722,364.87,1718.93,366.6,1715.22,366.53Z"/><path class="cls-20" d="M1764.1,311l-.39-2.57h0a4.4,4.4,0,0,0,2.55-3.56c.83-1.5-.4-3.54,1.27-4.82,3.91-1.46,8-2.66,11.68-4.48,3.08-1.51,4.4-1,3.49,2.31s.21,4.31,3.35,4.57c3.54.3,6.56,3.12,10.38,2.34l.15,1.39-9.67,7.24c-3.61,0-7.3.26-9-4.12-.53-1.37-2.16-1.51-3.42-2.11C1769.58,304.81,1767.56,309.74,1764.1,311Z"/><path class="cls-15" d="M1724.92,241.73c3.92,1.69,5.75.31,6.49-3.84.83-4.67,2.28-9.21,6.73-11.94,5.43,10.31,1.76,20.34-9.09,24.41-2.14.81-3,2.58-4.09,4.16-1.42,2-2.91,3.82-5.5,4.28q1.72-7.34,3.46-14.68Z"/><path class="cls-11" d="M1722.92,244.12q-1.73,7.33-3.46,14.68c-.12.78-.25,1.57-.37,2.36a3.14,3.14,0,0,0-1.14.15c-3.74.4-7.6.45-10.34,3.68l-.93-1.3c.64-3.72-.77-7.24-1-10.86,5.86-1.19,12.69-.68,14.7-8.51Z"/><path class="cls-19" d="M1706.68,263.69l.93,1.3c.7,1.92,2.63,2.6,3.93,3.91-.38,2.05,1.12,5-1.26,6-2.89,1.21-5-1.73-6.22-3.54-2.55-4-5-7.26-10-8.6-2.39-.65-2.34-3,.54-4.06,3,2.82,5.2,1,7.28-1.33C1704.16,259,1703.88,262.49,1706.68,263.69Z"/><path class="cls-14" d="M1735.9,264.14c-.18,1.23,0,2.59-.58,3.59-1.19,2.26.47,6.88-2.23,6.75-3.54-.18-3.66-4.85-4.23-7.85-.67-3.51,2.12-6.15,4.84-6.8C1737,259,1735.22,262.58,1735.9,264.14Z"/><path class="cls-12" d="M1711.54,268.9c-1.3-1.31-3.23-2-3.93-3.91,2.74-3.23,6.6-3.28,10.34-3.68l.33,2.52-1.38,4.48-.36,2.57C1713.49,273.73,1713.54,268.71,1711.54,268.9Z"/><path class="cls-14" d="M1701.93,257.36c-2.08,2.37-4.26,4.15-7.28,1.33-.85-2.87-5-3.36-5-6.84l2.56-.53,2.37,1.34c1.4,1.36,2,5,5,1.64Z"/><path class="cls-14" d="M1766.25,304.83a4.4,4.4,0,0,1-2.55,3.56C1763.68,306.58,1764,305,1766.25,304.83Z"/><path class="cls-15" d="M1718.28,263.83l-.33-2.52a3.14,3.14,0,0,1,1.14-.15C1720.25,262.48,1719.47,263.21,1718.28,263.83Z"/><path class="cls-20" d="M1692.24,251.32l-2.56.53,0-2.74A2.47,2.47,0,0,1,1692.24,251.32Z"/><path class="cls-15" d="M1716.54,270.88l.36-2.57A1.73,1.73,0,0,1,1716.54,270.88Z"/><path class="cls-20" d="M1699.6,254.29c-2.95,3.39-3.59-.27-5-1.63,2.45-.7,2.16-2.1.71-3.46-4.27-4-5.47-9.67-8-14.59.22-.22.45-.43.68-.63a8.27,8.27,0,0,0,6.26-.76c3.24-1.87,6.1-1.3,7.8,2.41-.36,1.65-1,3.19-2.86,3.44-6.33.87-3.65,3.09-1.15,5.86,1.56,1.74,3.75,3.81,1.79,6.71Z"/><path class="cls-20" d="M1684.9,236.88c.44-1.54-1.15-5.17,3-2.9h.07c-.23.2-.46.41-.68.63Z"/><path class="cls-10" d="M1688,234h-.07c.39-1,.77-2.09,1.15-3.14l.92-1.14c2-.23,4.23-.26,4.13-3.13,0-1.4-.57-3,1.19-3.53,2.2-.63,3,1.34,4.12,2.73.35,3.74,3.38,4.36,6.15,5.29.45,1.95,2,2.16,3.59,2.17,5.65,1.57,11.58,2.54,15.77,7.27,0,.41,0,.82,0,1.23l-2,2.39-2.59.2c-1-.94-2.19-1.19-3.19-.13-3.86,4.08-8.25,1.76-12.48,1.09-1.83-.29-3.55-1.81-1.35-3,7.41-4,1-4.83-1.3-6.65-1.7-3.71-4.56-4.28-7.8-2.41A8.27,8.27,0,0,1,1688,234Z"/><path class="cls-20" d="M1690,229.7l-.92,1.14c-2.7-2.39-1.73-4.31.78-6C1689.85,226.43,1689.9,228.07,1690,229.7Z"/><path class="cls-16" d="M1724.9,240.5c-4.19-4.73-10.12-5.7-15.77-7.27,8.19-5.75,8.42-6.37,4.8-13.29a4.43,4.43,0,0,1,4.89,0c.37,2.83,2.74,4.25,4.34,6.23C1726.72,230.55,1728.83,235.17,1724.9,240.5Z"/><path class="cls-20" d="M1705.54,231.06c-2.77-.93-5.8-1.55-6.15-5.29,4.58-1,.93-3.87,1.28-5.82l0,0C1705.81,222.11,1704.37,227.15,1705.54,231.06Z"/><path class="cls-20" d="M1700.67,220l-1-.24.3-.49.71.69Z"/><path class="cls-9" d="M1789,273.41l1.37,1c.5,2.55,2.91,2.88,4.64,4-.1,5.86,5.8,6.2,8.63,9.38-.27,4-.14,8-1.53,11.83-10.93.75-10.93.75-14.44-9.5,0-.77,0-1.55,0-2.33-.21-.6-.42-1.2-.62-1.8-.09-1.43-.18-2.86-.26-4.29C1787.48,278.92,1784.15,275.06,1789,273.41Z"/><path class="cls-20" d="M1786.8,281.7c.08,1.43.17,2.86.26,4.29.2.6.41,1.2.62,1.8,0,.78,0,1.56,0,2.33-1.51,0-3.72,2-4.31-.81C1782.75,286.2,1782.86,283,1786.8,281.7Z"/><path class="cls-16" d="M1720.14,467.14l-1.24,1.23-1.09,1.23-1.32,1.13h-1.27c.33-4.06-3-3.52-5.35-4.32.76-4.17-3-4.63-5.28-6.11-2.58-1.71-5.57-2.8-8.39-4.17-1.66-2.16-3.49-4.09-6.34-4.62-.39-2.12-.79-4.25-1.18-6.37l3.65.05,1.93,1.69,1.4,1,0,.05c2.44,2.69,4.78,5.76,8.91,2.54l7.85,5,1.65,2C1712.71,462.82,1719.56,463,1720.14,467.14Z"/><path class="cls-6" d="M1674.11,430.7c-.76-2.84-1.51-5.69-2.26-8.53,6.37-.38,6,4.07,5.91,8.28l-3.1.73A.76.76,0,0,1,1674.11,430.7Z"/><path class="cls-14" d="M1686.53,436.77c2.81,1.18,3.16,3.6,3.1,6.21l-1.43.32.11,0a2.3,2.3,0,0,0-2.27-1.59l-2.32-2.42A2.83,2.83,0,0,1,1686.53,436.77Z"/><path class="cls-15" d="M1686.53,436.77a2.83,2.83,0,0,0-2.81,2.5,6.2,6.2,0,0,1-3.85-4.58C1683.08,432.2,1684.64,435,1686.53,436.77Z"/><path class="cls-15" d="M1674.66,431.18l3.1-.73a4.43,4.43,0,0,1,2.08,4.2A4.72,4.72,0,0,1,1674.66,431.18Z"/><path class="cls-15" d="M1688.2,443.3l1.43-.32,2.7,2.2-3.65-.05Z"/><path class="cls-15" d="M1686,441.69a2.3,2.3,0,0,1,2.27,1.59A2.58,2.58,0,0,1,1686,441.69Z"/><path class="cls-11" d="M1712.2,433.61c2.91-2.8,3-6.41,3.07-10.09,0-2.61-.28-5.25.85-7.75s2.32-5.15,5.41-1.73c2.55,2.83,3.83.33,5.09-1.35,3.85-5.14,7.5-10.28,13.88-12.89a17.5,17.5,0,0,1,6.82-1.79c2.11,5.93,2.09,12.16,2.57,18.31-2.24,0-1.2,3.32-3.36,3.43-.29-.43-.55-.74-.74-1.08-.8-1.48-1.09-4.7-2.87-3.75-2.58,1.38-6.15,2.85-6.56,6.38-.31,2.66,2.62,2.74,4.39,3.08a35.27,35.27,0,0,1,10.38,4.22c-.75,3.22-4.1,4.36-5.61,7a3.45,3.45,0,0,1-1-.22c-1.79-2.39-3.89-2.61-6.71-1.61A112.23,112.23,0,0,1,1713,439,9,9,0,0,0,1712.2,433.61Z"/><path class="cls-20" d="M1744.67,385.39c.35-.69.69-1.38,1-2.08.14-.3.28-.59.41-.9q-.19.51,0-.06a18.64,18.64,0,0,0,.74-2.18c0-.17.42-1.89.3-1a7.26,7.26,0,0,1,2.27-4.62l0-.05c-1.63-3.78.14-8.3.89-12.44.39-2.16.79-4.33,1.18-6.49-2.65-.29-4.42,1-6.09,3-2.56,3.08-5.58,5.7-9.64,6.72l-2.2,1.08a3,3,0,0,0-2.62,2.43c4.22.81,8.48,2.86,12.15-1.6,1.67-2,2.71-.3,3.26,1.37.89,2.71-.34,5-1.32,7.47-1.61,4-5.5,5.68-10,9.15,4.52.32,6.91,2.42,9,4.67A7,7,0,0,1,1744.67,385.39Z"/><path class="cls-7" d="M1699.23,431a61.28,61.28,0,0,1-9.87-13.17c1.85-.77,3.69-1.57,5.57-2.3,1.61-.63,3.42.1,3.12,1.58-1,5.15,3.61,7.18,5.32,10.77C1702.07,429.06,1701.17,430.73,1699.23,431Z"/><path class="cls-20" d="M1715.22,366.53c3.71.07,6.74-1.66,9.67-3.66,3.34,1,2.23,3.76,2.48,6-6,1.73-11.91,3.76-18.19,1.35l2.4-1.31c1.73,0,3.3-.23,3.64-2.37Z"/><path class="cls-13" d="M1699.23,431c1.94-.3,2.84-2,4.14-3.12a10.36,10.36,0,0,0,8.83,5.69A9,9,0,0,1,1713,439l-4.79,0C1706.34,435,1701,435,1699.23,431Z"/><path class="cls-15" d="M1727.37,368.86c-.25-2.23.86-5-2.48-6a4.22,4.22,0,0,1,5.57-2.81c3,.87,2.88,3.79,3.11,6.3a3,3,0,0,0-2.62,2.43Z"/><path class="cls-8" d="M1735.35,377.51c-1.27,1.65-3.36,2.24-5.39,2.74-.91.22-1.38-.84-1.12-1.63a4.37,4.37,0,0,1,4.89-3.38C1734.75,375.34,1735.55,376,1735.35,377.51Z"/><path class="cls-12" d="M1695.74,384.38a1.54,1.54,0,0,1,1.7-1.18c2.65,1.26,5.19.56,8.17-1.2C1702.63,386.69,1701.25,386.93,1695.74,384.38Z"/><path class="cls-6" d="M1711.58,368.9l-2.4,1.31-.41.34h-.53c-.59-3.74,1.81-4.07,4.57-4Z"/><path class="cls-12" d="M1706.46,372c0,1.89.85,3.87-.77,6.06-1.33-2,.3-3.88-.21-5.56a2.4,2.4,0,0,1,0-1.13A5.68,5.68,0,0,0,1706.46,372Z"/><path class="cls-6" d="M1706.46,372a5.68,5.68,0,0,1-1-.63,2.36,2.36,0,0,1,2.82-.9Z"/><path class="cls-20" d="M1677.58,398.14l-1.11-1.34Z"/><path class="cls-6" d="M1706.9,447.54c5.79-3.31,12.52-3.43,18.7-5.42,2.69-.86,4.8-.12,5.51,3l-6.16,5c-2.64,1.08-7.2-.22-6.36,5.15l-6.13.19-7.85-5-1.68-2.62Z"/><path class="cls-15" d="M1702.93,447.87l1.68,2.62c-4.13,3.22-6.47.15-8.91-2.54C1698.11,447.45,1700.5,445.67,1702.93,447.87Z"/><path class="cls-15" d="M1695.66,447.9l-1.4-1Z"/><path class="cls-9" d="M1713.65,303c.14,4.35,2,7.65-.36,11.16a3.22,3.22,0,0,0,.63,4.41c1.32,1,2.5.32,3.65-.84,2.65-2.7,3.26-.43,3.59,1.74,1.63,10.58,1.43,21.25,1.26,31.9-.05,2.64-8.94,10.17-11.31,9.54-3-.79-3.28-3.77-2.92-5.88,2.47-14.32-1-29,3-43.21C1711.87,309.21,1711.08,306.18,1713.65,303Z"/><path class="cls-6" d="M1757.7,309.68c-.26,5.17-1.48,9-7,11.92A25.3,25.3,0,0,0,1739,336.28c-1.67,5.25-3.76,5.81-7.13-.18-1.14,6.61-.91,12.77-6.81,16a31.87,31.87,0,0,1,5.87-20.86c2.5-3.44,8.47-4.4,9.21-9.48,1-7.16,8.38-7.57,11.86-12.06C1753.41,307.83,1755.76,309.38,1757.7,309.68Z"/><path class="cls-6" d="M1698.17,342.91c-.1,1.22-.22,2.47-1.84,2.49-1,0-1.33-.79-1.31-1.62,0-1.23.44-2.56,1.68-2.83S1698.1,341.92,1698.17,342.91Z"/><path class="cls-14" d="M1711.58,368.9l1.23-2.36h2.41C1714.88,368.67,1713.31,368.91,1711.58,368.9Z"/><path class="cls-8" d="M1764.1,311c3.46-1.22,5.48-6.15,10.37-3.81,1.26.6,2.89.74,3.42,2.11,1.71,4.38,5.4,4.08,9,4.12-3.87,3.35-7.85,6.43-13.43,5.83-3.53-3-9-.95-11.29,4-1.31,2.8-1.08,6.36-4.11,8.29C1758.53,324.23,1762.18,317.85,1764.1,311Z"/><path class="cls-16" d="M1760.36,328.83a9,9,0,0,1,3.86-2.18,10.27,10.27,0,0,1,4.71,0,4.58,4.58,0,0,1,1.61.68q-.19-1.11-.45-2.22c-.64-2.79-.74-5.67,3.38-5.92-3.53-3-9-.95-11.29,4-.82,1.77-1,3.83-1.85,5.61Z"/><path class="cls-15" d="M1754,343.51c.59,4.32.41,8.48-2.51,12.08-2.65-.29-4.42,1-6.09,3-2.56,3.08-5.58,5.7-9.64,6.72a5.11,5.11,0,0,1,2.47-3.92c3.44-1.89,3.76-4.44,2.83-8.05-1.11-4.35.34-7.64,5.66-7.35C1749.55,346.12,1751.42,343.81,1754,343.51Z"/><path class="cls-15" d="M1756,338.5c.27,1.5-.5,2.32-1.83,2.76A2.62,2.62,0,0,1,1756,338.5Z"/><path class="cls-15" d="M1757.23,333.72l.27,2.4-1.27.07C1755.18,334.8,1755.91,334.14,1757.23,333.72Z"/><path class="cls-17" d="M1798.67,328.55a9.61,9.61,0,0,0,2.52,1.18c0-.26,0-.51,0-.77,0-4.55-1.18-9.06-1.41-13.63-2.32-1-1-4.11-2.1-5.78a4.69,4.69,0,0,0-1.15-3.41l-9.67,7.24c-3.87,3.35-7.85,6.43-13.43,5.83-4.12.25-4,3.13-3.38,5.92a30.79,30.79,0,0,1,.87,8.7,57.26,57.26,0,0,1,3.73,24.27c1.62,2.22,1,4.77,1.08,7.23,2.21,8.47-1.6,15.68-4.8,23-1.24,5.78-6.24,9.37-8.47,14.57l0,3.69,2.48,0a6.45,6.45,0,0,1,2.66-5.72c1.11-.93,2.3-1.72,3.8-1.28,2.06.6,1.08,2.19,1,3.48-.14,1.66-.13,3.79,1.9,3.67s1.43-2.48,1.49-4c.12-3,0-6,.11-9a5,5,0,0,1,4.11-5.19c2.3-.56,3.75.4,4.7,2.57a5,5,0,0,0,5.28,3.17l1.39-3.58c1.39-3,3.25-6,2.6-9.57-2.58,0-3.65-1.91-4.75-3.76-3.18-.37-6.34-.89-8-4-.51-.93.3-1.9,1.16-2.47,3.05-2,5.66-.05,8.37,1l1.88-1,.15-1.91c-1.1-1.22-.94-2.51-.31-3.88,3.54-7.63,3.29-15.88,3.92-24-3.11-2.92-3.94-9.44-1.46-12.38C1796,327.44,1797.48,327.78,1798.67,328.55Z"/><path class="cls-8" d="M1702,235.63c2.26,1.82,8.71,2.62,1.3,6.65-2.2,1.19-.48,2.71,1.35,3,4.23.67,8.62,3,12.48-1.09,1-1.06,2.16-.81,3.19.13-2,7.83-8.83,7.32-14.69,8.5l-5.85-1.18c2-2.9-.23-5-1.79-6.71-2.5-2.77-5.18-5,1.15-5.86C1701,238.82,1701.65,237.28,1702,235.63Z"/><path class="cls-12" d="M1699.79,251.64l5.85,1.18c.27,3.63,1.68,7.15,1,10.87-2.8-1.2-2.52-4.7-4.75-6.33l-2.33-3.06C1699.67,253.41,1699.73,252.53,1699.79,251.64Z"/><path class="cls-16" d="M1800.65,332.93a16.21,16.21,0,0,0,.54-3.2,9.61,9.61,0,0,1-2.52-1.18c-1.19-.77-2.71-1.11-3.79.17-2.48,2.94-1.65,9.46,1.46,12.38q1.25-2.43,2.47-4.88C1798.88,334.19,1799.61,333.31,1800.65,332.93Z"/><path class="cls-6" d="M1720.14,467.14c-.58-4.11-7.43-4.32-6-9.67,2.45,1.28,4.09,5.36,7.82,2.29C1725.65,463.27,1721.29,464.82,1720.14,467.14Z"/><path class="cls-20" d="M1721.93,459.76c-3.73,3.07-5.37-1-7.82-2.29l-1.65-2,6.13-.19Q1720.26,457.52,1721.93,459.76Z"/><path class="cls-6" d="M1717.81,469.6l1.09-1.23Z"/><path class="cls-13" d="M1787.68,287.79c-.21-.6-.42-1.2-.62-1.8C1787.26,286.59,1787.47,287.19,1787.68,287.79Z"/><path class="cls-16" d="M1802.33,301.82l.62,1.43-.74-1.27Z"/><path class="cls-17" d="M1751.79,424.12l-.66,4.48a35.27,35.27,0,0,0-10.38-4.22c-1.77-.34-4.7-.42-4.39-3.08.41-3.53,4-5,6.56-6.38,1.78-.95,2.07,2.27,2.87,3.75.19.34.45.65.74,1.08,2.16-.11,1.12-3.46,3.36-3.43l.54,2.21C1750.88,420.39,1751.34,422.26,1751.79,424.12Z"/><path class="cls-11" d="M1762.5,402.92c0,1.23,0,2.46,0,3.69-.28,3.94-5.6,5-5.46,8.85s-2.24,3-4.28,3.17c0-6.08,6-9.13,7.36-14.54Z"/><path class="cls-16" d="M1752.74,418.63c2-.2,4.42.63,4.28-3.17s5.18-4.91,5.46-8.85l2.48,0,3.64,2.45-4.22,5c2.93,1.66,6.89-2.4,8.36,1.41s-1.7,6.72-3.56,9.75c-.28.45-1,.62-1.52.93-.36-1.16-.58-2.43-2.12-2.65a1.55,1.55,0,0,0-1.41-1.77l-1.6-1a.76.76,0,0,0-1.31,0c-3.67-.31-5.2,5.25-9.43,3.44-.45-1.86-.91-3.73-1.36-5.59Z"/><path class="cls-8" d="M1761.22,420.68a.76.76,0,0,1,1.31,0Z"/><path class="cls-11" d="M1768.6,409l-3.64-2.45a6.45,6.45,0,0,1,2.66-5.72c1.11-.93,2.3-1.72,3.8-1.28,2.06.6,1.08,2.19,1,3.48-.14,1.66-.13,3.79,1.9,3.67s1.43-2.48,1.49-4c.12-3,0-6,.11-9a5,5,0,0,1,4.11-5.19c2.3-.56,3.75.4,4.7,2.57a5,5,0,0,0,5.28,3.17c.1,1.66.21,3.33.31,5-1.28,2.25-1.18,4.72-1.21,7.18-2.13.76-2.39,1.59-.08,2.5,0,1.64-.08,3.27-.13,4.91l-2.13-.1c-1.88-1.71-2.31-9.2-6.52-1.58-.72,1.3-1.62.23-2.41-.35-1.45-1-3-1.95-4.46-2.92Z"/><path class="cls-7" d="M1789.22,377.41c-3.18-.37-6.34-.89-8-4-.51-.93.3-1.9,1.16-2.47,3.05-2,5.66-.05,8.37,1A10.67,10.67,0,0,0,1789.22,377.41Z"/><path class="cls-6" d="M1792.58,370.88a10.06,10.06,0,0,1,2.87,6.52,5.06,5.06,0,0,0-1.48,3.77c-2.58,0-3.65-1.91-4.75-3.76a10.67,10.67,0,0,1,1.48-5.51Z"/><path class="cls-17" d="M1768.6,409l4.75-.07a30.27,30.27,0,0,1,1.3,9.47c0,1.88-1,4.51,1.27,5.43,2.59,1.07,1.9-2.51,3.4-3.23a16.26,16.26,0,0,1,3.36-1.21c3-.69,4.42-2.49,4.06-5.61l2.14.1a10.91,10.91,0,0,1,.22,8.36c-1.21,2.36-3.32,3.14-5.79,3.79-3.58.95-7.49,1.15-10.12,4.61-1.73,2.3-4.6,3.11-6.92,1-2.52-2.23,1.44-3.6,1.39-5.65.52-.31,1.24-.48,1.52-.93,1.86-3,5-6.08,3.56-9.75s-5.43.25-8.36-1.41Z"/><path class="cls-16" d="M1786.74,413.8c.36,3.12-1,4.92-4.06,5.61a16.26,16.26,0,0,0-3.36,1.21c-1.5.72-.81,4.3-3.4,3.23-2.23-.92-1.31-3.55-1.27-5.43a30.27,30.27,0,0,0-1.3-9.47c1.49,1,3,1.89,4.46,2.92.79.58,1.69,1.65,2.41.35C1784.43,404.6,1784.86,412.09,1786.74,413.8Z"/><path class="cls-16" d="M1789.13,407.73c0,.42-.08.84-.13,1.26-2.31-.91-2-1.74.08-2.5C1789.1,406.9,1789.12,407.31,1789.13,407.73Z"/></g></svg>